%TF.GenerationSoftware,KiCad,Pcbnew,7.0.7*%
%TF.CreationDate,2023-09-20T23:35:26+09:00*%
%TF.ProjectId,Proto6,50726f74-6f36-42e6-9b69-6361645f7063,rev?*%
%TF.SameCoordinates,Original*%
%TF.FileFunction,Profile,NP*%
%FSLAX46Y46*%
G04 Gerber Fmt 4.6, Leading zero omitted, Abs format (unit mm)*
G04 Created by KiCad (PCBNEW 7.0.7) date 2023-09-20 23:35:26*
%MOMM*%
%LPD*%
G01*
G04 APERTURE LIST*
%TA.AperFunction,Profile*%
%ADD10C,0.100000*%
%TD*%
%TA.AperFunction,Profile*%
%ADD11C,0.120000*%
%TD*%
G04 APERTURE END LIST*
D10*
X103775000Y-104775000D02*
X48625000Y-104775000D01*
X103775000Y-104775000D02*
G75*
G03*
X104775000Y-103775000I0J1000000D01*
G01*
X104775000Y-48625000D02*
X104775000Y-103775000D01*
X47625000Y-103775000D02*
X47625000Y-48625000D01*
X104775000Y-48625000D02*
G75*
G03*
X103775000Y-47625000I-1000000J0D01*
G01*
X48625000Y-47625000D02*
X103775000Y-47625000D01*
X47625000Y-103775000D02*
G75*
G03*
X48625000Y-104775000I1000000J0D01*
G01*
X48625000Y-47625000D02*
G75*
G03*
X47625000Y-48625000I0J-1000000D01*
G01*
D11*
%TO.C,LED5*%
X74500000Y-98830000D02*
X74500000Y-101830000D01*
X74500000Y-101830000D02*
X77900000Y-101830000D01*
X77900000Y-98830000D02*
X74500000Y-98830000D01*
X77900000Y-101830000D02*
X77900000Y-98830000D01*
%TO.C,LED2*%
X77900000Y-82780000D02*
X77900000Y-79780000D01*
X77900000Y-79780000D02*
X74500000Y-79780000D01*
X74500000Y-82780000D02*
X77900000Y-82780000D01*
X74500000Y-79780000D02*
X74500000Y-82780000D01*
%TO.C,LED6*%
X55450000Y-98830000D02*
X55450000Y-101830000D01*
X55450000Y-101830000D02*
X58850000Y-101830000D01*
X58850000Y-98830000D02*
X55450000Y-98830000D01*
X58850000Y-101830000D02*
X58850000Y-98830000D01*
%TO.C,LED3*%
X96950000Y-82780000D02*
X96950000Y-79780000D01*
X96950000Y-79780000D02*
X93550000Y-79780000D01*
X93550000Y-82780000D02*
X96950000Y-82780000D01*
X93550000Y-79780000D02*
X93550000Y-82780000D01*
%TO.C,LED4*%
X93550000Y-98830000D02*
X93550000Y-101830000D01*
X93550000Y-101830000D02*
X96950000Y-101830000D01*
X96950000Y-98830000D02*
X93550000Y-98830000D01*
X96950000Y-101830000D02*
X96950000Y-98830000D01*
%TO.C,LED1*%
X58850000Y-82780000D02*
X58850000Y-79780000D01*
X58850000Y-79780000D02*
X55450000Y-79780000D01*
X55450000Y-82780000D02*
X58850000Y-82780000D01*
X55450000Y-79780000D02*
X55450000Y-82780000D01*
%TD*%
M02*
