M48
; DRILL file {KiCad 7.0.7} date Wed Sep 20 23:35:26 2023
; FORMAT={-:-/ absolute / inch / decimal}
; #@! TF.CreationDate,2023-09-20T23:35:26+09:00
; #@! TF.GenerationSoftware,Kicad,Pcbnew,7.0.7
; #@! TF.FileFunction,Plated,1,2,PTH
FMAT,2
INCH
; #@! TA.AperFunction,Plated,PTH,ViaDrill
T1C0.0157
; #@! TA.AperFunction,Plated,PTH,ComponentDrill
T2C0.0394
; #@! TA.AperFunction,Plated,PTH,ComponentDrill
T3C0.0600
; #@! TA.AperFunction,Plated,PTH,ComponentDrill
T4C0.0787
%
G90
G05
T1
X1.9486Y-2.5317
X2.0947Y-2.149
X2.1502Y-3.2719
X2.4152Y-2.6904
X2.5372Y-1.9931
X2.6711Y-3.1311
X2.6726Y-4.0372
X2.7691Y-2.4844
X3.2372Y-2.0907
X3.3917Y-3.6524
X3.4289Y-2.5894
X3.4368Y-1.9923
X3.6817Y-2.8419
X3.8656Y-3.8569
X3.9211Y-3.1726
T2
X1.9547Y-2.1516
X1.9547Y-2.25
X1.9547Y-2.3484
X4.0453Y-2.1516
X4.0453Y-2.25
X4.0453Y-2.3484
T3
X2.1Y-2.9
X2.1Y-3.65
X2.35Y-2.8
X2.35Y-3.55
X2.85Y-2.9
X2.85Y-3.65
X3.1Y-2.8
X3.1Y-3.55
X3.6Y-2.9
X3.6Y-3.65
X3.85Y-2.8
X3.85Y-3.55
T4
G00X2.2402Y-2.0295
M15
G01X2.2598Y-2.0295
M16
G05
G00X2.2402Y-2.4705
M15
G01X2.2598Y-2.4705
M16
G05
G00X3.7598Y-2.0295
M15
G01X3.7402Y-2.0295
M16
G05
G00X3.7598Y-2.4705
M15
G01X3.7402Y-2.4705
M16
G05
T0
M30
