%TF.GenerationSoftware,KiCad,Pcbnew,7.0.7*%
%TF.CreationDate,2023-09-20T23:35:26+09:00*%
%TF.ProjectId,Proto6,50726f74-6f36-42e6-9b69-6361645f7063,rev?*%
%TF.SameCoordinates,Original*%
%TF.FileFunction,Paste,Bot*%
%TF.FilePolarity,Positive*%
%FSLAX46Y46*%
G04 Gerber Fmt 4.6, Leading zero omitted, Abs format (unit mm)*
G04 Created by KiCad (PCBNEW 7.0.7) date 2023-09-20 23:35:26*
%MOMM*%
%LPD*%
G01*
G04 APERTURE LIST*
G04 Aperture macros list*
%AMRoundRect*
0 Rectangle with rounded corners*
0 $1 Rounding radius*
0 $2 $3 $4 $5 $6 $7 $8 $9 X,Y pos of 4 corners*
0 Add a 4 corners polygon primitive as box body*
4,1,4,$2,$3,$4,$5,$6,$7,$8,$9,$2,$3,0*
0 Add four circle primitives for the rounded corners*
1,1,$1+$1,$2,$3*
1,1,$1+$1,$4,$5*
1,1,$1+$1,$6,$7*
1,1,$1+$1,$8,$9*
0 Add four rect primitives between the rounded corners*
20,1,$1+$1,$2,$3,$4,$5,0*
20,1,$1+$1,$4,$5,$6,$7,0*
20,1,$1+$1,$6,$7,$8,$9,0*
20,1,$1+$1,$8,$9,$2,$3,0*%
G04 Aperture macros list end*
%ADD10R,1.700000X0.820000*%
%ADD11RoundRect,0.205000X-0.645000X-0.205000X0.645000X-0.205000X0.645000X0.205000X-0.645000X0.205000X0*%
%ADD12RoundRect,0.205000X0.645000X0.205000X-0.645000X0.205000X-0.645000X-0.205000X0.645000X-0.205000X0*%
%ADD13RoundRect,0.225000X0.375000X-0.225000X0.375000X0.225000X-0.375000X0.225000X-0.375000X-0.225000X0*%
%ADD14RoundRect,0.250000X0.300000X-0.300000X0.300000X0.300000X-0.300000X0.300000X-0.300000X-0.300000X0*%
%ADD15R,3.000000X2.000000*%
%ADD16C,1.500000*%
%ADD17R,1.300000X2.300000*%
G04 APERTURE END LIST*
D10*
%TO.C,LED5*%
X73650000Y-99580000D03*
X73650000Y-101080000D03*
D11*
X78750000Y-101080000D03*
D10*
X78750000Y-99580000D03*
%TD*%
%TO.C,LED2*%
X78750000Y-82030000D03*
X78750000Y-80530000D03*
D12*
X73650000Y-80530000D03*
D10*
X73650000Y-82030000D03*
%TD*%
%TO.C,LED6*%
X54600000Y-99580000D03*
X54600000Y-101080000D03*
D11*
X59700000Y-101080000D03*
D10*
X59700000Y-99580000D03*
%TD*%
D13*
%TO.C,D6*%
X103020000Y-94950000D03*
X103020000Y-91650000D03*
%TD*%
%TO.C,D4*%
X64920000Y-94950000D03*
X64920000Y-91650000D03*
%TD*%
D14*
%TO.C,D7*%
X49480000Y-68937500D03*
X49480000Y-66137500D03*
%TD*%
D10*
%TO.C,LED3*%
X97800000Y-82030000D03*
X97800000Y-80530000D03*
D12*
X92700000Y-80530000D03*
D10*
X92700000Y-82030000D03*
%TD*%
D13*
%TO.C,D3*%
X103020000Y-75900000D03*
X103020000Y-72600000D03*
%TD*%
D10*
%TO.C,LED4*%
X92700000Y-99580000D03*
X92700000Y-101080000D03*
D11*
X97800000Y-101080000D03*
D10*
X97800000Y-99580000D03*
%TD*%
D13*
%TO.C,D5*%
X83970000Y-94950000D03*
X83970000Y-91650000D03*
%TD*%
D15*
%TO.C,U1*%
X84700000Y-50530000D03*
X84700000Y-53070000D03*
X84700000Y-55610000D03*
X84700000Y-58150000D03*
X84700000Y-60690000D03*
X84700000Y-63230000D03*
X84700000Y-65770000D03*
X67700000Y-65770000D03*
X67700000Y-63230000D03*
X67700000Y-60690000D03*
X67700000Y-58150000D03*
X67700000Y-55610000D03*
X67700000Y-53070000D03*
X67700000Y-50530000D03*
D16*
X77470000Y-49760000D03*
X74930000Y-49760000D03*
X77470000Y-52300000D03*
X74930000Y-52300000D03*
D17*
X77470000Y-66750000D03*
X74930000Y-66750000D03*
%TD*%
D13*
%TO.C,D1*%
X64920000Y-75900000D03*
X64920000Y-72600000D03*
%TD*%
D10*
%TO.C,LED1*%
X59700000Y-82030000D03*
X59700000Y-80530000D03*
D12*
X54600000Y-80530000D03*
D10*
X54600000Y-82030000D03*
%TD*%
D13*
%TO.C,D2*%
X83970000Y-75900000D03*
X83970000Y-72600000D03*
%TD*%
M02*
