%TF.GenerationSoftware,KiCad,Pcbnew,7.0.7*%
%TF.CreationDate,2023-09-20T23:35:26+09:00*%
%TF.ProjectId,Proto6,50726f74-6f36-42e6-9b69-6361645f7063,rev?*%
%TF.SameCoordinates,Original*%
%TF.FileFunction,Copper,L2,Bot*%
%TF.FilePolarity,Positive*%
%FSLAX46Y46*%
G04 Gerber Fmt 4.6, Leading zero omitted, Abs format (unit mm)*
G04 Created by KiCad (PCBNEW 7.0.7) date 2023-09-20 23:35:26*
%MOMM*%
%LPD*%
G01*
G04 APERTURE LIST*
G04 Aperture macros list*
%AMRoundRect*
0 Rectangle with rounded corners*
0 $1 Rounding radius*
0 $2 $3 $4 $5 $6 $7 $8 $9 X,Y pos of 4 corners*
0 Add a 4 corners polygon primitive as box body*
4,1,4,$2,$3,$4,$5,$6,$7,$8,$9,$2,$3,0*
0 Add four circle primitives for the rounded corners*
1,1,$1+$1,$2,$3*
1,1,$1+$1,$4,$5*
1,1,$1+$1,$6,$7*
1,1,$1+$1,$8,$9*
0 Add four rect primitives between the rounded corners*
20,1,$1+$1,$2,$3,$4,$5,0*
20,1,$1+$1,$4,$5,$6,$7,0*
20,1,$1+$1,$6,$7,$8,$9,0*
20,1,$1+$1,$8,$9,$2,$3,0*%
G04 Aperture macros list end*
%TA.AperFunction,ComponentPad*%
%ADD10R,2.000000X2.000000*%
%TD*%
%TA.AperFunction,ComponentPad*%
%ADD11C,2.000000*%
%TD*%
%TA.AperFunction,ComponentPad*%
%ADD12R,3.000000X2.500000*%
%TD*%
%TA.AperFunction,ComponentPad*%
%ADD13C,2.300000*%
%TD*%
%TA.AperFunction,SMDPad,CuDef*%
%ADD14R,1.700000X0.820000*%
%TD*%
%TA.AperFunction,SMDPad,CuDef*%
%ADD15RoundRect,0.205000X-0.645000X-0.205000X0.645000X-0.205000X0.645000X0.205000X-0.645000X0.205000X0*%
%TD*%
%TA.AperFunction,SMDPad,CuDef*%
%ADD16RoundRect,0.205000X0.645000X0.205000X-0.645000X0.205000X-0.645000X-0.205000X0.645000X-0.205000X0*%
%TD*%
%TA.AperFunction,SMDPad,CuDef*%
%ADD17RoundRect,0.225000X0.375000X-0.225000X0.375000X0.225000X-0.375000X0.225000X-0.375000X-0.225000X0*%
%TD*%
%TA.AperFunction,SMDPad,CuDef*%
%ADD18RoundRect,0.250000X0.300000X-0.300000X0.300000X0.300000X-0.300000X0.300000X-0.300000X-0.300000X0*%
%TD*%
%TA.AperFunction,SMDPad,CuDef*%
%ADD19R,3.000000X2.000000*%
%TD*%
%TA.AperFunction,SMDPad,CuDef*%
%ADD20C,1.500000*%
%TD*%
%TA.AperFunction,SMDPad,CuDef*%
%ADD21R,1.300000X2.300000*%
%TD*%
%TA.AperFunction,ViaPad*%
%ADD22C,0.800000*%
%TD*%
%TA.AperFunction,Conductor*%
%ADD23C,0.250000*%
%TD*%
%TA.AperFunction,Conductor*%
%ADD24C,0.500000*%
%TD*%
G04 APERTURE END LIST*
D10*
%TO.P,RE1,A,A*%
%TO.N,RE1_A*%
X49650000Y-54650000D03*
D11*
%TO.P,RE1,B,B*%
%TO.N,RE1_B*%
X49650000Y-59650000D03*
%TO.P,RE1,C,C*%
%TO.N,GND*%
X49650000Y-57150000D03*
D12*
%TO.P,RE1,MP*%
%TO.N,N/C*%
X57150000Y-51550000D03*
X57150000Y-62750000D03*
%TD*%
D13*
%TO.P,SW5,1,1*%
%TO.N,col1*%
X72390000Y-92710000D03*
%TO.P,SW5,2,2*%
%TO.N,Net-(D5-A)*%
X78740000Y-90170000D03*
%TD*%
%TO.P,SW6,1,1*%
%TO.N,col2*%
X91440000Y-92710000D03*
%TO.P,SW6,2,2*%
%TO.N,Net-(D6-A)*%
X97790000Y-90170000D03*
%TD*%
%TO.P,SW4,1,1*%
%TO.N,col0*%
X53340000Y-92710000D03*
%TO.P,SW4,2,2*%
%TO.N,Net-(D4-A)*%
X59690000Y-90170000D03*
%TD*%
%TO.P,SW1,1,1*%
%TO.N,col0*%
X53340000Y-73660000D03*
%TO.P,SW1,2,2*%
%TO.N,Net-(D1-A)*%
X59690000Y-71120000D03*
%TD*%
%TO.P,SW2,1,1*%
%TO.N,col1*%
X72390000Y-73660000D03*
%TO.P,SW2,2,2*%
%TO.N,Net-(D2-A)*%
X78740000Y-71120000D03*
%TD*%
D10*
%TO.P,RE2,A,A*%
%TO.N,RE2_A*%
X102750000Y-59650000D03*
D11*
%TO.P,RE2,B,B*%
%TO.N,RE2_B*%
X102750000Y-54650000D03*
%TO.P,RE2,C,C*%
%TO.N,GND*%
X102750000Y-57150000D03*
D12*
%TO.P,RE2,MP*%
%TO.N,N/C*%
X95250000Y-62750000D03*
X95250000Y-51550000D03*
%TD*%
D13*
%TO.P,SW3,1,1*%
%TO.N,col2*%
X91440000Y-73660000D03*
%TO.P,SW3,2,2*%
%TO.N,Net-(D3-A)*%
X97790000Y-71120000D03*
%TD*%
D14*
%TO.P,LED5,1,VDD*%
%TO.N,+4V*%
X73650000Y-99580000D03*
%TO.P,LED5,2,DOUT*%
%TO.N,Net-(LED5-DOUT)*%
X73650000Y-101080000D03*
D15*
%TO.P,LED5,3,VSS*%
%TO.N,GND*%
X78750000Y-101080000D03*
D14*
%TO.P,LED5,4,DIN*%
%TO.N,Net-(LED4-DOUT)*%
X78750000Y-99580000D03*
%TD*%
%TO.P,LED2,1,VDD*%
%TO.N,+4V*%
X78750000Y-82030000D03*
%TO.P,LED2,2,DOUT*%
%TO.N,Net-(LED2-DOUT)*%
X78750000Y-80530000D03*
D16*
%TO.P,LED2,3,VSS*%
%TO.N,GND*%
X73650000Y-80530000D03*
D14*
%TO.P,LED2,4,DIN*%
%TO.N,Net-(LED1-DOUT)*%
X73650000Y-82030000D03*
%TD*%
%TO.P,LED6,1,VDD*%
%TO.N,+4V*%
X54600000Y-99580000D03*
%TO.P,LED6,2,DOUT*%
%TO.N,unconnected-(LED6-DOUT-Pad2)*%
X54600000Y-101080000D03*
D15*
%TO.P,LED6,3,VSS*%
%TO.N,GND*%
X59700000Y-101080000D03*
D14*
%TO.P,LED6,4,DIN*%
%TO.N,Net-(LED5-DOUT)*%
X59700000Y-99580000D03*
%TD*%
D17*
%TO.P,D6,1,K*%
%TO.N,row1*%
X103020000Y-94950000D03*
%TO.P,D6,2,A*%
%TO.N,Net-(D6-A)*%
X103020000Y-91650000D03*
%TD*%
%TO.P,D4,1,K*%
%TO.N,row1*%
X64920000Y-94950000D03*
%TO.P,D4,2,A*%
%TO.N,Net-(D4-A)*%
X64920000Y-91650000D03*
%TD*%
D18*
%TO.P,D7,1,K*%
%TO.N,+4V*%
X49480000Y-68937500D03*
%TO.P,D7,2,A*%
%TO.N,+5V*%
X49480000Y-66137500D03*
%TD*%
D14*
%TO.P,LED3,1,VDD*%
%TO.N,+4V*%
X97800000Y-82030000D03*
%TO.P,LED3,2,DOUT*%
%TO.N,Net-(LED3-DOUT)*%
X97800000Y-80530000D03*
D16*
%TO.P,LED3,3,VSS*%
%TO.N,GND*%
X92700000Y-80530000D03*
D14*
%TO.P,LED3,4,DIN*%
%TO.N,Net-(LED2-DOUT)*%
X92700000Y-82030000D03*
%TD*%
D17*
%TO.P,D3,1,K*%
%TO.N,row0*%
X103020000Y-75900000D03*
%TO.P,D3,2,A*%
%TO.N,Net-(D3-A)*%
X103020000Y-72600000D03*
%TD*%
D14*
%TO.P,LED4,1,VDD*%
%TO.N,+4V*%
X92700000Y-99580000D03*
%TO.P,LED4,2,DOUT*%
%TO.N,Net-(LED4-DOUT)*%
X92700000Y-101080000D03*
D15*
%TO.P,LED4,3,VSS*%
%TO.N,GND*%
X97800000Y-101080000D03*
D14*
%TO.P,LED4,4,DIN*%
%TO.N,Net-(LED3-DOUT)*%
X97800000Y-99580000D03*
%TD*%
D17*
%TO.P,D5,1,K*%
%TO.N,row1*%
X83970000Y-94950000D03*
%TO.P,D5,2,A*%
%TO.N,Net-(D5-A)*%
X83970000Y-91650000D03*
%TD*%
D19*
%TO.P,U1,1,PA02_A0_D0*%
%TO.N,row0*%
X84700000Y-50530000D03*
%TO.P,U1,2,PA4_A1_D1*%
%TO.N,row1*%
X84700000Y-53070000D03*
%TO.P,U1,3,PA10_A2_D2*%
%TO.N,unconnected-(U1-PA10_A2_D2-Pad3)*%
X84700000Y-55610000D03*
%TO.P,U1,4,PA11_A3_D3*%
%TO.N,RE2_B*%
X84700000Y-58150000D03*
%TO.P,U1,5,PA8_A4_D4_SDA*%
%TO.N,RE2_A*%
X84700000Y-60690000D03*
%TO.P,U1,6,PA9_A5_D5_SCL*%
%TO.N,LED*%
X84700000Y-63230000D03*
%TO.P,U1,7,PB08_A6_D6_TX*%
%TO.N,col2*%
X84700000Y-65770000D03*
%TO.P,U1,8,PB09_A7_D7_RX*%
%TO.N,col0*%
X67700000Y-65770000D03*
%TO.P,U1,9,PA7_A8_D8_SCK*%
%TO.N,col1*%
X67700000Y-63230000D03*
%TO.P,U1,10,PA5_A9_D9_MISO*%
%TO.N,RE1_B*%
X67700000Y-60690000D03*
%TO.P,U1,11,PA6_A10_D10_MOSI*%
%TO.N,RE1_A*%
X67700000Y-58150000D03*
%TO.P,U1,12,3V3*%
%TO.N,unconnected-(U1-3V3-Pad12)*%
X67700000Y-55610000D03*
%TO.P,U1,13,GND*%
%TO.N,GND*%
X67700000Y-53070000D03*
%TO.P,U1,14,5V*%
%TO.N,+5V*%
X67700000Y-50530000D03*
D20*
%TO.P,U1,15,5V*%
%TO.N,unconnected-(U1-5V-Pad15)*%
X77470000Y-49760000D03*
%TO.P,U1,16,GND*%
%TO.N,unconnected-(U1-GND-Pad16)*%
X74930000Y-49760000D03*
%TO.P,U1,17,PA31_SWDIO*%
%TO.N,unconnected-(U1-PA31_SWDIO-Pad17)*%
X77470000Y-52300000D03*
%TO.P,U1,18,PA30_SWCLK*%
%TO.N,unconnected-(U1-PA30_SWCLK-Pad18)*%
X74930000Y-52300000D03*
D21*
%TO.P,U1,19,RESET*%
%TO.N,unconnected-(U1-RESET-Pad19)*%
X77470000Y-66750000D03*
%TO.P,U1,20,GND*%
%TO.N,unconnected-(U1-GND-Pad20)*%
X74930000Y-66750000D03*
%TD*%
D17*
%TO.P,D1,1,K*%
%TO.N,row0*%
X64920000Y-75900000D03*
%TO.P,D1,2,A*%
%TO.N,Net-(D1-A)*%
X64920000Y-72600000D03*
%TD*%
D14*
%TO.P,LED1,1,VDD*%
%TO.N,+4V*%
X59700000Y-82030000D03*
%TO.P,LED1,2,DOUT*%
%TO.N,Net-(LED1-DOUT)*%
X59700000Y-80530000D03*
D16*
%TO.P,LED1,3,VSS*%
%TO.N,GND*%
X54600000Y-80530000D03*
D14*
%TO.P,LED1,4,DIN*%
%TO.N,LED*%
X54600000Y-82030000D03*
%TD*%
D17*
%TO.P,D2,1,K*%
%TO.N,row0*%
X83970000Y-75900000D03*
%TO.P,D2,2,A*%
%TO.N,Net-(D2-A)*%
X83970000Y-72600000D03*
%TD*%
D22*
%TO.N,row0*%
X93515000Y-72185000D03*
X87295000Y-50605000D03*
%TO.N,row1*%
X82225000Y-53105000D03*
X86150000Y-92770000D03*
%TO.N,+5V*%
X49495000Y-64305000D03*
X64445000Y-50625000D03*
%TO.N,LED*%
X54615000Y-83105000D03*
X61345000Y-68335000D03*
%TO.N,GND*%
X53205000Y-54585000D03*
X67845000Y-79530000D03*
X67885000Y-102545000D03*
%TO.N,Net-(LED3-DOUT)*%
X99595000Y-80585000D03*
X98185000Y-97965000D03*
%TO.N,col1*%
X70335000Y-63105000D03*
%TO.N,col2*%
X87095000Y-65770000D03*
%TD*%
D23*
%TO.N,row0*%
X102094100Y-74974100D02*
X103020000Y-75900000D01*
X83970000Y-74590000D02*
X86375000Y-72185000D01*
X87220000Y-50530000D02*
X87295000Y-50605000D01*
X93515000Y-72185000D02*
X94715000Y-73385000D01*
X82745000Y-73125000D02*
X83970000Y-74350000D01*
X83970000Y-74350000D02*
X83970000Y-75900000D01*
X98214100Y-74974100D02*
X102094100Y-74974100D01*
X84700000Y-50530000D02*
X87220000Y-50530000D01*
X83970000Y-75900000D02*
X83970000Y-74590000D01*
X86375000Y-72185000D02*
X93515000Y-72185000D01*
X64920000Y-75900000D02*
X68635000Y-72185000D01*
X75945000Y-73125000D02*
X82745000Y-73125000D01*
X96625000Y-73385000D02*
X98214100Y-74974100D01*
X68635000Y-72185000D02*
X75005000Y-72185000D01*
X75005000Y-72185000D02*
X75945000Y-73125000D01*
X94715000Y-73385000D02*
X96625000Y-73385000D01*
%TO.N,Net-(D1-A)*%
X61170000Y-72600000D02*
X59690000Y-71120000D01*
X64920000Y-72600000D02*
X61170000Y-72600000D01*
%TO.N,Net-(D2-A)*%
X80220000Y-72600000D02*
X78740000Y-71120000D01*
X83970000Y-72600000D02*
X80220000Y-72600000D01*
%TO.N,Net-(D3-A)*%
X99270000Y-72600000D02*
X97790000Y-71120000D01*
X103020000Y-72600000D02*
X99270000Y-72600000D01*
%TO.N,row1*%
X95255000Y-91235000D02*
X98035000Y-94015000D01*
X98035000Y-94015000D02*
X102085000Y-94015000D01*
X83044100Y-94024100D02*
X83970000Y-94950000D01*
X84700000Y-53070000D02*
X82260000Y-53070000D01*
X68635000Y-91235000D02*
X76055000Y-91235000D01*
X87685000Y-91235000D02*
X95255000Y-91235000D01*
X64920000Y-94950000D02*
X68635000Y-91235000D01*
X86150000Y-92770000D02*
X87685000Y-91235000D01*
X78844100Y-94024100D02*
X83044100Y-94024100D01*
X83970000Y-94950000D02*
X86150000Y-92770000D01*
X82260000Y-53070000D02*
X82225000Y-53105000D01*
X76055000Y-91235000D02*
X78844100Y-94024100D01*
X102085000Y-94015000D02*
X103020000Y-94950000D01*
%TO.N,Net-(D4-A)*%
X64920000Y-91650000D02*
X61170000Y-91650000D01*
X61170000Y-91650000D02*
X59690000Y-90170000D01*
%TO.N,Net-(D5-A)*%
X80220000Y-91650000D02*
X78740000Y-90170000D01*
X83970000Y-91650000D02*
X80220000Y-91650000D01*
%TO.N,Net-(D6-A)*%
X99270000Y-91650000D02*
X97790000Y-90170000D01*
X103020000Y-91650000D02*
X99270000Y-91650000D01*
D24*
%TO.N,+4V*%
X54600000Y-99580000D02*
X54600000Y-99230000D01*
X49480000Y-79800000D02*
X53985000Y-84305000D01*
X55585000Y-98245000D02*
X72315000Y-98245000D01*
X53985000Y-84305000D02*
X57935000Y-84305000D01*
X59700000Y-82030000D02*
X60965000Y-83295000D01*
X97305000Y-83185000D02*
X97800000Y-82690000D01*
X54600000Y-99230000D02*
X55585000Y-98245000D01*
X73650000Y-98920000D02*
X74215000Y-98355000D01*
X91475000Y-98355000D02*
X92700000Y-99580000D01*
X52470000Y-99580000D02*
X54600000Y-99580000D01*
X77885000Y-83295000D02*
X78750000Y-82430000D01*
X79905000Y-83185000D02*
X97305000Y-83185000D01*
X74215000Y-98355000D02*
X91475000Y-98355000D01*
X73650000Y-99580000D02*
X73650000Y-98920000D01*
X49480000Y-79045000D02*
X49480000Y-96590000D01*
X59700000Y-82540000D02*
X59700000Y-82030000D01*
X49480000Y-68937500D02*
X49480000Y-79045000D01*
X49480000Y-96590000D02*
X52470000Y-99580000D01*
X78750000Y-82030000D02*
X79905000Y-83185000D01*
X78750000Y-82430000D02*
X78750000Y-82030000D01*
X60965000Y-83295000D02*
X77885000Y-83295000D01*
X57935000Y-84305000D02*
X59700000Y-82540000D01*
X49480000Y-79045000D02*
X49480000Y-79800000D01*
X97800000Y-82690000D02*
X97800000Y-82030000D01*
X72315000Y-98245000D02*
X73650000Y-99580000D01*
%TO.N,+5V*%
X67700000Y-50530000D02*
X64540000Y-50530000D01*
X49495000Y-64305000D02*
X49495000Y-66122500D01*
X49495000Y-66122500D02*
X49480000Y-66137500D01*
X64540000Y-50530000D02*
X64445000Y-50625000D01*
D23*
%TO.N,Net-(LED1-DOUT)*%
X60140000Y-80530000D02*
X61635000Y-82025000D01*
X73645000Y-82025000D02*
X73650000Y-82030000D01*
X59700000Y-80530000D02*
X60140000Y-80530000D01*
X61635000Y-82025000D02*
X73645000Y-82025000D01*
%TO.N,LED*%
X79085000Y-68345000D02*
X84200000Y-63230000D01*
X61355000Y-68345000D02*
X79085000Y-68345000D01*
X54615000Y-82045000D02*
X54600000Y-82030000D01*
X61345000Y-68335000D02*
X61355000Y-68345000D01*
X54615000Y-83105000D02*
X54615000Y-82045000D01*
X84200000Y-63230000D02*
X84700000Y-63230000D01*
D24*
%TO.N,GND*%
X67845000Y-79530000D02*
X68490000Y-78885000D01*
X67230000Y-78915000D02*
X67845000Y-79530000D01*
X73650000Y-79640000D02*
X74375000Y-78915000D01*
X78330000Y-53500000D02*
X82795000Y-49035000D01*
X61165000Y-102545000D02*
X59700000Y-101080000D01*
X50545000Y-76585461D02*
X50545000Y-62595610D01*
X69700000Y-53070000D02*
X70130000Y-53500000D01*
X67700000Y-53070000D02*
X65700000Y-53070000D01*
X65700000Y-53070000D02*
X64185000Y-54585000D01*
X97800000Y-101990000D02*
X96835000Y-102955000D01*
X73650000Y-80530000D02*
X73650000Y-79640000D01*
X78750000Y-102060000D02*
X78265000Y-102545000D01*
X67700000Y-53070000D02*
X69700000Y-53070000D01*
X54600000Y-80530000D02*
X54489539Y-80530000D01*
X82795000Y-49035000D02*
X99185610Y-49035000D01*
X104200000Y-54049390D02*
X104200000Y-55700000D01*
X68490000Y-78885000D02*
X72005000Y-78885000D01*
X50545000Y-62595610D02*
X48200000Y-60250610D01*
X104200000Y-55700000D02*
X102750000Y-57150000D01*
X54600000Y-80530000D02*
X54600000Y-79620000D01*
X48200000Y-60250610D02*
X48200000Y-58600000D01*
X99185610Y-49035000D02*
X104200000Y-54049390D01*
X80625000Y-102955000D02*
X78750000Y-101080000D01*
X96835000Y-102955000D02*
X80625000Y-102955000D01*
X55305000Y-78915000D02*
X67230000Y-78915000D01*
X54489539Y-80530000D02*
X50545000Y-76585461D01*
X78265000Y-102545000D02*
X61165000Y-102545000D01*
X74375000Y-78915000D02*
X91085000Y-78915000D01*
X72005000Y-78885000D02*
X73650000Y-80530000D01*
X54600000Y-79620000D02*
X55305000Y-78915000D01*
X91085000Y-78915000D02*
X92700000Y-80530000D01*
X78750000Y-101080000D02*
X78750000Y-102060000D01*
X48200000Y-58600000D02*
X49650000Y-57150000D01*
X70130000Y-53500000D02*
X78330000Y-53500000D01*
X64185000Y-54585000D02*
X53205000Y-54585000D01*
X97800000Y-101080000D02*
X97800000Y-101990000D01*
D23*
%TO.N,Net-(LED2-DOUT)*%
X80535000Y-81875000D02*
X92545000Y-81875000D01*
X79190000Y-80530000D02*
X80535000Y-81875000D01*
X78750000Y-80530000D02*
X79190000Y-80530000D01*
X92545000Y-81875000D02*
X92700000Y-82030000D01*
%TO.N,Net-(LED3-DOUT)*%
X98185000Y-99195000D02*
X97800000Y-99580000D01*
X97800000Y-80530000D02*
X99540000Y-80530000D01*
X98185000Y-97965000D02*
X98185000Y-99195000D01*
X99540000Y-80530000D02*
X99595000Y-80585000D01*
%TO.N,Net-(LED4-DOUT)*%
X92700000Y-101080000D02*
X92260000Y-101080000D01*
X90760000Y-99580000D02*
X78750000Y-99580000D01*
X92260000Y-101080000D02*
X90760000Y-99580000D01*
%TO.N,Net-(LED5-DOUT)*%
X71710000Y-99580000D02*
X59700000Y-99580000D01*
X73210000Y-101080000D02*
X71710000Y-99580000D01*
X73650000Y-101080000D02*
X73210000Y-101080000D01*
%TO.N,RE1_A*%
X67700000Y-58150000D02*
X66625000Y-59225000D01*
X54225000Y-59225000D02*
X49650000Y-54650000D01*
X66625000Y-59225000D02*
X54225000Y-59225000D01*
%TO.N,RE1_B*%
X66685000Y-59675000D02*
X49675000Y-59675000D01*
X67700000Y-60690000D02*
X66685000Y-59675000D01*
X49675000Y-59675000D02*
X49650000Y-59650000D01*
%TO.N,RE2_A*%
X102745000Y-59645000D02*
X102750000Y-59650000D01*
X85745000Y-59645000D02*
X102745000Y-59645000D01*
X84700000Y-60690000D02*
X85745000Y-59645000D01*
%TO.N,RE2_B*%
X101425000Y-58295000D02*
X101425000Y-55975000D01*
X84700000Y-58150000D02*
X85745000Y-59195000D01*
X100525000Y-59195000D02*
X101425000Y-58295000D01*
X101425000Y-55975000D02*
X102750000Y-54650000D01*
X85745000Y-59195000D02*
X100525000Y-59195000D01*
%TO.N,col0*%
X67700000Y-65770000D02*
X61230000Y-65770000D01*
X61230000Y-65770000D02*
X53340000Y-73660000D01*
%TO.N,col1*%
X68200000Y-63230000D02*
X67700000Y-63230000D01*
X70335000Y-63105000D02*
X68325000Y-63105000D01*
X68325000Y-63105000D02*
X68200000Y-63230000D01*
%TO.N,col2*%
X87095000Y-65770000D02*
X84700000Y-65770000D01*
%TD*%
%TA.AperFunction,Conductor*%
%TO.N,GND*%
G36*
X51352744Y-57237335D02*
G01*
X52953228Y-58837819D01*
X52986713Y-58899142D01*
X52981729Y-58968834D01*
X52939857Y-59024767D01*
X52874393Y-59049184D01*
X52865547Y-59049500D01*
X51106116Y-59049500D01*
X51039077Y-59029815D01*
X50993322Y-58977011D01*
X50992560Y-58975311D01*
X50974172Y-58933391D01*
X50838166Y-58725217D01*
X50724855Y-58602129D01*
X50669744Y-58542262D01*
X50611606Y-58497011D01*
X50568623Y-58463556D01*
X50527810Y-58406846D01*
X50523697Y-58377249D01*
X49909116Y-57762669D01*
X49875631Y-57701346D01*
X49880615Y-57631655D01*
X49917640Y-57582193D01*
X49916398Y-57580759D01*
X49923100Y-57574952D01*
X50031761Y-57480798D01*
X50066954Y-57426037D01*
X50119755Y-57380283D01*
X50188914Y-57370339D01*
X50252470Y-57399363D01*
X50258949Y-57405396D01*
X50873434Y-58019882D01*
X50973731Y-57866369D01*
X51073587Y-57638717D01*
X51134612Y-57397740D01*
X51141486Y-57314777D01*
X51166639Y-57249592D01*
X51223041Y-57208354D01*
X51292784Y-57204154D01*
X51352744Y-57237335D01*
G37*
%TD.AperFunction*%
%TA.AperFunction,Conductor*%
G36*
X103777695Y-47625735D02*
G01*
X103820519Y-47629482D01*
X103946771Y-47641918D01*
X103966685Y-47645541D01*
X104033349Y-47663403D01*
X104126570Y-47691682D01*
X104142971Y-47697958D01*
X104210411Y-47729406D01*
X104213375Y-47730888D01*
X104250969Y-47750982D01*
X104297327Y-47775762D01*
X104303667Y-47779657D01*
X104369828Y-47825983D01*
X104373600Y-47828844D01*
X104445808Y-47888103D01*
X104450309Y-47892182D01*
X104507815Y-47949688D01*
X104511895Y-47954190D01*
X104571154Y-48026398D01*
X104574015Y-48030170D01*
X104620341Y-48096331D01*
X104624236Y-48102671D01*
X104669101Y-48186605D01*
X104670614Y-48189631D01*
X104702040Y-48257027D01*
X104708319Y-48273435D01*
X104736601Y-48366669D01*
X104754454Y-48433299D01*
X104758082Y-48453238D01*
X104770523Y-48579554D01*
X104774264Y-48622302D01*
X104774500Y-48627710D01*
X104774500Y-103772289D01*
X104774264Y-103777697D01*
X104770523Y-103820445D01*
X104758082Y-103946760D01*
X104754454Y-103966699D01*
X104736601Y-104033330D01*
X104708318Y-104126563D01*
X104702040Y-104142971D01*
X104670614Y-104210367D01*
X104669101Y-104213393D01*
X104624236Y-104297327D01*
X104620341Y-104303667D01*
X104574015Y-104369828D01*
X104571154Y-104373600D01*
X104511895Y-104445808D01*
X104507806Y-104450320D01*
X104450320Y-104507806D01*
X104445808Y-104511895D01*
X104373600Y-104571154D01*
X104369828Y-104574015D01*
X104303667Y-104620341D01*
X104297327Y-104624236D01*
X104213393Y-104669101D01*
X104210367Y-104670614D01*
X104142971Y-104702040D01*
X104126563Y-104708318D01*
X104033330Y-104736601D01*
X103966699Y-104754454D01*
X103946760Y-104758082D01*
X103820445Y-104770523D01*
X103779789Y-104774080D01*
X103777696Y-104774264D01*
X103772290Y-104774500D01*
X48627710Y-104774500D01*
X48622303Y-104774264D01*
X48620015Y-104774063D01*
X48579554Y-104770523D01*
X48453238Y-104758082D01*
X48433299Y-104754454D01*
X48366669Y-104736601D01*
X48273435Y-104708319D01*
X48257027Y-104702040D01*
X48208433Y-104679381D01*
X48189618Y-104670607D01*
X48186605Y-104669101D01*
X48102671Y-104624236D01*
X48096331Y-104620341D01*
X48030170Y-104574015D01*
X48026398Y-104571154D01*
X47954190Y-104511895D01*
X47949688Y-104507815D01*
X47892182Y-104450309D01*
X47888103Y-104445808D01*
X47828844Y-104373600D01*
X47825983Y-104369828D01*
X47779657Y-104303667D01*
X47775762Y-104297327D01*
X47750982Y-104250969D01*
X47730888Y-104213375D01*
X47729406Y-104210411D01*
X47697958Y-104142971D01*
X47691682Y-104126570D01*
X47663398Y-104033330D01*
X47645541Y-103966685D01*
X47641918Y-103946771D01*
X47629475Y-103820435D01*
X47625733Y-103777671D01*
X47625500Y-103772315D01*
X47625500Y-69287501D01*
X48429500Y-69287501D01*
X48429501Y-69287519D01*
X48440000Y-69390296D01*
X48440001Y-69390299D01*
X48464555Y-69464396D01*
X48495186Y-69556834D01*
X48587288Y-69706156D01*
X48661720Y-69780588D01*
X48693181Y-69812049D01*
X48726665Y-69873372D01*
X48729499Y-69899730D01*
X48729499Y-78981940D01*
X48729500Y-78981945D01*
X48729500Y-79736294D01*
X48728191Y-79754263D01*
X48724710Y-79778025D01*
X48729264Y-79830064D01*
X48729500Y-79835470D01*
X48729499Y-96526294D01*
X48728191Y-96544259D01*
X48724710Y-96568026D01*
X48729264Y-96620064D01*
X48729500Y-96625470D01*
X48729500Y-96633709D01*
X48733306Y-96666274D01*
X48740000Y-96742791D01*
X48741461Y-96749867D01*
X48741403Y-96749878D01*
X48743034Y-96757237D01*
X48743092Y-96757224D01*
X48744757Y-96764250D01*
X48771025Y-96836424D01*
X48795185Y-96909331D01*
X48798236Y-96915874D01*
X48798182Y-96915898D01*
X48801470Y-96922688D01*
X48801521Y-96922663D01*
X48804761Y-96929113D01*
X48804762Y-96929114D01*
X48804763Y-96929117D01*
X48846965Y-96993282D01*
X48846965Y-96993283D01*
X48887287Y-97058655D01*
X48891766Y-97064319D01*
X48891719Y-97064356D01*
X48896482Y-97070202D01*
X48896528Y-97070164D01*
X48901173Y-97075700D01*
X48957018Y-97128386D01*
X51894267Y-100065634D01*
X51906048Y-100079266D01*
X51920390Y-100098530D01*
X51960420Y-100132119D01*
X51964392Y-100135759D01*
X51970224Y-100141591D01*
X51970227Y-100141594D01*
X51995947Y-100161931D01*
X52054788Y-100211304D01*
X52060818Y-100215270D01*
X52060785Y-100215319D01*
X52067143Y-100219369D01*
X52067175Y-100219319D01*
X52073320Y-100223109D01*
X52073323Y-100223111D01*
X52142936Y-100255572D01*
X52211567Y-100290040D01*
X52211572Y-100290041D01*
X52218361Y-100292513D01*
X52218340Y-100292570D01*
X52225455Y-100295043D01*
X52225475Y-100294986D01*
X52232330Y-100297258D01*
X52307557Y-100312790D01*
X52307558Y-100312790D01*
X52382279Y-100330500D01*
X52382289Y-100330500D01*
X52389452Y-100331338D01*
X52389444Y-100331397D01*
X52396945Y-100332164D01*
X52396951Y-100332105D01*
X52404140Y-100332734D01*
X52404144Y-100332733D01*
X52404145Y-100332734D01*
X52480918Y-100330500D01*
X53163852Y-100330500D01*
X53230891Y-100350185D01*
X53276646Y-100402989D01*
X53286590Y-100472147D01*
X53280034Y-100497833D01*
X53255908Y-100562517D01*
X53249501Y-100622116D01*
X53249500Y-100622135D01*
X53249500Y-101537870D01*
X53249501Y-101537876D01*
X53255908Y-101597483D01*
X53306202Y-101732328D01*
X53306206Y-101732335D01*
X53392452Y-101847544D01*
X53392455Y-101847547D01*
X53507664Y-101933793D01*
X53507671Y-101933797D01*
X53642517Y-101984091D01*
X53642516Y-101984091D01*
X53649444Y-101984835D01*
X53702127Y-101990500D01*
X55497872Y-101990499D01*
X55557483Y-101984091D01*
X55692331Y-101933796D01*
X55797278Y-101855232D01*
X55862741Y-101830816D01*
X55871588Y-101830500D01*
X58560055Y-101830500D01*
X58624205Y-101848383D01*
X58763537Y-101932612D01*
X58763536Y-101932612D01*
X58926986Y-101983544D01*
X58926984Y-101983544D01*
X58998023Y-101990000D01*
X59449999Y-101990000D01*
X59450000Y-101330000D01*
X59950000Y-101330000D01*
X59950000Y-101990000D01*
X60401977Y-101990000D01*
X60473014Y-101983544D01*
X60636463Y-101932612D01*
X60782983Y-101844037D01*
X60904037Y-101722983D01*
X60992612Y-101576463D01*
X61043544Y-101413014D01*
X61050000Y-101341977D01*
X61050000Y-101330000D01*
X59950000Y-101330000D01*
X59450000Y-101330000D01*
X59450000Y-100954000D01*
X59469685Y-100886961D01*
X59522489Y-100841206D01*
X59574000Y-100830000D01*
X61050000Y-100830000D01*
X61050000Y-100818022D01*
X61043544Y-100746985D01*
X60992612Y-100583536D01*
X60992611Y-100583534D01*
X60918929Y-100461651D01*
X60901092Y-100394096D01*
X60922609Y-100327622D01*
X60925749Y-100323229D01*
X60976685Y-100255187D01*
X61032619Y-100213317D01*
X61075951Y-100205500D01*
X71399548Y-100205500D01*
X71466587Y-100225185D01*
X71487229Y-100241819D01*
X72263181Y-101017772D01*
X72296666Y-101079095D01*
X72299500Y-101105453D01*
X72299500Y-101537870D01*
X72299501Y-101537876D01*
X72305908Y-101597483D01*
X72356202Y-101732328D01*
X72356206Y-101732335D01*
X72442452Y-101847544D01*
X72442455Y-101847547D01*
X72557664Y-101933793D01*
X72557671Y-101933797D01*
X72692517Y-101984091D01*
X72692516Y-101984091D01*
X72699444Y-101984835D01*
X72752127Y-101990500D01*
X74547872Y-101990499D01*
X74607483Y-101984091D01*
X74742331Y-101933796D01*
X74847278Y-101855232D01*
X74912741Y-101830816D01*
X74921588Y-101830500D01*
X77610055Y-101830500D01*
X77674205Y-101848383D01*
X77813537Y-101932612D01*
X77813536Y-101932612D01*
X77976986Y-101983544D01*
X77976984Y-101983544D01*
X78048023Y-101990000D01*
X78500000Y-101990000D01*
X78500000Y-101330000D01*
X79000000Y-101330000D01*
X79000000Y-101990000D01*
X79451977Y-101990000D01*
X79523014Y-101983544D01*
X79686463Y-101932612D01*
X79832983Y-101844037D01*
X79954037Y-101722983D01*
X80042612Y-101576463D01*
X80093544Y-101413014D01*
X80100000Y-101341977D01*
X80100000Y-101330000D01*
X79000000Y-101330000D01*
X78500000Y-101330000D01*
X78500000Y-100954000D01*
X78519685Y-100886961D01*
X78572489Y-100841206D01*
X78624000Y-100830000D01*
X80100000Y-100830000D01*
X80100000Y-100818022D01*
X80093544Y-100746985D01*
X80042612Y-100583536D01*
X80042611Y-100583534D01*
X79968929Y-100461651D01*
X79951092Y-100394096D01*
X79972609Y-100327622D01*
X79975749Y-100323229D01*
X80026685Y-100255187D01*
X80082619Y-100213317D01*
X80125951Y-100205500D01*
X90449548Y-100205500D01*
X90516587Y-100225185D01*
X90537229Y-100241819D01*
X91313181Y-101017772D01*
X91346666Y-101079095D01*
X91349500Y-101105453D01*
X91349500Y-101537870D01*
X91349501Y-101537876D01*
X91355908Y-101597483D01*
X91406202Y-101732328D01*
X91406206Y-101732335D01*
X91492452Y-101847544D01*
X91492455Y-101847547D01*
X91607664Y-101933793D01*
X91607671Y-101933797D01*
X91742517Y-101984091D01*
X91742516Y-101984091D01*
X91749444Y-101984835D01*
X91802127Y-101990500D01*
X93597872Y-101990499D01*
X93657483Y-101984091D01*
X93792331Y-101933796D01*
X93897278Y-101855232D01*
X93962741Y-101830816D01*
X93971588Y-101830500D01*
X96660055Y-101830500D01*
X96724205Y-101848383D01*
X96863537Y-101932612D01*
X96863536Y-101932612D01*
X97026986Y-101983544D01*
X97026984Y-101983544D01*
X97098023Y-101990000D01*
X97550000Y-101990000D01*
X97550000Y-101330000D01*
X98050000Y-101330000D01*
X98050000Y-101990000D01*
X98501977Y-101990000D01*
X98573014Y-101983544D01*
X98736463Y-101932612D01*
X98882983Y-101844037D01*
X99004037Y-101722983D01*
X99092612Y-101576463D01*
X99143544Y-101413014D01*
X99150000Y-101341977D01*
X99150000Y-101330000D01*
X98050000Y-101330000D01*
X97550000Y-101330000D01*
X97550000Y-100954000D01*
X97569685Y-100886961D01*
X97622489Y-100841206D01*
X97674000Y-100830000D01*
X99150000Y-100830000D01*
X99150000Y-100818022D01*
X99143544Y-100746985D01*
X99092612Y-100583536D01*
X99092611Y-100583534D01*
X99018929Y-100461651D01*
X99001092Y-100394096D01*
X99022609Y-100327622D01*
X99025749Y-100323229D01*
X99093796Y-100232331D01*
X99144091Y-100097483D01*
X99150500Y-100037873D01*
X99150499Y-99122128D01*
X99144091Y-99062517D01*
X99119095Y-98995500D01*
X99093797Y-98927671D01*
X99093793Y-98927664D01*
X99007547Y-98812455D01*
X99004020Y-98809815D01*
X98981801Y-98793181D01*
X98892896Y-98726626D01*
X98851026Y-98670692D01*
X98846042Y-98601000D01*
X98875058Y-98544388D01*
X98917533Y-98497216D01*
X99012179Y-98333284D01*
X99070674Y-98153256D01*
X99090460Y-97965000D01*
X99070674Y-97776744D01*
X99012179Y-97596716D01*
X98917533Y-97432784D01*
X98790871Y-97292112D01*
X98790870Y-97292111D01*
X98637734Y-97180851D01*
X98637729Y-97180848D01*
X98464807Y-97103857D01*
X98464802Y-97103855D01*
X98288909Y-97066469D01*
X98279646Y-97064500D01*
X98090354Y-97064500D01*
X98081091Y-97066469D01*
X97905197Y-97103855D01*
X97905192Y-97103857D01*
X97732270Y-97180848D01*
X97732265Y-97180851D01*
X97579129Y-97292111D01*
X97452466Y-97432785D01*
X97357821Y-97596715D01*
X97357818Y-97596722D01*
X97299327Y-97776740D01*
X97299326Y-97776744D01*
X97279540Y-97965000D01*
X97299326Y-98153256D01*
X97299327Y-98153259D01*
X97357818Y-98333277D01*
X97357821Y-98333284D01*
X97444548Y-98483500D01*
X97461021Y-98551401D01*
X97438168Y-98617427D01*
X97383247Y-98660618D01*
X97337161Y-98669500D01*
X96902129Y-98669500D01*
X96902123Y-98669501D01*
X96842516Y-98675908D01*
X96707671Y-98726202D01*
X96707669Y-98726203D01*
X96631507Y-98783218D01*
X96602721Y-98804767D01*
X96537259Y-98829184D01*
X96528412Y-98829500D01*
X93971588Y-98829500D01*
X93904549Y-98809815D01*
X93897283Y-98804771D01*
X93792331Y-98726204D01*
X93792330Y-98726203D01*
X93792328Y-98726202D01*
X93657482Y-98675908D01*
X93657483Y-98675908D01*
X93597883Y-98669501D01*
X93597881Y-98669500D01*
X93597873Y-98669500D01*
X93597865Y-98669500D01*
X92902229Y-98669500D01*
X92835190Y-98649815D01*
X92814548Y-98633181D01*
X92050729Y-97869361D01*
X92038949Y-97855730D01*
X92031482Y-97845701D01*
X92024612Y-97836472D01*
X92019322Y-97832033D01*
X91984587Y-97802886D01*
X91980612Y-97799244D01*
X91977690Y-97796322D01*
X91974780Y-97793411D01*
X91949040Y-97773059D01*
X91893520Y-97726472D01*
X91890214Y-97723698D01*
X91890213Y-97723697D01*
X91890209Y-97723694D01*
X91884180Y-97719729D01*
X91884212Y-97719680D01*
X91877853Y-97715628D01*
X91877822Y-97715679D01*
X91871680Y-97711891D01*
X91871678Y-97711890D01*
X91871677Y-97711889D01*
X91830941Y-97692893D01*
X91802058Y-97679424D01*
X91748024Y-97652288D01*
X91733433Y-97644960D01*
X91733431Y-97644959D01*
X91733430Y-97644959D01*
X91726645Y-97642489D01*
X91726665Y-97642433D01*
X91719549Y-97639959D01*
X91719531Y-97640015D01*
X91712671Y-97637742D01*
X91684841Y-97631996D01*
X91637434Y-97622207D01*
X91588472Y-97610603D01*
X91562719Y-97604499D01*
X91555547Y-97603661D01*
X91555553Y-97603601D01*
X91548055Y-97602835D01*
X91548050Y-97602895D01*
X91540860Y-97602265D01*
X91464083Y-97604500D01*
X76996633Y-97604500D01*
X76929594Y-97584815D01*
X76883839Y-97532011D01*
X76873895Y-97462853D01*
X76902920Y-97399297D01*
X76955958Y-97363361D01*
X76986219Y-97352853D01*
X77078151Y-97320931D01*
X77346343Y-97185407D01*
X77594080Y-97015346D01*
X77816939Y-96813782D01*
X78010943Y-96584312D01*
X78172631Y-96331032D01*
X78299118Y-96058460D01*
X78388146Y-95771462D01*
X78438126Y-95475158D01*
X78448167Y-95174836D01*
X78418089Y-94875855D01*
X78381288Y-94721430D01*
X78384895Y-94651658D01*
X78425653Y-94594908D01*
X78490623Y-94569203D01*
X78551160Y-94578888D01*
X78565935Y-94585282D01*
X78571181Y-94587853D01*
X78612002Y-94610294D01*
X78612003Y-94610294D01*
X78612008Y-94610297D01*
X78620507Y-94612479D01*
X78631405Y-94615277D01*
X78649819Y-94621581D01*
X78668204Y-94629538D01*
X78714257Y-94636832D01*
X78719926Y-94638006D01*
X78765081Y-94649600D01*
X78785116Y-94649600D01*
X78804513Y-94651126D01*
X78824296Y-94654260D01*
X78870683Y-94649875D01*
X78876522Y-94649600D01*
X80148165Y-94649600D01*
X80215204Y-94669285D01*
X80260959Y-94722089D01*
X80270903Y-94791247D01*
X80265345Y-94814156D01*
X80204779Y-94989148D01*
X80204778Y-94989153D01*
X80204778Y-94989154D01*
X80174843Y-95197355D01*
X80184852Y-95407459D01*
X80234442Y-95611871D01*
X80279082Y-95709619D01*
X80321820Y-95803204D01*
X80321824Y-95803210D01*
X80443826Y-95974539D01*
X80443831Y-95974544D01*
X80596063Y-96119697D01*
X80773014Y-96233416D01*
X80968288Y-96311593D01*
X81097084Y-96336416D01*
X81174828Y-96351400D01*
X81174829Y-96351400D01*
X81332461Y-96351400D01*
X81332468Y-96351400D01*
X81489389Y-96336416D01*
X81691211Y-96277156D01*
X81878170Y-96180771D01*
X82043510Y-96050747D01*
X82181255Y-95891781D01*
X82286426Y-95709619D01*
X82355222Y-95510846D01*
X82385157Y-95302645D01*
X82375148Y-95092541D01*
X82325558Y-94888129D01*
X82296779Y-94825111D01*
X82286835Y-94755953D01*
X82315860Y-94692397D01*
X82374638Y-94654623D01*
X82409573Y-94649600D01*
X82733648Y-94649600D01*
X82800687Y-94669285D01*
X82821329Y-94685919D01*
X82833181Y-94697771D01*
X82866666Y-94759094D01*
X82869500Y-94785452D01*
X82869500Y-95223337D01*
X82869501Y-95223355D01*
X82879650Y-95322707D01*
X82879651Y-95322710D01*
X82932996Y-95483694D01*
X82933001Y-95483705D01*
X83022029Y-95628040D01*
X83022032Y-95628044D01*
X83141955Y-95747967D01*
X83141959Y-95747970D01*
X83286294Y-95836998D01*
X83286297Y-95836999D01*
X83286303Y-95837003D01*
X83447292Y-95890349D01*
X83546655Y-95900500D01*
X84393344Y-95900499D01*
X84393352Y-95900498D01*
X84393355Y-95900498D01*
X84478689Y-95891781D01*
X84492708Y-95890349D01*
X84653697Y-95837003D01*
X84798044Y-95747968D01*
X84917968Y-95628044D01*
X85007003Y-95483697D01*
X85060349Y-95322708D01*
X85070500Y-95223345D01*
X85070499Y-94785450D01*
X85090183Y-94718412D01*
X85106813Y-94697775D01*
X86097770Y-93706819D01*
X86159094Y-93673334D01*
X86185452Y-93670500D01*
X86244644Y-93670500D01*
X86244646Y-93670500D01*
X86429803Y-93631144D01*
X86602730Y-93554151D01*
X86755871Y-93442888D01*
X86882533Y-93302216D01*
X86977179Y-93138284D01*
X87035674Y-92958256D01*
X87053321Y-92790344D01*
X87079904Y-92725734D01*
X87088951Y-92715639D01*
X87907771Y-91896819D01*
X87969095Y-91863334D01*
X87995453Y-91860500D01*
X89819807Y-91860500D01*
X89886846Y-91880185D01*
X89932601Y-91932989D01*
X89942545Y-92002147D01*
X89934368Y-92031950D01*
X89907378Y-92097111D01*
X89865427Y-92198389D01*
X89804778Y-92451009D01*
X89784396Y-92710000D01*
X89804778Y-92968990D01*
X89865427Y-93221610D01*
X89964843Y-93461623D01*
X89964845Y-93461627D01*
X89964846Y-93461628D01*
X90100588Y-93683140D01*
X90269311Y-93880689D01*
X90310290Y-93915688D01*
X90327410Y-93930310D01*
X90365603Y-93988817D01*
X90366101Y-94058685D01*
X90328748Y-94117731D01*
X90265401Y-94147209D01*
X90246878Y-94148600D01*
X90117532Y-94148600D01*
X89960610Y-94163584D01*
X89960611Y-94163584D01*
X89960607Y-94163585D01*
X89758791Y-94222843D01*
X89571831Y-94319228D01*
X89406490Y-94449252D01*
X89406489Y-94449253D01*
X89268749Y-94608214D01*
X89268740Y-94608225D01*
X89163574Y-94790379D01*
X89094779Y-94989148D01*
X89094778Y-94989153D01*
X89094778Y-94989154D01*
X89064843Y-95197355D01*
X89074852Y-95407459D01*
X89124442Y-95611871D01*
X89169082Y-95709619D01*
X89211820Y-95803204D01*
X89211824Y-95803210D01*
X89333826Y-95974539D01*
X89333831Y-95974544D01*
X89486063Y-96119697D01*
X89663014Y-96233416D01*
X89858288Y-96311593D01*
X89987084Y-96336416D01*
X90064828Y-96351400D01*
X90064829Y-96351400D01*
X90222461Y-96351400D01*
X90222468Y-96351400D01*
X90379389Y-96336416D01*
X90581211Y-96277156D01*
X90768170Y-96180771D01*
X90933510Y-96050747D01*
X91071255Y-95891781D01*
X91176426Y-95709619D01*
X91245222Y-95510846D01*
X91275157Y-95302645D01*
X91265148Y-95092541D01*
X91215558Y-94888129D01*
X91128179Y-94696795D01*
X91125047Y-94692397D01*
X91007449Y-94527253D01*
X90984596Y-94461226D01*
X91001069Y-94393326D01*
X91051636Y-94345110D01*
X91120243Y-94331887D01*
X91137387Y-94334749D01*
X91181006Y-94345221D01*
X91440000Y-94365604D01*
X91698994Y-94345221D01*
X91951610Y-94284573D01*
X92191628Y-94185154D01*
X92413140Y-94049412D01*
X92610689Y-93880689D01*
X92779412Y-93683140D01*
X92915154Y-93461628D01*
X93014573Y-93221610D01*
X93075221Y-92968994D01*
X93095604Y-92710000D01*
X93075221Y-92451006D01*
X93014573Y-92198390D01*
X92945631Y-92031951D01*
X92938163Y-91962484D01*
X92969438Y-91900004D01*
X93029527Y-91864352D01*
X93060193Y-91860500D01*
X94944548Y-91860500D01*
X95011587Y-91880185D01*
X95032229Y-91896819D01*
X96032373Y-92896964D01*
X96065858Y-92958287D01*
X96060874Y-93027979D01*
X96019002Y-93083912D01*
X95953538Y-93108329D01*
X95911932Y-93104239D01*
X95698059Y-93045653D01*
X95698056Y-93045652D01*
X95698054Y-93045652D01*
X95400245Y-93005600D01*
X95174967Y-93005600D01*
X95174959Y-93005600D01*
X94950183Y-93020647D01*
X94950174Y-93020649D01*
X94655710Y-93080501D01*
X94371847Y-93179069D01*
X94371844Y-93179071D01*
X94103662Y-93314589D01*
X93855918Y-93484655D01*
X93633062Y-93686216D01*
X93439058Y-93915686D01*
X93439056Y-93915688D01*
X93277366Y-94168972D01*
X93158104Y-94425977D01*
X93150882Y-94441540D01*
X93122150Y-94534162D01*
X93061854Y-94728535D01*
X93034935Y-94888127D01*
X93011874Y-95024842D01*
X93005238Y-95223337D01*
X93001833Y-95325167D01*
X93031910Y-95624142D01*
X93031911Y-95624149D01*
X93101568Y-95916441D01*
X93101571Y-95916453D01*
X93209566Y-96196853D01*
X93209573Y-96196868D01*
X93353979Y-96460375D01*
X93353983Y-96460381D01*
X93445296Y-96584312D01*
X93532223Y-96702290D01*
X93732460Y-96909334D01*
X93741120Y-96918288D01*
X93741127Y-96918294D01*
X93831605Y-96989744D01*
X93976946Y-97104518D01*
X94235487Y-97257652D01*
X94512133Y-97374960D01*
X94512136Y-97374960D01*
X94512139Y-97374962D01*
X94600977Y-97399297D01*
X94801946Y-97454348D01*
X95099755Y-97494400D01*
X95099760Y-97494400D01*
X95325041Y-97494400D01*
X95488513Y-97483456D01*
X95549819Y-97479352D01*
X95844287Y-97419499D01*
X96128151Y-97320931D01*
X96396343Y-97185407D01*
X96644080Y-97015346D01*
X96866939Y-96813782D01*
X97060943Y-96584312D01*
X97222631Y-96331032D01*
X97349118Y-96058460D01*
X97438146Y-95771462D01*
X97488126Y-95475158D01*
X97498167Y-95174836D01*
X97468089Y-94875855D01*
X97399743Y-94589061D01*
X97403350Y-94519286D01*
X97444109Y-94462537D01*
X97509078Y-94436832D01*
X97577631Y-94450333D01*
X97608046Y-94472636D01*
X97620530Y-94485120D01*
X97626004Y-94489366D01*
X97630442Y-94493156D01*
X97664418Y-94525062D01*
X97680971Y-94534162D01*
X97681973Y-94534713D01*
X97698231Y-94545392D01*
X97714064Y-94557674D01*
X97735092Y-94566773D01*
X97756837Y-94576183D01*
X97762081Y-94578752D01*
X97802908Y-94601197D01*
X97822312Y-94606179D01*
X97840710Y-94612478D01*
X97859105Y-94620438D01*
X97905129Y-94627726D01*
X97910832Y-94628907D01*
X97955981Y-94640500D01*
X97976016Y-94640500D01*
X97995413Y-94642026D01*
X98015196Y-94645160D01*
X98061583Y-94640775D01*
X98067422Y-94640500D01*
X99201315Y-94640500D01*
X99268354Y-94660185D01*
X99314109Y-94712989D01*
X99324053Y-94782147D01*
X99318495Y-94805056D01*
X99254779Y-94989148D01*
X99254778Y-94989153D01*
X99254778Y-94989154D01*
X99224843Y-95197355D01*
X99234852Y-95407459D01*
X99284442Y-95611871D01*
X99329082Y-95709619D01*
X99371820Y-95803204D01*
X99371824Y-95803210D01*
X99493826Y-95974539D01*
X99493831Y-95974544D01*
X99646063Y-96119697D01*
X99823014Y-96233416D01*
X100018288Y-96311593D01*
X100147084Y-96336416D01*
X100224828Y-96351400D01*
X100224829Y-96351400D01*
X100382461Y-96351400D01*
X100382468Y-96351400D01*
X100539389Y-96336416D01*
X100741211Y-96277156D01*
X100928170Y-96180771D01*
X101093510Y-96050747D01*
X101231255Y-95891781D01*
X101336426Y-95709619D01*
X101405222Y-95510846D01*
X101435157Y-95302645D01*
X101425148Y-95092541D01*
X101375558Y-94888129D01*
X101346779Y-94825111D01*
X101342623Y-94816010D01*
X101332680Y-94746852D01*
X101361706Y-94683296D01*
X101420484Y-94645523D01*
X101455418Y-94640500D01*
X101774548Y-94640500D01*
X101841587Y-94660185D01*
X101862229Y-94676819D01*
X101883181Y-94697771D01*
X101916666Y-94759094D01*
X101919500Y-94785452D01*
X101919500Y-95223337D01*
X101919501Y-95223355D01*
X101929650Y-95322707D01*
X101929651Y-95322710D01*
X101982996Y-95483694D01*
X101983001Y-95483705D01*
X102072029Y-95628040D01*
X102072032Y-95628044D01*
X102191955Y-95747967D01*
X102191959Y-95747970D01*
X102336294Y-95836998D01*
X102336297Y-95836999D01*
X102336303Y-95837003D01*
X102497292Y-95890349D01*
X102596655Y-95900500D01*
X103443344Y-95900499D01*
X103443352Y-95900498D01*
X103443355Y-95900498D01*
X103528689Y-95891781D01*
X103542708Y-95890349D01*
X103703697Y-95837003D01*
X103848044Y-95747968D01*
X103967968Y-95628044D01*
X104057003Y-95483697D01*
X104110349Y-95322708D01*
X104120500Y-95223345D01*
X104120499Y-94676656D01*
X104118816Y-94660185D01*
X104110349Y-94577292D01*
X104110348Y-94577289D01*
X104093172Y-94525454D01*
X104057003Y-94416303D01*
X104056999Y-94416297D01*
X104056998Y-94416294D01*
X103967970Y-94271959D01*
X103967967Y-94271955D01*
X103848044Y-94152032D01*
X103848040Y-94152029D01*
X103703705Y-94063001D01*
X103703699Y-94062998D01*
X103703697Y-94062997D01*
X103662697Y-94049411D01*
X103542709Y-94009651D01*
X103443352Y-93999500D01*
X103443345Y-93999500D01*
X103005453Y-93999500D01*
X102938414Y-93979815D01*
X102917772Y-93963181D01*
X102585803Y-93631212D01*
X102575980Y-93618950D01*
X102575759Y-93619134D01*
X102570786Y-93613123D01*
X102520364Y-93565773D01*
X102508571Y-93553980D01*
X102499475Y-93544883D01*
X102493986Y-93540625D01*
X102489561Y-93536847D01*
X102455582Y-93504938D01*
X102455580Y-93504936D01*
X102455577Y-93504935D01*
X102438029Y-93495288D01*
X102421763Y-93484604D01*
X102405936Y-93472327D01*
X102405935Y-93472326D01*
X102405933Y-93472325D01*
X102363168Y-93453818D01*
X102357922Y-93451248D01*
X102317093Y-93428803D01*
X102317092Y-93428802D01*
X102297693Y-93423822D01*
X102279281Y-93417518D01*
X102260898Y-93409562D01*
X102260892Y-93409560D01*
X102214874Y-93402272D01*
X102209152Y-93401087D01*
X102164021Y-93389500D01*
X102164019Y-93389500D01*
X102143984Y-93389500D01*
X102124586Y-93387973D01*
X102117162Y-93386797D01*
X102104805Y-93384840D01*
X102104804Y-93384840D01*
X102058416Y-93389225D01*
X102052578Y-93389500D01*
X98345452Y-93389500D01*
X98278413Y-93369815D01*
X98257771Y-93353181D01*
X95755803Y-90851212D01*
X95745980Y-90838950D01*
X95745759Y-90839134D01*
X95740786Y-90833123D01*
X95722159Y-90815631D01*
X95690364Y-90785773D01*
X95679919Y-90775328D01*
X95669475Y-90764883D01*
X95663986Y-90760625D01*
X95659561Y-90756847D01*
X95625582Y-90724938D01*
X95625580Y-90724936D01*
X95625577Y-90724935D01*
X95608029Y-90715288D01*
X95591763Y-90704604D01*
X95575936Y-90692327D01*
X95575935Y-90692326D01*
X95575933Y-90692325D01*
X95533168Y-90673818D01*
X95527922Y-90671248D01*
X95487093Y-90648803D01*
X95487092Y-90648802D01*
X95467693Y-90643822D01*
X95449281Y-90637518D01*
X95430898Y-90629562D01*
X95430892Y-90629560D01*
X95384874Y-90622272D01*
X95379152Y-90621087D01*
X95334021Y-90609500D01*
X95334019Y-90609500D01*
X95313984Y-90609500D01*
X95294586Y-90607973D01*
X95287162Y-90606797D01*
X95274805Y-90604840D01*
X95274804Y-90604840D01*
X95228416Y-90609225D01*
X95222578Y-90609500D01*
X87767743Y-90609500D01*
X87752122Y-90607775D01*
X87752096Y-90608061D01*
X87744334Y-90607327D01*
X87744333Y-90607327D01*
X87675186Y-90609500D01*
X87645649Y-90609500D01*
X87638766Y-90610369D01*
X87632949Y-90610826D01*
X87586373Y-90612290D01*
X87567129Y-90617881D01*
X87548079Y-90621825D01*
X87528211Y-90624334D01*
X87484884Y-90641488D01*
X87479358Y-90643379D01*
X87434614Y-90656379D01*
X87434610Y-90656381D01*
X87417366Y-90666579D01*
X87399905Y-90675133D01*
X87381274Y-90682510D01*
X87381262Y-90682517D01*
X87343570Y-90709902D01*
X87338687Y-90713109D01*
X87298580Y-90736829D01*
X87284414Y-90750995D01*
X87269624Y-90763627D01*
X87253414Y-90775404D01*
X87253411Y-90775407D01*
X87223710Y-90811309D01*
X87219777Y-90815631D01*
X86202228Y-91833181D01*
X86140905Y-91866666D01*
X86114547Y-91869500D01*
X86055354Y-91869500D01*
X86022897Y-91876398D01*
X85870197Y-91908855D01*
X85870192Y-91908857D01*
X85697270Y-91985848D01*
X85697265Y-91985851D01*
X85544129Y-92097111D01*
X85417466Y-92237785D01*
X85322821Y-92401715D01*
X85322818Y-92401722D01*
X85278863Y-92537003D01*
X85264326Y-92581744D01*
X85246679Y-92749649D01*
X85220094Y-92814263D01*
X85211039Y-92824368D01*
X84072227Y-93963181D01*
X84010904Y-93996666D01*
X83984546Y-93999500D01*
X83955453Y-93999500D01*
X83888414Y-93979815D01*
X83867772Y-93963181D01*
X83544903Y-93640312D01*
X83535080Y-93628050D01*
X83534859Y-93628234D01*
X83529886Y-93622223D01*
X83526401Y-93618950D01*
X83479464Y-93574873D01*
X83469019Y-93564428D01*
X83458575Y-93553983D01*
X83453086Y-93549725D01*
X83448661Y-93545947D01*
X83414682Y-93514038D01*
X83414680Y-93514036D01*
X83414677Y-93514035D01*
X83397129Y-93504388D01*
X83380863Y-93493704D01*
X83369196Y-93484654D01*
X83365036Y-93481427D01*
X83365035Y-93481426D01*
X83365033Y-93481425D01*
X83322268Y-93462918D01*
X83317022Y-93460348D01*
X83276193Y-93437903D01*
X83276192Y-93437902D01*
X83256793Y-93432922D01*
X83238381Y-93426618D01*
X83219998Y-93418662D01*
X83219992Y-93418660D01*
X83173974Y-93411372D01*
X83168252Y-93410187D01*
X83123121Y-93398600D01*
X83123119Y-93398600D01*
X83103084Y-93398600D01*
X83083686Y-93397073D01*
X83076262Y-93395897D01*
X83063905Y-93393940D01*
X83063904Y-93393940D01*
X83017516Y-93398325D01*
X83011678Y-93398600D01*
X79154552Y-93398600D01*
X79087513Y-93378915D01*
X79066871Y-93362281D01*
X76555803Y-90851212D01*
X76545980Y-90838950D01*
X76545759Y-90839134D01*
X76540786Y-90833123D01*
X76522159Y-90815631D01*
X76490364Y-90785773D01*
X76479919Y-90775328D01*
X76469475Y-90764883D01*
X76463986Y-90760625D01*
X76459561Y-90756847D01*
X76425582Y-90724938D01*
X76425580Y-90724936D01*
X76425577Y-90724935D01*
X76408029Y-90715288D01*
X76391763Y-90704604D01*
X76375936Y-90692327D01*
X76375935Y-90692326D01*
X76375933Y-90692325D01*
X76333168Y-90673818D01*
X76327922Y-90671248D01*
X76287093Y-90648803D01*
X76287092Y-90648802D01*
X76267693Y-90643822D01*
X76249281Y-90637518D01*
X76230898Y-90629562D01*
X76230892Y-90629560D01*
X76184874Y-90622272D01*
X76179152Y-90621087D01*
X76134021Y-90609500D01*
X76134019Y-90609500D01*
X76113984Y-90609500D01*
X76094586Y-90607973D01*
X76087162Y-90606797D01*
X76074805Y-90604840D01*
X76074804Y-90604840D01*
X76028416Y-90609225D01*
X76022578Y-90609500D01*
X68717737Y-90609500D01*
X68702120Y-90607776D01*
X68702093Y-90608062D01*
X68694331Y-90607327D01*
X68625203Y-90609500D01*
X68595650Y-90609500D01*
X68594929Y-90609590D01*
X68588757Y-90610369D01*
X68582945Y-90610826D01*
X68536372Y-90612290D01*
X68536369Y-90612291D01*
X68517126Y-90617881D01*
X68498083Y-90621825D01*
X68478204Y-90624336D01*
X68478203Y-90624337D01*
X68434878Y-90641490D01*
X68429352Y-90643382D01*
X68384608Y-90656383D01*
X68384604Y-90656385D01*
X68367365Y-90666580D01*
X68349898Y-90675137D01*
X68331269Y-90682512D01*
X68331267Y-90682513D01*
X68293564Y-90709906D01*
X68288682Y-90713112D01*
X68248580Y-90736828D01*
X68234408Y-90751000D01*
X68219623Y-90763628D01*
X68203412Y-90775407D01*
X68173709Y-90811310D01*
X68169777Y-90815631D01*
X65022226Y-93963181D01*
X64960903Y-93996666D01*
X64934545Y-93999500D01*
X64496662Y-93999500D01*
X64496644Y-93999501D01*
X64397292Y-94009650D01*
X64397289Y-94009651D01*
X64236305Y-94062996D01*
X64236294Y-94063001D01*
X64091959Y-94152029D01*
X64091955Y-94152032D01*
X63972032Y-94271955D01*
X63972029Y-94271959D01*
X63883001Y-94416294D01*
X63882996Y-94416305D01*
X63829651Y-94577290D01*
X63819500Y-94676647D01*
X63819500Y-95223337D01*
X63819501Y-95223355D01*
X63829650Y-95322707D01*
X63829651Y-95322710D01*
X63882996Y-95483694D01*
X63883001Y-95483705D01*
X63972029Y-95628040D01*
X63972032Y-95628044D01*
X64091955Y-95747967D01*
X64091959Y-95747970D01*
X64236294Y-95836998D01*
X64236297Y-95836999D01*
X64236303Y-95837003D01*
X64397292Y-95890349D01*
X64496655Y-95900500D01*
X65343344Y-95900499D01*
X65343352Y-95900498D01*
X65343355Y-95900498D01*
X65428689Y-95891781D01*
X65442708Y-95890349D01*
X65603697Y-95837003D01*
X65748044Y-95747968D01*
X65867968Y-95628044D01*
X65957003Y-95483697D01*
X66010349Y-95322708D01*
X66020500Y-95223345D01*
X66020499Y-94785451D01*
X66040183Y-94718413D01*
X66056813Y-94697776D01*
X68857771Y-91896819D01*
X68919095Y-91863334D01*
X68945453Y-91860500D01*
X70769807Y-91860500D01*
X70836846Y-91880185D01*
X70882601Y-91932989D01*
X70892545Y-92002147D01*
X70884368Y-92031950D01*
X70857378Y-92097111D01*
X70815427Y-92198389D01*
X70754778Y-92451009D01*
X70734396Y-92710000D01*
X70754778Y-92968990D01*
X70815427Y-93221610D01*
X70914843Y-93461623D01*
X70914845Y-93461627D01*
X70914846Y-93461628D01*
X71050588Y-93683140D01*
X71219311Y-93880689D01*
X71260290Y-93915688D01*
X71277410Y-93930310D01*
X71315603Y-93988817D01*
X71316101Y-94058685D01*
X71278748Y-94117731D01*
X71215401Y-94147209D01*
X71196878Y-94148600D01*
X71067532Y-94148600D01*
X70910610Y-94163584D01*
X70910611Y-94163584D01*
X70910607Y-94163585D01*
X70708791Y-94222843D01*
X70521831Y-94319228D01*
X70356490Y-94449252D01*
X70356489Y-94449253D01*
X70218749Y-94608214D01*
X70218740Y-94608225D01*
X70113574Y-94790379D01*
X70044779Y-94989148D01*
X70044778Y-94989153D01*
X70044778Y-94989154D01*
X70014843Y-95197355D01*
X70024852Y-95407459D01*
X70074442Y-95611871D01*
X70119082Y-95709619D01*
X70161820Y-95803204D01*
X70161824Y-95803210D01*
X70283826Y-95974539D01*
X70283831Y-95974544D01*
X70436063Y-96119697D01*
X70613014Y-96233416D01*
X70808288Y-96311593D01*
X70937084Y-96336416D01*
X71014828Y-96351400D01*
X71014829Y-96351400D01*
X71172461Y-96351400D01*
X71172468Y-96351400D01*
X71329389Y-96336416D01*
X71531211Y-96277156D01*
X71718170Y-96180771D01*
X71883510Y-96050747D01*
X72021255Y-95891781D01*
X72126426Y-95709619D01*
X72195222Y-95510846D01*
X72225157Y-95302645D01*
X72215148Y-95092541D01*
X72165558Y-94888129D01*
X72078179Y-94696795D01*
X72075047Y-94692397D01*
X71957449Y-94527253D01*
X71934596Y-94461226D01*
X71951069Y-94393326D01*
X72001636Y-94345110D01*
X72070243Y-94331887D01*
X72087387Y-94334749D01*
X72131006Y-94345221D01*
X72390000Y-94365604D01*
X72648994Y-94345221D01*
X72901610Y-94284573D01*
X73141628Y-94185154D01*
X73363140Y-94049412D01*
X73560689Y-93880689D01*
X73729412Y-93683140D01*
X73865154Y-93461628D01*
X73964573Y-93221610D01*
X74025221Y-92968994D01*
X74045604Y-92710000D01*
X74025221Y-92451006D01*
X73964573Y-92198390D01*
X73895631Y-92031951D01*
X73888163Y-91962484D01*
X73919438Y-91900004D01*
X73979527Y-91864352D01*
X74010193Y-91860500D01*
X75744548Y-91860500D01*
X75811587Y-91880185D01*
X75832229Y-91896819D01*
X76775783Y-92840373D01*
X76809268Y-92901696D01*
X76804284Y-92971388D01*
X76762412Y-93027321D01*
X76696948Y-93051738D01*
X76655348Y-93047650D01*
X76648054Y-93045652D01*
X76350245Y-93005600D01*
X76124967Y-93005600D01*
X76124959Y-93005600D01*
X75900183Y-93020647D01*
X75900174Y-93020649D01*
X75605710Y-93080501D01*
X75321847Y-93179069D01*
X75321844Y-93179071D01*
X75053662Y-93314589D01*
X74805918Y-93484655D01*
X74583062Y-93686216D01*
X74389058Y-93915686D01*
X74389056Y-93915688D01*
X74227366Y-94168972D01*
X74108104Y-94425977D01*
X74100882Y-94441540D01*
X74072150Y-94534162D01*
X74011854Y-94728535D01*
X73984935Y-94888127D01*
X73961874Y-95024842D01*
X73955238Y-95223337D01*
X73951833Y-95325167D01*
X73981910Y-95624142D01*
X73981911Y-95624149D01*
X74051568Y-95916441D01*
X74051571Y-95916453D01*
X74159566Y-96196853D01*
X74159573Y-96196868D01*
X74303979Y-96460375D01*
X74303983Y-96460381D01*
X74395296Y-96584312D01*
X74482223Y-96702290D01*
X74682460Y-96909334D01*
X74691120Y-96918288D01*
X74691127Y-96918294D01*
X74781605Y-96989744D01*
X74926946Y-97104518D01*
X75185487Y-97257652D01*
X75441803Y-97366339D01*
X75495839Y-97410634D01*
X75517349Y-97477110D01*
X75499504Y-97544662D01*
X75447971Y-97591844D01*
X75393395Y-97604500D01*
X74278705Y-97604500D01*
X74260735Y-97603191D01*
X74236972Y-97599710D01*
X74192512Y-97603601D01*
X74184931Y-97604264D01*
X74179530Y-97604500D01*
X74171289Y-97604500D01*
X74149579Y-97607037D01*
X74138724Y-97608306D01*
X74123419Y-97609645D01*
X74062199Y-97615001D01*
X74055132Y-97616460D01*
X74055120Y-97616404D01*
X74047763Y-97618035D01*
X74047777Y-97618092D01*
X74040743Y-97619759D01*
X73968575Y-97646025D01*
X73895675Y-97670181D01*
X73889126Y-97673236D01*
X73889101Y-97673183D01*
X73882308Y-97676471D01*
X73882334Y-97676523D01*
X73875880Y-97679764D01*
X73811708Y-97721971D01*
X73746347Y-97762285D01*
X73740683Y-97766765D01*
X73740647Y-97766719D01*
X73734798Y-97771484D01*
X73734835Y-97771528D01*
X73729310Y-97776164D01*
X73729304Y-97776169D01*
X73729304Y-97776170D01*
X73704092Y-97802893D01*
X73676599Y-97832033D01*
X73407681Y-98100951D01*
X73346358Y-98134436D01*
X73276666Y-98129452D01*
X73232319Y-98100951D01*
X72890729Y-97759361D01*
X72878949Y-97745730D01*
X72871482Y-97735701D01*
X72864612Y-97726472D01*
X72861306Y-97723698D01*
X72824587Y-97692886D01*
X72820612Y-97689244D01*
X72817690Y-97686322D01*
X72814780Y-97683411D01*
X72789040Y-97663059D01*
X72768740Y-97646025D01*
X72730214Y-97613698D01*
X72730213Y-97613697D01*
X72730209Y-97613694D01*
X72724180Y-97609729D01*
X72724212Y-97609680D01*
X72717853Y-97605628D01*
X72717822Y-97605679D01*
X72711680Y-97601891D01*
X72711678Y-97601890D01*
X72711677Y-97601889D01*
X72672474Y-97583608D01*
X72642058Y-97569424D01*
X72592751Y-97544662D01*
X72573433Y-97534960D01*
X72573431Y-97534959D01*
X72573430Y-97534959D01*
X72566645Y-97532489D01*
X72566665Y-97532433D01*
X72559549Y-97529959D01*
X72559531Y-97530015D01*
X72552671Y-97527742D01*
X72524841Y-97521996D01*
X72477434Y-97512207D01*
X72428472Y-97500603D01*
X72402719Y-97494499D01*
X72395547Y-97493661D01*
X72395553Y-97493601D01*
X72388055Y-97492835D01*
X72388050Y-97492895D01*
X72380860Y-97492265D01*
X72304083Y-97494500D01*
X58204995Y-97494500D01*
X58137956Y-97474815D01*
X58092201Y-97422011D01*
X58082257Y-97352853D01*
X58111282Y-97289297D01*
X58149070Y-97259828D01*
X58296337Y-97185410D01*
X58296336Y-97185410D01*
X58296343Y-97185407D01*
X58544080Y-97015346D01*
X58766939Y-96813782D01*
X58960943Y-96584312D01*
X59122631Y-96331032D01*
X59249118Y-96058460D01*
X59338146Y-95771462D01*
X59388126Y-95475158D01*
X59397414Y-95197355D01*
X61124843Y-95197355D01*
X61134852Y-95407459D01*
X61184442Y-95611871D01*
X61229082Y-95709619D01*
X61271820Y-95803204D01*
X61271824Y-95803210D01*
X61393826Y-95974539D01*
X61393831Y-95974544D01*
X61546063Y-96119697D01*
X61723014Y-96233416D01*
X61918288Y-96311593D01*
X62047084Y-96336416D01*
X62124828Y-96351400D01*
X62124829Y-96351400D01*
X62282461Y-96351400D01*
X62282468Y-96351400D01*
X62439389Y-96336416D01*
X62641211Y-96277156D01*
X62828170Y-96180771D01*
X62993510Y-96050747D01*
X63131255Y-95891781D01*
X63236426Y-95709619D01*
X63305222Y-95510846D01*
X63335157Y-95302645D01*
X63325148Y-95092541D01*
X63275558Y-94888129D01*
X63188179Y-94696795D01*
X63185047Y-94692397D01*
X63066173Y-94525460D01*
X63066167Y-94525454D01*
X62913939Y-94380305D01*
X62913937Y-94380303D01*
X62736986Y-94266584D01*
X62736984Y-94266583D01*
X62541721Y-94188410D01*
X62541714Y-94188407D01*
X62541712Y-94188407D01*
X62541709Y-94188406D01*
X62541708Y-94188406D01*
X62335172Y-94148600D01*
X62335171Y-94148600D01*
X62177532Y-94148600D01*
X62020611Y-94163584D01*
X62020607Y-94163585D01*
X61818791Y-94222843D01*
X61631831Y-94319228D01*
X61466490Y-94449252D01*
X61466489Y-94449253D01*
X61328749Y-94608214D01*
X61328740Y-94608225D01*
X61223574Y-94790379D01*
X61154779Y-94989148D01*
X61154778Y-94989153D01*
X61154778Y-94989154D01*
X61124843Y-95197355D01*
X59397414Y-95197355D01*
X59398167Y-95174836D01*
X59368089Y-94875855D01*
X59298430Y-94583551D01*
X59190431Y-94303140D01*
X59046021Y-94039625D01*
X59016457Y-93999501D01*
X58928916Y-93880689D01*
X58867777Y-93797710D01*
X58658879Y-93581711D01*
X58658872Y-93581705D01*
X58470465Y-93432922D01*
X58423054Y-93395482D01*
X58164513Y-93242348D01*
X57887867Y-93125040D01*
X57887860Y-93125037D01*
X57598059Y-93045653D01*
X57598056Y-93045652D01*
X57598054Y-93045652D01*
X57300245Y-93005600D01*
X57074967Y-93005600D01*
X57074959Y-93005600D01*
X56850183Y-93020647D01*
X56850174Y-93020649D01*
X56555710Y-93080501D01*
X56271847Y-93179069D01*
X56271844Y-93179071D01*
X56003662Y-93314589D01*
X55755918Y-93484655D01*
X55533062Y-93686216D01*
X55339058Y-93915686D01*
X55339056Y-93915688D01*
X55177366Y-94168972D01*
X55058104Y-94425977D01*
X55050882Y-94441540D01*
X55022150Y-94534162D01*
X54961854Y-94728535D01*
X54934935Y-94888127D01*
X54911874Y-95024842D01*
X54905238Y-95223337D01*
X54901833Y-95325167D01*
X54931910Y-95624142D01*
X54931911Y-95624149D01*
X55001568Y-95916441D01*
X55001571Y-95916453D01*
X55109566Y-96196853D01*
X55109573Y-96196868D01*
X55253979Y-96460375D01*
X55253983Y-96460381D01*
X55345296Y-96584312D01*
X55432223Y-96702290D01*
X55632460Y-96909334D01*
X55641120Y-96918288D01*
X55641127Y-96918294D01*
X55731605Y-96989744D01*
X55876946Y-97104518D01*
X56135487Y-97257652D01*
X56135499Y-97257657D01*
X56139183Y-97259519D01*
X56138327Y-97261211D01*
X56186415Y-97300615D01*
X56207937Y-97367087D01*
X56190105Y-97434643D01*
X56138580Y-97481834D01*
X56083984Y-97494500D01*
X55648705Y-97494500D01*
X55630735Y-97493191D01*
X55606972Y-97489710D01*
X55561890Y-97493655D01*
X55554933Y-97494264D01*
X55549532Y-97494500D01*
X55541288Y-97494500D01*
X55508707Y-97498308D01*
X55432199Y-97505001D01*
X55425133Y-97506461D01*
X55425121Y-97506404D01*
X55417754Y-97508038D01*
X55417768Y-97508094D01*
X55410751Y-97509756D01*
X55338573Y-97536026D01*
X55265662Y-97560187D01*
X55259119Y-97563238D01*
X55259094Y-97563186D01*
X55252314Y-97566468D01*
X55252340Y-97566520D01*
X55245881Y-97569764D01*
X55181709Y-97611970D01*
X55116345Y-97652288D01*
X55110677Y-97656770D01*
X55110641Y-97656724D01*
X55104798Y-97661484D01*
X55104835Y-97661528D01*
X55099310Y-97666164D01*
X55099304Y-97666169D01*
X55099304Y-97666170D01*
X55083040Y-97683409D01*
X55046598Y-97722034D01*
X54135449Y-98633181D01*
X54074126Y-98666666D01*
X54047768Y-98669500D01*
X53702130Y-98669500D01*
X53702123Y-98669501D01*
X53642516Y-98675908D01*
X53507671Y-98726202D01*
X53507669Y-98726203D01*
X53431507Y-98783218D01*
X53402721Y-98804767D01*
X53337259Y-98829184D01*
X53328412Y-98829500D01*
X52832229Y-98829500D01*
X52765190Y-98809815D01*
X52744548Y-98793181D01*
X50266819Y-96315451D01*
X50233334Y-96254128D01*
X50230500Y-96227770D01*
X50230500Y-95197355D01*
X50964843Y-95197355D01*
X50974852Y-95407459D01*
X51024442Y-95611871D01*
X51069082Y-95709619D01*
X51111820Y-95803204D01*
X51111824Y-95803210D01*
X51233826Y-95974539D01*
X51233831Y-95974544D01*
X51386063Y-96119697D01*
X51563014Y-96233416D01*
X51758288Y-96311593D01*
X51887084Y-96336416D01*
X51964828Y-96351400D01*
X51964829Y-96351400D01*
X52122461Y-96351400D01*
X52122468Y-96351400D01*
X52279389Y-96336416D01*
X52481211Y-96277156D01*
X52668170Y-96180771D01*
X52833510Y-96050747D01*
X52971255Y-95891781D01*
X53076426Y-95709619D01*
X53145222Y-95510846D01*
X53175157Y-95302645D01*
X53165148Y-95092541D01*
X53115558Y-94888129D01*
X53028179Y-94696795D01*
X53025047Y-94692397D01*
X52907449Y-94527253D01*
X52884596Y-94461226D01*
X52901069Y-94393326D01*
X52951636Y-94345110D01*
X53020243Y-94331887D01*
X53037387Y-94334749D01*
X53081006Y-94345221D01*
X53340000Y-94365604D01*
X53598994Y-94345221D01*
X53851610Y-94284573D01*
X54091628Y-94185154D01*
X54313140Y-94049412D01*
X54510689Y-93880689D01*
X54679412Y-93683140D01*
X54815154Y-93461628D01*
X54914573Y-93221610D01*
X54975221Y-92968994D01*
X54995604Y-92710000D01*
X54975221Y-92451006D01*
X54914573Y-92198390D01*
X54826536Y-91985851D01*
X54815156Y-91958376D01*
X54793693Y-91923352D01*
X54679412Y-91736860D01*
X54510689Y-91539311D01*
X54313140Y-91370588D01*
X54091628Y-91234846D01*
X54091627Y-91234845D01*
X54091623Y-91234843D01*
X53925627Y-91166086D01*
X53851610Y-91135427D01*
X53851611Y-91135427D01*
X53713921Y-91102370D01*
X53598994Y-91074779D01*
X53598992Y-91074778D01*
X53598991Y-91074778D01*
X53340000Y-91054396D01*
X53081009Y-91074778D01*
X52828389Y-91135427D01*
X52588376Y-91234843D01*
X52366859Y-91370588D01*
X52169311Y-91539311D01*
X52000588Y-91736859D01*
X51864843Y-91958376D01*
X51765427Y-92198389D01*
X51704778Y-92451009D01*
X51684396Y-92709999D01*
X51704778Y-92968990D01*
X51765427Y-93221610D01*
X51864843Y-93461623D01*
X51864845Y-93461627D01*
X51864846Y-93461628D01*
X52000588Y-93683140D01*
X52169311Y-93880689D01*
X52210290Y-93915688D01*
X52227410Y-93930310D01*
X52265603Y-93988817D01*
X52266101Y-94058685D01*
X52228748Y-94117731D01*
X52165401Y-94147209D01*
X52146878Y-94148600D01*
X52017532Y-94148600D01*
X51860611Y-94163584D01*
X51860607Y-94163585D01*
X51658791Y-94222843D01*
X51471831Y-94319228D01*
X51306490Y-94449252D01*
X51306489Y-94449253D01*
X51168749Y-94608214D01*
X51168740Y-94608225D01*
X51063574Y-94790379D01*
X50994779Y-94989148D01*
X50994778Y-94989153D01*
X50994778Y-94989154D01*
X50964843Y-95197355D01*
X50230500Y-95197355D01*
X50230500Y-90170000D01*
X58034396Y-90170000D01*
X58054778Y-90428990D01*
X58115427Y-90681610D01*
X58214843Y-90921623D01*
X58214845Y-90921627D01*
X58214846Y-90921628D01*
X58350588Y-91143140D01*
X58519311Y-91340689D01*
X58716860Y-91509412D01*
X58938372Y-91645154D01*
X58938374Y-91645154D01*
X58938376Y-91645156D01*
X58999693Y-91670554D01*
X59178390Y-91744573D01*
X59431006Y-91805221D01*
X59690000Y-91825604D01*
X59948994Y-91805221D01*
X60201610Y-91744573D01*
X60251192Y-91724034D01*
X60320660Y-91716566D01*
X60383139Y-91747840D01*
X60386320Y-91750910D01*
X60532228Y-91896819D01*
X60669197Y-92033788D01*
X60679022Y-92046051D01*
X60679243Y-92045869D01*
X60684214Y-92051878D01*
X60710217Y-92076295D01*
X60734635Y-92099226D01*
X60755529Y-92120120D01*
X60761011Y-92124373D01*
X60765443Y-92128157D01*
X60799418Y-92160062D01*
X60816976Y-92169714D01*
X60833233Y-92180393D01*
X60849064Y-92192673D01*
X60868737Y-92201186D01*
X60891833Y-92211182D01*
X60897077Y-92213750D01*
X60937908Y-92236197D01*
X60950523Y-92239435D01*
X60957305Y-92241177D01*
X60975719Y-92247481D01*
X60994104Y-92255438D01*
X61040157Y-92262732D01*
X61045826Y-92263906D01*
X61090981Y-92275500D01*
X61111016Y-92275500D01*
X61130413Y-92277026D01*
X61150196Y-92280160D01*
X61196583Y-92275775D01*
X61202422Y-92275500D01*
X63870453Y-92275500D01*
X63937492Y-92295185D01*
X63967724Y-92322595D01*
X63972032Y-92328044D01*
X64091956Y-92447968D01*
X64091958Y-92447969D01*
X64091959Y-92447970D01*
X64236294Y-92536998D01*
X64236297Y-92536999D01*
X64236303Y-92537003D01*
X64397292Y-92590349D01*
X64496655Y-92600500D01*
X65343344Y-92600499D01*
X65343352Y-92600498D01*
X65343355Y-92600498D01*
X65397760Y-92594940D01*
X65442708Y-92590349D01*
X65603697Y-92537003D01*
X65748044Y-92447968D01*
X65867968Y-92328044D01*
X65957003Y-92183697D01*
X66010349Y-92022708D01*
X66020500Y-91923345D01*
X66020499Y-91376656D01*
X66010349Y-91277292D01*
X65957003Y-91116303D01*
X65956999Y-91116297D01*
X65956998Y-91116294D01*
X65867970Y-90971959D01*
X65867967Y-90971955D01*
X65748044Y-90852032D01*
X65748040Y-90852029D01*
X65603705Y-90763001D01*
X65603699Y-90762998D01*
X65603697Y-90762997D01*
X65524727Y-90736829D01*
X65442709Y-90709651D01*
X65343346Y-90699500D01*
X64496662Y-90699500D01*
X64496644Y-90699501D01*
X64397292Y-90709650D01*
X64397289Y-90709651D01*
X64236305Y-90762996D01*
X64236294Y-90763001D01*
X64091959Y-90852029D01*
X63972032Y-90971955D01*
X63967724Y-90977405D01*
X63910704Y-91017785D01*
X63870453Y-91024500D01*
X61480452Y-91024500D01*
X61413413Y-91004815D01*
X61392771Y-90988181D01*
X61270915Y-90866325D01*
X61237430Y-90805002D01*
X61242414Y-90735310D01*
X61244018Y-90731231D01*
X61264573Y-90681610D01*
X61325221Y-90428994D01*
X61345604Y-90170000D01*
X61345604Y-90169999D01*
X77084396Y-90169999D01*
X77104778Y-90428990D01*
X77165427Y-90681610D01*
X77264843Y-90921623D01*
X77264845Y-90921627D01*
X77264846Y-90921628D01*
X77400588Y-91143140D01*
X77569311Y-91340689D01*
X77766860Y-91509412D01*
X77988372Y-91645154D01*
X77988374Y-91645154D01*
X77988376Y-91645156D01*
X78049693Y-91670554D01*
X78228390Y-91744573D01*
X78481006Y-91805221D01*
X78740000Y-91825604D01*
X78998994Y-91805221D01*
X79251610Y-91744573D01*
X79301192Y-91724034D01*
X79370660Y-91716566D01*
X79433139Y-91747840D01*
X79436320Y-91750910D01*
X79582228Y-91896819D01*
X79719197Y-92033788D01*
X79729022Y-92046051D01*
X79729243Y-92045869D01*
X79734214Y-92051878D01*
X79760217Y-92076295D01*
X79784635Y-92099226D01*
X79805529Y-92120120D01*
X79811011Y-92124373D01*
X79815443Y-92128157D01*
X79849418Y-92160062D01*
X79866976Y-92169714D01*
X79883233Y-92180393D01*
X79899064Y-92192673D01*
X79918737Y-92201186D01*
X79941833Y-92211182D01*
X79947077Y-92213750D01*
X79987908Y-92236197D01*
X80000523Y-92239435D01*
X80007305Y-92241177D01*
X80025719Y-92247481D01*
X80044104Y-92255438D01*
X80090157Y-92262732D01*
X80095826Y-92263906D01*
X80140981Y-92275500D01*
X80161016Y-92275500D01*
X80180413Y-92277026D01*
X80200196Y-92280160D01*
X80246583Y-92275775D01*
X80252422Y-92275500D01*
X82920453Y-92275500D01*
X82987492Y-92295185D01*
X83017724Y-92322595D01*
X83022032Y-92328044D01*
X83141956Y-92447968D01*
X83141958Y-92447969D01*
X83141959Y-92447970D01*
X83286294Y-92536998D01*
X83286297Y-92536999D01*
X83286303Y-92537003D01*
X83447292Y-92590349D01*
X83546655Y-92600500D01*
X84393344Y-92600499D01*
X84393352Y-92600498D01*
X84393355Y-92600498D01*
X84447760Y-92594940D01*
X84492708Y-92590349D01*
X84653697Y-92537003D01*
X84798044Y-92447968D01*
X84917968Y-92328044D01*
X85007003Y-92183697D01*
X85060349Y-92022708D01*
X85070500Y-91923345D01*
X85070499Y-91376656D01*
X85060349Y-91277292D01*
X85007003Y-91116303D01*
X85006999Y-91116297D01*
X85006998Y-91116294D01*
X84917970Y-90971959D01*
X84917967Y-90971955D01*
X84798044Y-90852032D01*
X84798040Y-90852029D01*
X84653705Y-90763001D01*
X84653699Y-90762998D01*
X84653697Y-90762997D01*
X84574727Y-90736829D01*
X84492709Y-90709651D01*
X84393346Y-90699500D01*
X83546662Y-90699500D01*
X83546644Y-90699501D01*
X83447292Y-90709650D01*
X83447289Y-90709651D01*
X83286305Y-90762996D01*
X83286294Y-90763001D01*
X83141959Y-90852029D01*
X83022032Y-90971955D01*
X83017724Y-90977405D01*
X82960704Y-91017785D01*
X82920453Y-91024500D01*
X80530452Y-91024500D01*
X80463413Y-91004815D01*
X80442771Y-90988181D01*
X80320915Y-90866325D01*
X80287430Y-90805002D01*
X80292414Y-90735310D01*
X80294018Y-90731231D01*
X80314573Y-90681610D01*
X80375221Y-90428994D01*
X80395604Y-90170000D01*
X80395604Y-90169999D01*
X96134396Y-90169999D01*
X96154778Y-90428990D01*
X96215427Y-90681610D01*
X96314843Y-90921623D01*
X96314845Y-90921627D01*
X96314846Y-90921628D01*
X96450588Y-91143140D01*
X96619311Y-91340689D01*
X96816860Y-91509412D01*
X97038372Y-91645154D01*
X97038374Y-91645154D01*
X97038376Y-91645156D01*
X97099693Y-91670554D01*
X97278390Y-91744573D01*
X97531006Y-91805221D01*
X97790000Y-91825604D01*
X98048994Y-91805221D01*
X98301610Y-91744573D01*
X98351192Y-91724034D01*
X98420660Y-91716566D01*
X98483139Y-91747840D01*
X98486320Y-91750910D01*
X98632228Y-91896819D01*
X98769197Y-92033788D01*
X98779022Y-92046051D01*
X98779243Y-92045869D01*
X98784214Y-92051878D01*
X98810217Y-92076295D01*
X98834635Y-92099226D01*
X98855529Y-92120120D01*
X98861011Y-92124373D01*
X98865443Y-92128157D01*
X98899418Y-92160062D01*
X98916976Y-92169714D01*
X98933233Y-92180393D01*
X98949064Y-92192673D01*
X98968737Y-92201186D01*
X98991833Y-92211182D01*
X98997077Y-92213750D01*
X99037908Y-92236197D01*
X99050523Y-92239435D01*
X99057305Y-92241177D01*
X99075719Y-92247481D01*
X99094104Y-92255438D01*
X99140157Y-92262732D01*
X99145826Y-92263906D01*
X99190981Y-92275500D01*
X99211016Y-92275500D01*
X99230413Y-92277026D01*
X99250196Y-92280160D01*
X99296583Y-92275775D01*
X99302422Y-92275500D01*
X101970453Y-92275500D01*
X102037492Y-92295185D01*
X102067724Y-92322595D01*
X102072032Y-92328044D01*
X102191956Y-92447968D01*
X102191958Y-92447969D01*
X102191959Y-92447970D01*
X102336294Y-92536998D01*
X102336297Y-92536999D01*
X102336303Y-92537003D01*
X102497292Y-92590349D01*
X102596655Y-92600500D01*
X103443344Y-92600499D01*
X103443352Y-92600498D01*
X103443355Y-92600498D01*
X103497760Y-92594940D01*
X103542708Y-92590349D01*
X103703697Y-92537003D01*
X103848044Y-92447968D01*
X103967968Y-92328044D01*
X104057003Y-92183697D01*
X104110349Y-92022708D01*
X104120500Y-91923345D01*
X104120499Y-91376656D01*
X104110349Y-91277292D01*
X104057003Y-91116303D01*
X104056999Y-91116297D01*
X104056998Y-91116294D01*
X103967970Y-90971959D01*
X103967967Y-90971955D01*
X103848044Y-90852032D01*
X103848040Y-90852029D01*
X103703705Y-90763001D01*
X103703699Y-90762998D01*
X103703697Y-90762997D01*
X103624727Y-90736829D01*
X103542709Y-90709651D01*
X103443346Y-90699500D01*
X102596662Y-90699500D01*
X102596644Y-90699501D01*
X102497292Y-90709650D01*
X102497289Y-90709651D01*
X102336305Y-90762996D01*
X102336294Y-90763001D01*
X102191959Y-90852029D01*
X102072032Y-90971955D01*
X102067724Y-90977405D01*
X102010704Y-91017785D01*
X101970453Y-91024500D01*
X99580452Y-91024500D01*
X99513413Y-91004815D01*
X99492771Y-90988181D01*
X99370915Y-90866325D01*
X99337430Y-90805002D01*
X99342414Y-90735310D01*
X99344018Y-90731231D01*
X99364573Y-90681610D01*
X99425221Y-90428994D01*
X99445604Y-90170000D01*
X99425221Y-89911006D01*
X99364573Y-89658390D01*
X99265154Y-89418372D01*
X99129412Y-89196860D01*
X98960689Y-88999311D01*
X98763140Y-88830588D01*
X98541628Y-88694846D01*
X98541627Y-88694845D01*
X98541623Y-88694843D01*
X98375627Y-88626086D01*
X98301610Y-88595427D01*
X98301611Y-88595427D01*
X98163921Y-88562370D01*
X98048994Y-88534779D01*
X98048992Y-88534778D01*
X98048991Y-88534778D01*
X97790000Y-88514396D01*
X97531009Y-88534778D01*
X97278389Y-88595427D01*
X97038376Y-88694843D01*
X96816859Y-88830588D01*
X96619311Y-88999311D01*
X96450588Y-89196859D01*
X96314843Y-89418376D01*
X96215427Y-89658389D01*
X96154778Y-89911009D01*
X96134396Y-90169999D01*
X80395604Y-90169999D01*
X80375221Y-89911006D01*
X80314573Y-89658390D01*
X80215154Y-89418372D01*
X80079412Y-89196860D01*
X79910689Y-88999311D01*
X79713140Y-88830588D01*
X79491628Y-88694846D01*
X79491627Y-88694845D01*
X79491623Y-88694843D01*
X79325627Y-88626086D01*
X79251610Y-88595427D01*
X79251611Y-88595427D01*
X79113921Y-88562370D01*
X78998994Y-88534779D01*
X78998992Y-88534778D01*
X78998991Y-88534778D01*
X78764189Y-88516299D01*
X78740000Y-88514396D01*
X78739999Y-88514396D01*
X78481009Y-88534778D01*
X78228389Y-88595427D01*
X77988376Y-88694843D01*
X77766859Y-88830588D01*
X77569311Y-88999311D01*
X77400588Y-89196859D01*
X77264843Y-89418376D01*
X77165427Y-89658389D01*
X77104778Y-89911009D01*
X77084396Y-90169999D01*
X61345604Y-90169999D01*
X61325221Y-89911006D01*
X61264573Y-89658390D01*
X61165154Y-89418372D01*
X61029412Y-89196860D01*
X60860689Y-88999311D01*
X60663140Y-88830588D01*
X60441628Y-88694846D01*
X60441627Y-88694845D01*
X60441623Y-88694843D01*
X60275627Y-88626086D01*
X60201610Y-88595427D01*
X60201611Y-88595427D01*
X60063921Y-88562370D01*
X59948994Y-88534779D01*
X59948992Y-88534778D01*
X59948991Y-88534778D01*
X59714189Y-88516299D01*
X59690000Y-88514396D01*
X59689999Y-88514396D01*
X59431009Y-88534778D01*
X59178389Y-88595427D01*
X58938376Y-88694843D01*
X58716859Y-88830588D01*
X58519311Y-88999311D01*
X58350588Y-89196859D01*
X58214843Y-89418376D01*
X58115427Y-89658389D01*
X58054778Y-89911009D01*
X58034396Y-90170000D01*
X50230500Y-90170000D01*
X50230500Y-81911229D01*
X50250185Y-81844190D01*
X50302989Y-81798435D01*
X50372147Y-81788491D01*
X50435703Y-81817516D01*
X50442181Y-81823548D01*
X53409267Y-84790634D01*
X53421048Y-84804266D01*
X53435390Y-84823530D01*
X53475420Y-84857119D01*
X53479392Y-84860759D01*
X53485223Y-84866590D01*
X53485222Y-84866590D01*
X53507027Y-84883830D01*
X53510944Y-84886927D01*
X53569786Y-84936302D01*
X53569794Y-84936306D01*
X53575824Y-84940273D01*
X53575790Y-84940323D01*
X53582147Y-84944372D01*
X53582179Y-84944321D01*
X53588319Y-84948108D01*
X53588323Y-84948111D01*
X53623132Y-84964343D01*
X53657941Y-84980575D01*
X53676336Y-84989813D01*
X53726567Y-85015040D01*
X53726569Y-85015040D01*
X53733357Y-85017511D01*
X53733336Y-85017567D01*
X53740455Y-85020042D01*
X53740474Y-85019986D01*
X53747323Y-85022256D01*
X53747326Y-85022256D01*
X53747327Y-85022257D01*
X53822550Y-85037788D01*
X53897279Y-85055500D01*
X53904452Y-85056339D01*
X53904445Y-85056397D01*
X53911946Y-85057163D01*
X53911952Y-85057104D01*
X53919140Y-85057733D01*
X53919143Y-85057732D01*
X53919144Y-85057733D01*
X53995898Y-85055500D01*
X57871295Y-85055500D01*
X57889265Y-85056809D01*
X57913023Y-85060289D01*
X57965068Y-85055735D01*
X57970470Y-85055500D01*
X57978704Y-85055500D01*
X57978709Y-85055500D01*
X57990327Y-85054141D01*
X58011276Y-85051693D01*
X58024028Y-85050577D01*
X58087797Y-85044999D01*
X58087805Y-85044996D01*
X58094866Y-85043539D01*
X58094878Y-85043598D01*
X58102243Y-85041965D01*
X58102229Y-85041906D01*
X58109246Y-85040241D01*
X58109255Y-85040241D01*
X58181423Y-85013974D01*
X58254334Y-84989814D01*
X58254343Y-84989807D01*
X58260882Y-84986760D01*
X58260908Y-84986816D01*
X58267690Y-84983532D01*
X58267663Y-84983478D01*
X58274106Y-84980240D01*
X58274117Y-84980237D01*
X58338283Y-84938034D01*
X58403656Y-84897712D01*
X58403662Y-84897705D01*
X58409325Y-84893229D01*
X58409363Y-84893277D01*
X58415200Y-84888522D01*
X58415161Y-84888475D01*
X58420696Y-84883830D01*
X58473385Y-84827983D01*
X59867319Y-83434048D01*
X59928642Y-83400563D01*
X59998334Y-83405547D01*
X60042681Y-83434048D01*
X60389267Y-83780634D01*
X60401048Y-83794266D01*
X60415390Y-83813530D01*
X60455420Y-83847119D01*
X60459392Y-83850759D01*
X60465223Y-83856590D01*
X60465222Y-83856590D01*
X60481948Y-83869814D01*
X60490944Y-83876927D01*
X60549786Y-83926302D01*
X60549794Y-83926306D01*
X60555824Y-83930273D01*
X60555790Y-83930323D01*
X60562137Y-83934366D01*
X60562169Y-83934316D01*
X60568318Y-83938108D01*
X60568320Y-83938109D01*
X60568323Y-83938111D01*
X60637930Y-83970569D01*
X60706567Y-84005040D01*
X60706576Y-84005042D01*
X60713355Y-84007510D01*
X60713334Y-84007567D01*
X60720451Y-84010040D01*
X60720470Y-84009984D01*
X60727330Y-84012257D01*
X60802532Y-84027783D01*
X60802532Y-84027784D01*
X60877279Y-84045500D01*
X60877288Y-84045500D01*
X60884452Y-84046338D01*
X60884445Y-84046397D01*
X60891946Y-84047163D01*
X60891952Y-84047104D01*
X60899140Y-84047733D01*
X60899143Y-84047732D01*
X60899144Y-84047733D01*
X60975898Y-84045500D01*
X77821295Y-84045500D01*
X77839265Y-84046809D01*
X77863023Y-84050289D01*
X77915068Y-84045735D01*
X77920470Y-84045500D01*
X77928704Y-84045500D01*
X77928709Y-84045500D01*
X77940327Y-84044141D01*
X77961276Y-84041693D01*
X77974028Y-84040577D01*
X78037797Y-84034999D01*
X78037805Y-84034996D01*
X78044866Y-84033539D01*
X78044878Y-84033598D01*
X78052243Y-84031965D01*
X78052229Y-84031906D01*
X78059246Y-84030241D01*
X78059255Y-84030241D01*
X78131423Y-84003974D01*
X78204334Y-83979814D01*
X78204343Y-83979807D01*
X78210882Y-83976760D01*
X78210908Y-83976816D01*
X78217690Y-83973532D01*
X78217663Y-83973478D01*
X78224106Y-83970240D01*
X78224117Y-83970237D01*
X78288283Y-83928034D01*
X78353656Y-83887712D01*
X78353662Y-83887705D01*
X78359325Y-83883229D01*
X78359363Y-83883277D01*
X78365200Y-83878522D01*
X78365161Y-83878475D01*
X78370696Y-83873830D01*
X78423385Y-83817983D01*
X78862319Y-83379048D01*
X78923642Y-83345563D01*
X78993333Y-83350547D01*
X79037681Y-83379048D01*
X79329267Y-83670634D01*
X79341048Y-83684266D01*
X79355390Y-83703530D01*
X79395420Y-83737119D01*
X79399392Y-83740759D01*
X79405224Y-83746591D01*
X79405227Y-83746594D01*
X79430947Y-83766931D01*
X79489788Y-83816304D01*
X79495818Y-83820270D01*
X79495785Y-83820319D01*
X79502143Y-83824369D01*
X79502175Y-83824319D01*
X79508320Y-83828109D01*
X79508323Y-83828111D01*
X79577936Y-83860572D01*
X79646567Y-83895040D01*
X79646572Y-83895041D01*
X79653361Y-83897513D01*
X79653340Y-83897570D01*
X79660455Y-83900043D01*
X79660475Y-83899986D01*
X79667330Y-83902258D01*
X79742558Y-83917790D01*
X79817279Y-83935500D01*
X79817289Y-83935500D01*
X79824452Y-83936338D01*
X79824444Y-83936397D01*
X79831945Y-83937164D01*
X79831951Y-83937105D01*
X79839140Y-83937734D01*
X79839144Y-83937733D01*
X79839145Y-83937734D01*
X79915918Y-83935500D01*
X97241295Y-83935500D01*
X97259265Y-83936809D01*
X97283023Y-83940289D01*
X97335068Y-83935735D01*
X97340470Y-83935500D01*
X97348704Y-83935500D01*
X97348709Y-83935500D01*
X97360327Y-83934141D01*
X97381276Y-83931693D01*
X97396936Y-83930323D01*
X97457797Y-83924999D01*
X97457805Y-83924996D01*
X97464866Y-83923539D01*
X97464878Y-83923598D01*
X97472243Y-83921965D01*
X97472229Y-83921906D01*
X97479246Y-83920241D01*
X97479255Y-83920241D01*
X97551423Y-83893974D01*
X97624334Y-83869814D01*
X97624343Y-83869807D01*
X97630882Y-83866760D01*
X97630908Y-83866816D01*
X97637690Y-83863532D01*
X97637663Y-83863478D01*
X97644106Y-83860240D01*
X97644117Y-83860237D01*
X97708283Y-83818034D01*
X97773656Y-83777712D01*
X97773662Y-83777705D01*
X97779325Y-83773229D01*
X97779363Y-83773277D01*
X97785200Y-83768522D01*
X97785161Y-83768475D01*
X97790696Y-83763830D01*
X97843385Y-83707983D01*
X98172319Y-83379048D01*
X98285642Y-83265724D01*
X98299271Y-83253947D01*
X98318530Y-83239610D01*
X98352101Y-83199601D01*
X98355761Y-83195606D01*
X98361590Y-83189778D01*
X98381941Y-83164039D01*
X98387948Y-83156879D01*
X98431302Y-83105214D01*
X98431306Y-83105205D01*
X98435274Y-83099175D01*
X98435325Y-83099208D01*
X98439372Y-83092856D01*
X98439320Y-83092824D01*
X98443112Y-83086676D01*
X98475576Y-83017055D01*
X98479701Y-83008843D01*
X98527381Y-82957771D01*
X98590509Y-82940499D01*
X98697871Y-82940499D01*
X98697872Y-82940499D01*
X98757483Y-82934091D01*
X98892331Y-82883796D01*
X99007546Y-82797546D01*
X99093796Y-82682331D01*
X99144091Y-82547483D01*
X99150500Y-82487873D01*
X99150499Y-81572128D01*
X99150498Y-81572116D01*
X99150376Y-81569834D01*
X99150499Y-81569313D01*
X99150499Y-81568807D01*
X99150619Y-81568807D01*
X99166448Y-81501838D01*
X99216731Y-81453325D01*
X99285258Y-81439698D01*
X99312520Y-81445274D01*
X99315191Y-81446141D01*
X99315197Y-81446144D01*
X99500354Y-81485500D01*
X99500355Y-81485500D01*
X99689644Y-81485500D01*
X99689646Y-81485500D01*
X99874803Y-81446144D01*
X100047730Y-81369151D01*
X100200871Y-81257888D01*
X100327533Y-81117216D01*
X100422179Y-80953284D01*
X100480674Y-80773256D01*
X100500460Y-80585000D01*
X100480674Y-80396744D01*
X100422179Y-80216716D01*
X100327533Y-80052784D01*
X100200871Y-79912112D01*
X100200870Y-79912111D01*
X100047734Y-79800851D01*
X100047729Y-79800848D01*
X99874807Y-79723857D01*
X99874802Y-79723855D01*
X99729000Y-79692865D01*
X99689646Y-79684500D01*
X99500354Y-79684500D01*
X99467897Y-79691398D01*
X99315197Y-79723855D01*
X99315192Y-79723857D01*
X99153182Y-79795990D01*
X99083932Y-79805275D01*
X99020655Y-79775647D01*
X99014057Y-79768490D01*
X99013820Y-79768728D01*
X99007548Y-79762457D01*
X99007546Y-79762454D01*
X98972601Y-79736294D01*
X98892335Y-79676206D01*
X98892328Y-79676202D01*
X98757482Y-79625908D01*
X98757483Y-79625908D01*
X98697883Y-79619501D01*
X98697881Y-79619500D01*
X98697873Y-79619500D01*
X98697864Y-79619500D01*
X96902129Y-79619500D01*
X96902123Y-79619501D01*
X96842516Y-79625908D01*
X96707671Y-79676202D01*
X96707669Y-79676203D01*
X96644014Y-79723856D01*
X96602721Y-79754767D01*
X96537259Y-79779184D01*
X96528412Y-79779500D01*
X93839945Y-79779500D01*
X93775795Y-79761617D01*
X93636462Y-79677387D01*
X93636463Y-79677387D01*
X93473013Y-79626455D01*
X93473015Y-79626455D01*
X93401977Y-79620000D01*
X92950000Y-79620000D01*
X92950000Y-80656000D01*
X92930315Y-80723039D01*
X92877511Y-80768794D01*
X92826000Y-80780000D01*
X91350000Y-80780000D01*
X91350000Y-80791977D01*
X91356455Y-80863014D01*
X91407387Y-81026463D01*
X91407388Y-81026465D01*
X91428477Y-81061349D01*
X91446314Y-81128904D01*
X91424797Y-81195378D01*
X91370757Y-81239666D01*
X91322361Y-81249500D01*
X80845453Y-81249500D01*
X80778414Y-81229815D01*
X80757772Y-81213181D01*
X80136818Y-80592227D01*
X80103333Y-80530904D01*
X80100499Y-80504546D01*
X80100499Y-80280000D01*
X91350000Y-80280000D01*
X92450000Y-80280000D01*
X92450000Y-79620000D01*
X91998023Y-79620000D01*
X91926985Y-79626455D01*
X91763536Y-79677387D01*
X91617016Y-79765962D01*
X91495962Y-79887016D01*
X91407387Y-80033536D01*
X91356455Y-80196985D01*
X91350000Y-80268022D01*
X91350000Y-80280000D01*
X80100499Y-80280000D01*
X80100499Y-80072129D01*
X80100498Y-80072123D01*
X80098419Y-80052785D01*
X80094091Y-80012517D01*
X80056642Y-79912112D01*
X80043797Y-79877671D01*
X80043793Y-79877664D01*
X79957547Y-79762455D01*
X79957544Y-79762452D01*
X79842335Y-79676206D01*
X79842328Y-79676202D01*
X79707482Y-79625908D01*
X79707483Y-79625908D01*
X79647883Y-79619501D01*
X79647881Y-79619500D01*
X79647873Y-79619500D01*
X79647864Y-79619500D01*
X77852129Y-79619500D01*
X77852123Y-79619501D01*
X77792516Y-79625908D01*
X77657671Y-79676202D01*
X77657669Y-79676203D01*
X77594014Y-79723856D01*
X77552721Y-79754767D01*
X77487259Y-79779184D01*
X77478412Y-79779500D01*
X74789945Y-79779500D01*
X74725795Y-79761617D01*
X74586462Y-79677387D01*
X74586463Y-79677387D01*
X74423013Y-79626455D01*
X74423015Y-79626455D01*
X74351977Y-79620000D01*
X73900000Y-79620000D01*
X73900000Y-80656000D01*
X73880315Y-80723039D01*
X73827511Y-80768794D01*
X73776000Y-80780000D01*
X72300000Y-80780000D01*
X72300000Y-80791977D01*
X72306455Y-80863014D01*
X72357387Y-81026462D01*
X72431071Y-81148349D01*
X72448907Y-81215903D01*
X72427390Y-81282377D01*
X72424221Y-81286809D01*
X72377059Y-81349810D01*
X72321126Y-81391682D01*
X72277792Y-81399500D01*
X61945453Y-81399500D01*
X61878414Y-81379815D01*
X61857772Y-81363181D01*
X61086818Y-80592227D01*
X61053333Y-80530904D01*
X61050499Y-80504546D01*
X61050499Y-80280000D01*
X72300000Y-80280000D01*
X73400000Y-80280000D01*
X73400000Y-79620000D01*
X72948023Y-79620000D01*
X72876985Y-79626455D01*
X72713536Y-79677387D01*
X72567016Y-79765962D01*
X72445962Y-79887016D01*
X72357387Y-80033536D01*
X72306455Y-80196985D01*
X72300000Y-80268022D01*
X72300000Y-80280000D01*
X61050499Y-80280000D01*
X61050499Y-80072129D01*
X61050498Y-80072123D01*
X61048419Y-80052785D01*
X61044091Y-80012517D01*
X61006642Y-79912112D01*
X60993797Y-79877671D01*
X60993793Y-79877664D01*
X60907547Y-79762455D01*
X60907544Y-79762452D01*
X60792335Y-79676206D01*
X60792328Y-79676202D01*
X60657482Y-79625908D01*
X60657483Y-79625908D01*
X60597883Y-79619501D01*
X60597881Y-79619500D01*
X60597873Y-79619500D01*
X60597864Y-79619500D01*
X58802129Y-79619500D01*
X58802123Y-79619501D01*
X58742516Y-79625908D01*
X58607671Y-79676202D01*
X58607669Y-79676203D01*
X58544014Y-79723856D01*
X58502721Y-79754767D01*
X58437259Y-79779184D01*
X58428412Y-79779500D01*
X55739945Y-79779500D01*
X55675795Y-79761617D01*
X55536462Y-79677387D01*
X55536463Y-79677387D01*
X55373013Y-79626455D01*
X55373015Y-79626455D01*
X55301977Y-79620000D01*
X54850000Y-79620000D01*
X54850000Y-80656000D01*
X54830315Y-80723039D01*
X54777511Y-80768794D01*
X54726000Y-80780000D01*
X53250000Y-80780000D01*
X53250000Y-80791977D01*
X53256455Y-80863014D01*
X53307387Y-81026462D01*
X53381071Y-81148349D01*
X53398907Y-81215903D01*
X53377390Y-81282377D01*
X53374221Y-81286810D01*
X53306204Y-81377669D01*
X53306202Y-81377671D01*
X53255908Y-81512517D01*
X53249501Y-81572116D01*
X53249500Y-81572135D01*
X53249500Y-82208770D01*
X53229815Y-82275809D01*
X53177011Y-82321564D01*
X53107853Y-82331508D01*
X53044297Y-82302483D01*
X53037819Y-82296451D01*
X51021368Y-80280000D01*
X53250000Y-80280000D01*
X54350000Y-80280000D01*
X54350000Y-79620000D01*
X53898023Y-79620000D01*
X53826985Y-79626455D01*
X53663536Y-79677387D01*
X53517016Y-79765962D01*
X53395962Y-79887016D01*
X53307387Y-80033536D01*
X53256455Y-80196985D01*
X53250000Y-80268022D01*
X53250000Y-80280000D01*
X51021368Y-80280000D01*
X50266819Y-79525451D01*
X50233334Y-79464128D01*
X50230500Y-79437770D01*
X50230500Y-69899730D01*
X50250185Y-69832691D01*
X50266819Y-69812049D01*
X50298280Y-69780588D01*
X50372712Y-69706156D01*
X50464814Y-69556834D01*
X50519999Y-69390297D01*
X50530500Y-69287509D01*
X50530499Y-68587492D01*
X50519999Y-68484703D01*
X50464814Y-68318166D01*
X50372712Y-68168844D01*
X50248656Y-68044788D01*
X50122090Y-67966722D01*
X50099336Y-67952687D01*
X50099331Y-67952685D01*
X50097862Y-67952198D01*
X49932797Y-67897501D01*
X49932795Y-67897500D01*
X49830010Y-67887000D01*
X49129998Y-67887000D01*
X49129980Y-67887001D01*
X49027203Y-67897500D01*
X49027200Y-67897501D01*
X48860668Y-67952685D01*
X48860663Y-67952687D01*
X48711342Y-68044789D01*
X48587289Y-68168842D01*
X48495187Y-68318163D01*
X48495185Y-68318168D01*
X48467349Y-68402170D01*
X48440001Y-68484703D01*
X48440001Y-68484704D01*
X48440000Y-68484704D01*
X48429500Y-68587483D01*
X48429500Y-69287501D01*
X47625500Y-69287501D01*
X47625500Y-66487501D01*
X48429500Y-66487501D01*
X48429501Y-66487519D01*
X48440000Y-66590296D01*
X48440001Y-66590299D01*
X48495185Y-66756831D01*
X48495186Y-66756834D01*
X48587288Y-66906156D01*
X48711344Y-67030212D01*
X48860666Y-67122314D01*
X49027203Y-67177499D01*
X49129991Y-67188000D01*
X49830008Y-67187999D01*
X49830016Y-67187998D01*
X49830019Y-67187998D01*
X49886302Y-67182248D01*
X49932797Y-67177499D01*
X50099334Y-67122314D01*
X50248656Y-67030212D01*
X50372712Y-66906156D01*
X50464814Y-66756834D01*
X50519999Y-66590297D01*
X50530500Y-66487509D01*
X50530499Y-65787492D01*
X50519999Y-65684703D01*
X50464814Y-65518166D01*
X50372712Y-65368844D01*
X50281819Y-65277951D01*
X50248334Y-65216628D01*
X50245500Y-65190270D01*
X50245500Y-64839321D01*
X50262113Y-64777321D01*
X50322179Y-64673284D01*
X50380674Y-64493256D01*
X50400460Y-64305000D01*
X50380674Y-64116744D01*
X50358295Y-64047870D01*
X55149500Y-64047870D01*
X55149501Y-64047876D01*
X55155908Y-64107483D01*
X55206202Y-64242328D01*
X55206206Y-64242335D01*
X55292452Y-64357544D01*
X55292455Y-64357547D01*
X55407664Y-64443793D01*
X55407671Y-64443797D01*
X55542517Y-64494091D01*
X55542516Y-64494091D01*
X55549444Y-64494835D01*
X55602127Y-64500500D01*
X58697872Y-64500499D01*
X58757483Y-64494091D01*
X58892331Y-64443796D01*
X59007546Y-64357546D01*
X59093796Y-64242331D01*
X59144091Y-64107483D01*
X59150500Y-64047873D01*
X59150499Y-61452128D01*
X59144091Y-61392517D01*
X59093796Y-61257669D01*
X59093795Y-61257668D01*
X59093793Y-61257664D01*
X59007547Y-61142455D01*
X59007544Y-61142452D01*
X58892335Y-61056206D01*
X58892328Y-61056202D01*
X58757482Y-61005908D01*
X58757483Y-61005908D01*
X58697883Y-60999501D01*
X58697881Y-60999500D01*
X58697873Y-60999500D01*
X58697864Y-60999500D01*
X55602129Y-60999500D01*
X55602123Y-60999501D01*
X55542516Y-61005908D01*
X55407671Y-61056202D01*
X55407664Y-61056206D01*
X55292455Y-61142452D01*
X55292452Y-61142455D01*
X55206206Y-61257664D01*
X55206202Y-61257671D01*
X55155908Y-61392517D01*
X55149501Y-61452116D01*
X55149501Y-61452123D01*
X55149500Y-61452135D01*
X55149500Y-64047870D01*
X50358295Y-64047870D01*
X50322179Y-63936716D01*
X50227533Y-63772784D01*
X50100871Y-63632112D01*
X50100870Y-63632111D01*
X49947734Y-63520851D01*
X49947729Y-63520848D01*
X49774807Y-63443857D01*
X49774802Y-63443855D01*
X49629001Y-63412865D01*
X49589646Y-63404500D01*
X49400354Y-63404500D01*
X49367897Y-63411398D01*
X49215197Y-63443855D01*
X49215192Y-63443857D01*
X49042270Y-63520848D01*
X49042265Y-63520851D01*
X48889129Y-63632111D01*
X48762466Y-63772785D01*
X48667821Y-63936715D01*
X48667818Y-63936722D01*
X48631700Y-64047883D01*
X48609326Y-64116744D01*
X48589540Y-64305000D01*
X48609326Y-64493256D01*
X48609327Y-64493259D01*
X48667818Y-64673277D01*
X48667821Y-64673284D01*
X48727887Y-64777321D01*
X48744500Y-64839321D01*
X48744500Y-65160269D01*
X48724815Y-65227308D01*
X48708182Y-65247950D01*
X48587287Y-65368845D01*
X48495187Y-65518163D01*
X48495185Y-65518166D01*
X48495186Y-65518166D01*
X48440001Y-65684703D01*
X48440001Y-65684704D01*
X48440000Y-65684704D01*
X48429500Y-65787483D01*
X48429500Y-66487501D01*
X47625500Y-66487501D01*
X47625500Y-59650005D01*
X48144357Y-59650005D01*
X48164890Y-59897812D01*
X48164892Y-59897824D01*
X48225936Y-60138881D01*
X48325826Y-60366606D01*
X48461833Y-60574782D01*
X48461836Y-60574785D01*
X48630256Y-60757738D01*
X48826491Y-60910474D01*
X48826493Y-60910475D01*
X49002837Y-61005908D01*
X49045190Y-61028828D01*
X49280386Y-61109571D01*
X49525665Y-61150500D01*
X49774335Y-61150500D01*
X50019614Y-61109571D01*
X50254810Y-61028828D01*
X50473509Y-60910474D01*
X50669744Y-60757738D01*
X50838164Y-60574785D01*
X50974173Y-60366607D01*
X50974175Y-60366601D01*
X50974786Y-60365475D01*
X50975157Y-60365101D01*
X50976978Y-60362314D01*
X50977551Y-60362688D01*
X51024009Y-60315888D01*
X51083837Y-60300500D01*
X65575500Y-60300500D01*
X65642539Y-60320185D01*
X65688294Y-60372989D01*
X65699500Y-60424500D01*
X65699500Y-61737870D01*
X65699501Y-61737876D01*
X65705908Y-61797483D01*
X65750361Y-61916667D01*
X65755345Y-61986359D01*
X65750361Y-62003333D01*
X65705908Y-62122517D01*
X65699501Y-62182116D01*
X65699501Y-62182123D01*
X65699500Y-62182135D01*
X65699500Y-64277870D01*
X65699501Y-64277876D01*
X65705908Y-64337483D01*
X65750361Y-64456666D01*
X65755345Y-64526358D01*
X65750361Y-64543331D01*
X65705909Y-64662514D01*
X65705908Y-64662516D01*
X65699501Y-64722116D01*
X65699501Y-64722123D01*
X65699500Y-64722135D01*
X65699500Y-65020500D01*
X65679815Y-65087539D01*
X65627011Y-65133294D01*
X65575500Y-65144500D01*
X61312743Y-65144500D01*
X61297122Y-65142775D01*
X61297096Y-65143061D01*
X61289334Y-65142327D01*
X61289333Y-65142327D01*
X61220186Y-65144500D01*
X61190649Y-65144500D01*
X61183766Y-65145369D01*
X61177949Y-65145826D01*
X61131373Y-65147290D01*
X61112129Y-65152881D01*
X61093079Y-65156825D01*
X61073211Y-65159334D01*
X61029884Y-65176488D01*
X61024358Y-65178379D01*
X60979614Y-65191379D01*
X60979610Y-65191381D01*
X60962366Y-65201579D01*
X60944905Y-65210133D01*
X60926274Y-65217510D01*
X60926262Y-65217517D01*
X60888570Y-65244902D01*
X60883687Y-65248109D01*
X60843580Y-65271829D01*
X60829414Y-65285995D01*
X60814624Y-65298627D01*
X60798414Y-65310404D01*
X60798411Y-65310407D01*
X60768710Y-65346309D01*
X60764777Y-65350631D01*
X54036324Y-72079084D01*
X53975001Y-72112569D01*
X53905309Y-72107585D01*
X53901202Y-72105969D01*
X53851610Y-72085427D01*
X53851609Y-72085426D01*
X53851605Y-72085425D01*
X53598990Y-72024778D01*
X53598991Y-72024778D01*
X53364189Y-72006299D01*
X53340000Y-72004396D01*
X53339999Y-72004396D01*
X53081009Y-72024778D01*
X52828389Y-72085427D01*
X52588376Y-72184843D01*
X52366859Y-72320588D01*
X52169311Y-72489311D01*
X52000588Y-72686859D01*
X51864843Y-72908376D01*
X51765427Y-73148389D01*
X51704778Y-73401009D01*
X51684396Y-73660000D01*
X51704778Y-73918990D01*
X51765427Y-74171610D01*
X51864843Y-74411623D01*
X51864845Y-74411627D01*
X51864846Y-74411628D01*
X52000588Y-74633140D01*
X52169311Y-74830689D01*
X52210290Y-74865688D01*
X52227410Y-74880310D01*
X52265603Y-74938817D01*
X52266101Y-75008685D01*
X52228748Y-75067731D01*
X52165401Y-75097209D01*
X52146878Y-75098600D01*
X52017532Y-75098600D01*
X51860610Y-75113584D01*
X51860611Y-75113584D01*
X51860607Y-75113585D01*
X51658791Y-75172843D01*
X51471831Y-75269228D01*
X51306490Y-75399252D01*
X51306489Y-75399253D01*
X51168749Y-75558214D01*
X51168740Y-75558225D01*
X51063574Y-75740379D01*
X50994779Y-75939148D01*
X50994778Y-75939153D01*
X50994778Y-75939154D01*
X50964843Y-76147355D01*
X50974852Y-76357459D01*
X51024442Y-76561871D01*
X51069082Y-76659619D01*
X51111820Y-76753204D01*
X51111824Y-76753210D01*
X51233826Y-76924539D01*
X51233831Y-76924544D01*
X51386063Y-77069697D01*
X51563014Y-77183416D01*
X51758288Y-77261593D01*
X51887084Y-77286416D01*
X51964828Y-77301400D01*
X51964829Y-77301400D01*
X52122461Y-77301400D01*
X52122468Y-77301400D01*
X52279389Y-77286416D01*
X52481211Y-77227156D01*
X52668170Y-77130771D01*
X52833510Y-77000747D01*
X52971255Y-76841781D01*
X53076426Y-76659619D01*
X53145222Y-76460846D01*
X53171919Y-76275167D01*
X54901833Y-76275167D01*
X54931910Y-76574142D01*
X54931911Y-76574149D01*
X55001568Y-76866441D01*
X55001571Y-76866453D01*
X55109566Y-77146853D01*
X55109573Y-77146868D01*
X55253979Y-77410375D01*
X55253983Y-77410381D01*
X55345296Y-77534312D01*
X55432223Y-77652290D01*
X55641121Y-77868289D01*
X55876946Y-78054518D01*
X56135487Y-78207652D01*
X56412133Y-78324960D01*
X56412136Y-78324960D01*
X56412139Y-78324962D01*
X56557039Y-78364654D01*
X56701946Y-78404348D01*
X56999755Y-78444400D01*
X56999760Y-78444400D01*
X57225041Y-78444400D01*
X57388513Y-78433456D01*
X57449819Y-78429352D01*
X57744287Y-78369499D01*
X58028151Y-78270931D01*
X58296343Y-78135407D01*
X58544080Y-77965346D01*
X58766939Y-77763782D01*
X58960943Y-77534312D01*
X59122631Y-77281032D01*
X59249118Y-77008460D01*
X59338146Y-76721462D01*
X59388126Y-76425158D01*
X59397414Y-76147355D01*
X61124843Y-76147355D01*
X61134852Y-76357459D01*
X61184442Y-76561871D01*
X61229082Y-76659619D01*
X61271820Y-76753204D01*
X61271824Y-76753210D01*
X61393826Y-76924539D01*
X61393831Y-76924544D01*
X61546063Y-77069697D01*
X61723014Y-77183416D01*
X61918288Y-77261593D01*
X62047084Y-77286416D01*
X62124828Y-77301400D01*
X62124829Y-77301400D01*
X62282461Y-77301400D01*
X62282468Y-77301400D01*
X62439389Y-77286416D01*
X62641211Y-77227156D01*
X62828170Y-77130771D01*
X62993510Y-77000747D01*
X63131255Y-76841781D01*
X63236426Y-76659619D01*
X63305222Y-76460846D01*
X63335157Y-76252645D01*
X63331379Y-76173337D01*
X63819500Y-76173337D01*
X63819501Y-76173355D01*
X63829650Y-76272707D01*
X63829651Y-76272710D01*
X63882996Y-76433694D01*
X63883001Y-76433705D01*
X63972029Y-76578040D01*
X63972032Y-76578044D01*
X64091955Y-76697967D01*
X64091959Y-76697970D01*
X64236294Y-76786998D01*
X64236297Y-76786999D01*
X64236303Y-76787003D01*
X64397292Y-76840349D01*
X64496655Y-76850500D01*
X65343344Y-76850499D01*
X65343352Y-76850498D01*
X65343355Y-76850498D01*
X65428689Y-76841781D01*
X65442708Y-76840349D01*
X65603697Y-76787003D01*
X65748044Y-76697968D01*
X65867968Y-76578044D01*
X65957003Y-76433697D01*
X66010349Y-76272708D01*
X66020500Y-76173345D01*
X66020499Y-75735451D01*
X66040183Y-75668413D01*
X66056813Y-75647776D01*
X68857771Y-72846819D01*
X68919095Y-72813334D01*
X68945453Y-72810500D01*
X70769807Y-72810500D01*
X70836846Y-72830185D01*
X70882601Y-72882989D01*
X70892545Y-72952147D01*
X70884368Y-72981950D01*
X70866042Y-73026195D01*
X70815427Y-73148389D01*
X70754778Y-73401009D01*
X70734396Y-73660000D01*
X70754778Y-73918990D01*
X70815427Y-74171610D01*
X70914843Y-74411623D01*
X70914845Y-74411627D01*
X70914846Y-74411628D01*
X71050588Y-74633140D01*
X71219311Y-74830689D01*
X71260290Y-74865688D01*
X71277410Y-74880310D01*
X71315603Y-74938817D01*
X71316101Y-75008685D01*
X71278748Y-75067731D01*
X71215401Y-75097209D01*
X71196878Y-75098600D01*
X71067532Y-75098600D01*
X70910611Y-75113584D01*
X70910607Y-75113585D01*
X70708791Y-75172843D01*
X70521831Y-75269228D01*
X70356490Y-75399252D01*
X70356489Y-75399253D01*
X70218749Y-75558214D01*
X70218740Y-75558225D01*
X70113574Y-75740379D01*
X70044779Y-75939148D01*
X70044778Y-75939153D01*
X70044778Y-75939154D01*
X70014843Y-76147355D01*
X70024852Y-76357459D01*
X70074442Y-76561871D01*
X70119082Y-76659619D01*
X70161820Y-76753204D01*
X70161824Y-76753210D01*
X70283826Y-76924539D01*
X70283831Y-76924544D01*
X70436063Y-77069697D01*
X70613014Y-77183416D01*
X70808288Y-77261593D01*
X70937084Y-77286416D01*
X71014828Y-77301400D01*
X71014829Y-77301400D01*
X71172461Y-77301400D01*
X71172468Y-77301400D01*
X71329389Y-77286416D01*
X71531211Y-77227156D01*
X71718170Y-77130771D01*
X71883510Y-77000747D01*
X72021255Y-76841781D01*
X72126426Y-76659619D01*
X72195222Y-76460846D01*
X72225157Y-76252645D01*
X72215148Y-76042541D01*
X72165558Y-75838129D01*
X72078179Y-75646795D01*
X72075047Y-75642397D01*
X71957449Y-75477253D01*
X71934596Y-75411226D01*
X71951069Y-75343326D01*
X72001636Y-75295110D01*
X72070243Y-75281887D01*
X72087387Y-75284749D01*
X72131006Y-75295221D01*
X72390000Y-75315604D01*
X72648994Y-75295221D01*
X72901610Y-75234573D01*
X73141628Y-75135154D01*
X73363140Y-74999412D01*
X73560689Y-74830689D01*
X73729412Y-74633140D01*
X73865154Y-74411628D01*
X73964573Y-74171610D01*
X74025221Y-73918994D01*
X74045604Y-73660000D01*
X74025221Y-73401006D01*
X73964573Y-73148390D01*
X73895631Y-72981951D01*
X73888163Y-72912484D01*
X73919438Y-72850004D01*
X73979527Y-72814352D01*
X74010193Y-72810500D01*
X74694548Y-72810500D01*
X74761587Y-72830185D01*
X74782229Y-72846819D01*
X75444194Y-73508784D01*
X75454019Y-73521048D01*
X75454240Y-73520866D01*
X75459210Y-73526873D01*
X75459213Y-73526876D01*
X75459214Y-73526877D01*
X75509651Y-73574241D01*
X75530530Y-73595120D01*
X75536004Y-73599366D01*
X75540442Y-73603156D01*
X75574418Y-73635062D01*
X75574422Y-73635064D01*
X75591973Y-73644713D01*
X75608231Y-73655392D01*
X75624064Y-73667674D01*
X75646015Y-73677172D01*
X75666837Y-73686183D01*
X75672081Y-73688752D01*
X75712908Y-73711197D01*
X75732312Y-73716179D01*
X75750710Y-73722478D01*
X75769105Y-73730438D01*
X75815133Y-73737727D01*
X75820840Y-73738908D01*
X75830975Y-73741511D01*
X75837137Y-73743094D01*
X75897173Y-73778835D01*
X75928354Y-73841361D01*
X75920782Y-73910819D01*
X75876860Y-73965157D01*
X75830991Y-73984711D01*
X75605710Y-74030501D01*
X75321847Y-74129069D01*
X75321844Y-74129071D01*
X75053662Y-74264589D01*
X74805918Y-74434655D01*
X74583062Y-74636216D01*
X74389058Y-74865686D01*
X74389056Y-74865688D01*
X74227366Y-75118972D01*
X74116500Y-75357884D01*
X74100882Y-75391540D01*
X74067771Y-75498276D01*
X74011854Y-75678535D01*
X73984935Y-75838127D01*
X73961874Y-75974842D01*
X73955238Y-76173337D01*
X73951833Y-76275167D01*
X73981910Y-76574142D01*
X73981911Y-76574149D01*
X74051568Y-76866441D01*
X74051571Y-76866453D01*
X74159566Y-77146853D01*
X74159573Y-77146868D01*
X74303979Y-77410375D01*
X74303983Y-77410381D01*
X74395296Y-77534312D01*
X74482223Y-77652290D01*
X74691121Y-77868289D01*
X74926946Y-78054518D01*
X75185487Y-78207652D01*
X75462133Y-78324960D01*
X75462136Y-78324960D01*
X75462139Y-78324962D01*
X75607039Y-78364654D01*
X75751946Y-78404348D01*
X76049755Y-78444400D01*
X76049760Y-78444400D01*
X76275041Y-78444400D01*
X76438513Y-78433456D01*
X76499819Y-78429352D01*
X76794287Y-78369499D01*
X77078151Y-78270931D01*
X77346343Y-78135407D01*
X77594080Y-77965346D01*
X77816939Y-77763782D01*
X78010943Y-77534312D01*
X78172631Y-77281032D01*
X78299118Y-77008460D01*
X78388146Y-76721462D01*
X78438126Y-76425158D01*
X78447414Y-76147355D01*
X80174843Y-76147355D01*
X80184852Y-76357459D01*
X80234442Y-76561871D01*
X80279082Y-76659619D01*
X80321820Y-76753204D01*
X80321824Y-76753210D01*
X80443826Y-76924539D01*
X80443831Y-76924544D01*
X80596063Y-77069697D01*
X80773014Y-77183416D01*
X80968288Y-77261593D01*
X81097084Y-77286416D01*
X81174828Y-77301400D01*
X81174829Y-77301400D01*
X81332461Y-77301400D01*
X81332468Y-77301400D01*
X81489389Y-77286416D01*
X81691211Y-77227156D01*
X81878170Y-77130771D01*
X82043510Y-77000747D01*
X82181255Y-76841781D01*
X82286426Y-76659619D01*
X82355222Y-76460846D01*
X82385157Y-76252645D01*
X82375148Y-76042541D01*
X82325558Y-75838129D01*
X82238179Y-75646795D01*
X82235047Y-75642397D01*
X82116173Y-75475460D01*
X82116167Y-75475454D01*
X81963939Y-75330305D01*
X81963937Y-75330303D01*
X81786986Y-75216584D01*
X81786984Y-75216583D01*
X81591721Y-75138410D01*
X81591714Y-75138407D01*
X81591712Y-75138407D01*
X81591709Y-75138406D01*
X81591708Y-75138406D01*
X81385172Y-75098600D01*
X81385171Y-75098600D01*
X81227532Y-75098600D01*
X81070611Y-75113584D01*
X81070607Y-75113585D01*
X80868791Y-75172843D01*
X80681831Y-75269228D01*
X80516490Y-75399252D01*
X80516489Y-75399253D01*
X80378749Y-75558214D01*
X80378740Y-75558225D01*
X80273574Y-75740379D01*
X80204779Y-75939148D01*
X80204778Y-75939153D01*
X80204778Y-75939154D01*
X80174843Y-76147355D01*
X78447414Y-76147355D01*
X78448167Y-76124836D01*
X78418089Y-75825855D01*
X78348430Y-75533551D01*
X78240431Y-75253140D01*
X78096021Y-74989625D01*
X78066457Y-74949501D01*
X78035801Y-74907894D01*
X77917777Y-74747710D01*
X77708879Y-74531711D01*
X77708872Y-74531705D01*
X77520465Y-74382922D01*
X77473054Y-74345482D01*
X77214513Y-74192348D01*
X76937867Y-74075040D01*
X76937860Y-74075037D01*
X76683035Y-74005234D01*
X76648054Y-73995652D01*
X76648052Y-73995651D01*
X76644056Y-73994557D01*
X76644437Y-73993162D01*
X76588058Y-73963365D01*
X76553742Y-73902503D01*
X76557779Y-73832750D01*
X76598886Y-73776252D01*
X76664012Y-73750948D01*
X76674539Y-73750500D01*
X82434548Y-73750500D01*
X82501587Y-73770185D01*
X82522229Y-73786819D01*
X83308181Y-74572771D01*
X83341666Y-74634094D01*
X83344500Y-74660453D01*
X83344499Y-74907894D01*
X83324814Y-74974933D01*
X83285597Y-75013431D01*
X83141956Y-75102031D01*
X83022032Y-75221955D01*
X83022029Y-75221959D01*
X82933001Y-75366294D01*
X82932996Y-75366305D01*
X82879651Y-75527290D01*
X82869500Y-75626647D01*
X82869500Y-76173337D01*
X82869501Y-76173355D01*
X82879650Y-76272707D01*
X82879651Y-76272710D01*
X82932996Y-76433694D01*
X82933001Y-76433705D01*
X83022029Y-76578040D01*
X83022032Y-76578044D01*
X83141955Y-76697967D01*
X83141959Y-76697970D01*
X83286294Y-76786998D01*
X83286297Y-76786999D01*
X83286303Y-76787003D01*
X83447292Y-76840349D01*
X83546655Y-76850500D01*
X84393344Y-76850499D01*
X84393352Y-76850498D01*
X84393355Y-76850498D01*
X84478689Y-76841781D01*
X84492708Y-76840349D01*
X84653697Y-76787003D01*
X84798044Y-76697968D01*
X84917968Y-76578044D01*
X85007003Y-76433697D01*
X85060349Y-76272708D01*
X85070500Y-76173345D01*
X85070499Y-75626656D01*
X85068248Y-75604623D01*
X85060349Y-75527292D01*
X85060348Y-75527289D01*
X85043172Y-75475454D01*
X85007003Y-75366303D01*
X85006999Y-75366297D01*
X85006998Y-75366294D01*
X84917970Y-75221959D01*
X84917967Y-75221955D01*
X84798043Y-75102031D01*
X84654402Y-75013431D01*
X84607678Y-74961483D01*
X84595500Y-74907893D01*
X84595500Y-74900451D01*
X84615185Y-74833412D01*
X84631814Y-74812775D01*
X86597771Y-72846819D01*
X86659094Y-72813334D01*
X86685452Y-72810500D01*
X89819807Y-72810500D01*
X89886846Y-72830185D01*
X89932601Y-72882989D01*
X89942545Y-72952147D01*
X89934368Y-72981950D01*
X89916042Y-73026195D01*
X89865427Y-73148389D01*
X89804778Y-73401009D01*
X89784396Y-73659999D01*
X89804778Y-73918990D01*
X89865427Y-74171610D01*
X89964843Y-74411623D01*
X89964845Y-74411627D01*
X89964846Y-74411628D01*
X90100588Y-74633140D01*
X90269311Y-74830689D01*
X90310290Y-74865688D01*
X90327410Y-74880310D01*
X90365603Y-74938817D01*
X90366101Y-75008685D01*
X90328748Y-75067731D01*
X90265401Y-75097209D01*
X90246878Y-75098600D01*
X90117532Y-75098600D01*
X89960610Y-75113584D01*
X89960611Y-75113584D01*
X89960607Y-75113585D01*
X89758791Y-75172843D01*
X89571831Y-75269228D01*
X89406490Y-75399252D01*
X89406489Y-75399253D01*
X89268749Y-75558214D01*
X89268740Y-75558225D01*
X89163574Y-75740379D01*
X89094779Y-75939148D01*
X89094778Y-75939153D01*
X89094778Y-75939154D01*
X89064843Y-76147355D01*
X89074852Y-76357459D01*
X89124442Y-76561871D01*
X89169082Y-76659619D01*
X89211820Y-76753204D01*
X89211824Y-76753210D01*
X89333826Y-76924539D01*
X89333831Y-76924544D01*
X89486063Y-77069697D01*
X89663014Y-77183416D01*
X89858288Y-77261593D01*
X89987084Y-77286416D01*
X90064828Y-77301400D01*
X90064829Y-77301400D01*
X90222461Y-77301400D01*
X90222468Y-77301400D01*
X90379389Y-77286416D01*
X90581211Y-77227156D01*
X90768170Y-77130771D01*
X90933510Y-77000747D01*
X91071255Y-76841781D01*
X91176426Y-76659619D01*
X91245222Y-76460846D01*
X91275157Y-76252645D01*
X91265148Y-76042541D01*
X91215558Y-75838129D01*
X91128179Y-75646795D01*
X91125047Y-75642397D01*
X91007449Y-75477253D01*
X90984596Y-75411226D01*
X91001069Y-75343326D01*
X91051636Y-75295110D01*
X91120243Y-75281887D01*
X91137387Y-75284749D01*
X91181006Y-75295221D01*
X91440000Y-75315604D01*
X91698994Y-75295221D01*
X91951610Y-75234573D01*
X92191628Y-75135154D01*
X92413140Y-74999412D01*
X92610689Y-74830689D01*
X92779412Y-74633140D01*
X92915154Y-74411628D01*
X93014573Y-74171610D01*
X93075221Y-73918994D01*
X93095604Y-73660000D01*
X93075221Y-73401006D01*
X93019381Y-73168417D01*
X93022872Y-73098639D01*
X93063535Y-73041822D01*
X93128461Y-73016008D01*
X93190390Y-73026194D01*
X93235197Y-73046144D01*
X93420354Y-73085500D01*
X93479548Y-73085500D01*
X93546587Y-73105185D01*
X93567229Y-73121819D01*
X94214197Y-73768788D01*
X94224022Y-73781051D01*
X94224243Y-73780869D01*
X94229214Y-73786878D01*
X94255217Y-73811295D01*
X94279635Y-73834226D01*
X94300529Y-73855120D01*
X94306011Y-73859373D01*
X94310443Y-73863157D01*
X94344418Y-73895062D01*
X94361976Y-73904714D01*
X94378236Y-73915395D01*
X94385935Y-73921368D01*
X94387560Y-73922628D01*
X94428464Y-73979273D01*
X94432251Y-74049040D01*
X94397717Y-74109779D01*
X94367480Y-74131276D01*
X94103662Y-74264589D01*
X93855918Y-74434655D01*
X93633062Y-74636216D01*
X93439058Y-74865686D01*
X93439056Y-74865688D01*
X93277366Y-75118972D01*
X93166500Y-75357884D01*
X93150882Y-75391540D01*
X93117771Y-75498276D01*
X93061854Y-75678535D01*
X93034935Y-75838127D01*
X93011874Y-75974842D01*
X93005238Y-76173337D01*
X93001833Y-76275167D01*
X93031910Y-76574142D01*
X93031911Y-76574149D01*
X93101568Y-76866441D01*
X93101571Y-76866453D01*
X93209566Y-77146853D01*
X93209573Y-77146868D01*
X93353979Y-77410375D01*
X93353983Y-77410381D01*
X93445296Y-77534312D01*
X93532223Y-77652290D01*
X93741121Y-77868289D01*
X93976946Y-78054518D01*
X94235487Y-78207652D01*
X94512133Y-78324960D01*
X94512136Y-78324960D01*
X94512139Y-78324962D01*
X94657039Y-78364654D01*
X94801946Y-78404348D01*
X95099755Y-78444400D01*
X95099760Y-78444400D01*
X95325041Y-78444400D01*
X95488513Y-78433456D01*
X95549819Y-78429352D01*
X95844287Y-78369499D01*
X96128151Y-78270931D01*
X96396343Y-78135407D01*
X96644080Y-77965346D01*
X96866939Y-77763782D01*
X97060943Y-77534312D01*
X97222631Y-77281032D01*
X97349118Y-77008460D01*
X97438146Y-76721462D01*
X97488126Y-76425158D01*
X97498167Y-76124836D01*
X97468089Y-75825855D01*
X97398430Y-75533551D01*
X97301406Y-75281637D01*
X97295681Y-75212005D01*
X97328512Y-75150329D01*
X97389475Y-75116194D01*
X97459216Y-75120437D01*
X97504802Y-75149392D01*
X97713294Y-75357884D01*
X97723119Y-75370148D01*
X97723340Y-75369966D01*
X97728310Y-75375973D01*
X97728313Y-75375976D01*
X97728314Y-75375977D01*
X97778751Y-75423341D01*
X97799630Y-75444220D01*
X97805104Y-75448466D01*
X97809542Y-75452256D01*
X97843518Y-75484162D01*
X97843522Y-75484164D01*
X97861073Y-75493813D01*
X97877331Y-75504492D01*
X97893164Y-75516774D01*
X97915115Y-75526272D01*
X97935937Y-75535283D01*
X97941181Y-75537852D01*
X97982008Y-75560297D01*
X98001412Y-75565279D01*
X98019810Y-75571578D01*
X98038205Y-75579538D01*
X98084229Y-75586826D01*
X98089932Y-75588007D01*
X98135081Y-75599600D01*
X98155116Y-75599600D01*
X98174513Y-75601126D01*
X98194296Y-75604260D01*
X98240683Y-75599875D01*
X98246522Y-75599600D01*
X99198165Y-75599600D01*
X99265204Y-75619285D01*
X99310959Y-75672089D01*
X99320903Y-75741247D01*
X99315345Y-75764156D01*
X99254779Y-75939148D01*
X99254778Y-75939153D01*
X99254778Y-75939154D01*
X99224843Y-76147355D01*
X99234852Y-76357459D01*
X99284442Y-76561871D01*
X99329082Y-76659619D01*
X99371820Y-76753204D01*
X99371824Y-76753210D01*
X99493826Y-76924539D01*
X99493831Y-76924544D01*
X99646063Y-77069697D01*
X99823014Y-77183416D01*
X100018288Y-77261593D01*
X100147084Y-77286416D01*
X100224828Y-77301400D01*
X100224829Y-77301400D01*
X100382461Y-77301400D01*
X100382468Y-77301400D01*
X100539389Y-77286416D01*
X100741211Y-77227156D01*
X100928170Y-77130771D01*
X101093510Y-77000747D01*
X101231255Y-76841781D01*
X101336426Y-76659619D01*
X101405222Y-76460846D01*
X101435157Y-76252645D01*
X101425148Y-76042541D01*
X101375558Y-75838129D01*
X101346779Y-75775111D01*
X101336835Y-75705953D01*
X101365860Y-75642397D01*
X101424638Y-75604623D01*
X101459573Y-75599600D01*
X101783648Y-75599600D01*
X101850687Y-75619285D01*
X101871329Y-75635919D01*
X101883181Y-75647771D01*
X101916666Y-75709094D01*
X101919500Y-75735452D01*
X101919500Y-76173337D01*
X101919501Y-76173355D01*
X101929650Y-76272707D01*
X101929651Y-76272710D01*
X101982996Y-76433694D01*
X101983001Y-76433705D01*
X102072029Y-76578040D01*
X102072032Y-76578044D01*
X102191955Y-76697967D01*
X102191959Y-76697970D01*
X102336294Y-76786998D01*
X102336297Y-76786999D01*
X102336303Y-76787003D01*
X102497292Y-76840349D01*
X102596655Y-76850500D01*
X103443344Y-76850499D01*
X103443352Y-76850498D01*
X103443355Y-76850498D01*
X103528689Y-76841781D01*
X103542708Y-76840349D01*
X103703697Y-76787003D01*
X103848044Y-76697968D01*
X103967968Y-76578044D01*
X104057003Y-76433697D01*
X104110349Y-76272708D01*
X104120500Y-76173345D01*
X104120499Y-75626656D01*
X104118248Y-75604623D01*
X104110349Y-75527292D01*
X104110348Y-75527289D01*
X104093172Y-75475454D01*
X104057003Y-75366303D01*
X104056999Y-75366297D01*
X104056998Y-75366294D01*
X103967970Y-75221959D01*
X103967967Y-75221955D01*
X103848044Y-75102032D01*
X103848040Y-75102029D01*
X103703705Y-75013001D01*
X103703699Y-75012998D01*
X103703697Y-75012997D01*
X103662697Y-74999411D01*
X103542709Y-74959651D01*
X103443352Y-74949500D01*
X103443345Y-74949500D01*
X103005453Y-74949500D01*
X102938414Y-74929815D01*
X102917772Y-74913181D01*
X102594903Y-74590312D01*
X102585080Y-74578050D01*
X102584859Y-74578234D01*
X102579886Y-74572223D01*
X102529464Y-74524873D01*
X102519019Y-74514428D01*
X102508575Y-74503983D01*
X102503086Y-74499725D01*
X102498661Y-74495947D01*
X102464682Y-74464038D01*
X102464680Y-74464036D01*
X102464677Y-74464035D01*
X102447129Y-74454388D01*
X102430863Y-74443704D01*
X102415033Y-74431425D01*
X102372268Y-74412918D01*
X102367022Y-74410348D01*
X102326193Y-74387903D01*
X102326192Y-74387902D01*
X102306793Y-74382922D01*
X102288381Y-74376618D01*
X102269998Y-74368662D01*
X102269992Y-74368660D01*
X102223974Y-74361372D01*
X102218252Y-74360187D01*
X102173121Y-74348600D01*
X102173119Y-74348600D01*
X102153084Y-74348600D01*
X102133686Y-74347073D01*
X102126262Y-74345897D01*
X102113905Y-74343940D01*
X102113904Y-74343940D01*
X102067516Y-74348325D01*
X102061678Y-74348600D01*
X98524552Y-74348600D01*
X98457513Y-74328915D01*
X98436871Y-74312281D01*
X97792264Y-73667674D01*
X97125803Y-73001212D01*
X97115980Y-72988950D01*
X97115759Y-72989134D01*
X97110786Y-72983123D01*
X97099695Y-72972708D01*
X97060364Y-72935773D01*
X97049919Y-72925328D01*
X97039475Y-72914883D01*
X97033986Y-72910625D01*
X97029561Y-72906847D01*
X96995582Y-72874938D01*
X96995580Y-72874936D01*
X96995577Y-72874935D01*
X96978029Y-72865288D01*
X96961763Y-72854604D01*
X96945933Y-72842325D01*
X96903168Y-72823818D01*
X96897922Y-72821248D01*
X96857093Y-72798803D01*
X96857092Y-72798802D01*
X96837693Y-72793822D01*
X96819281Y-72787518D01*
X96800898Y-72779562D01*
X96800892Y-72779560D01*
X96754874Y-72772272D01*
X96749152Y-72771087D01*
X96704021Y-72759500D01*
X96704019Y-72759500D01*
X96683984Y-72759500D01*
X96664586Y-72757973D01*
X96647210Y-72755221D01*
X96644805Y-72754840D01*
X96644804Y-72754840D01*
X96598416Y-72759225D01*
X96592578Y-72759500D01*
X95025453Y-72759500D01*
X94958414Y-72739815D01*
X94937772Y-72723181D01*
X94453960Y-72239369D01*
X94420475Y-72178046D01*
X94418323Y-72164668D01*
X94400674Y-71996744D01*
X94342179Y-71816716D01*
X94247533Y-71652784D01*
X94120871Y-71512112D01*
X94120870Y-71512111D01*
X93967734Y-71400851D01*
X93967729Y-71400848D01*
X93794807Y-71323857D01*
X93794802Y-71323855D01*
X93649000Y-71292865D01*
X93609646Y-71284500D01*
X93420354Y-71284500D01*
X93387897Y-71291398D01*
X93235197Y-71323855D01*
X93235192Y-71323857D01*
X93062270Y-71400848D01*
X93062265Y-71400851D01*
X92909130Y-71512110D01*
X92909126Y-71512114D01*
X92903400Y-71518474D01*
X92843913Y-71555121D01*
X92811252Y-71559500D01*
X86457743Y-71559500D01*
X86442122Y-71557775D01*
X86442095Y-71558061D01*
X86434333Y-71557326D01*
X86365172Y-71559500D01*
X86335649Y-71559500D01*
X86328778Y-71560367D01*
X86322959Y-71560825D01*
X86276374Y-71562289D01*
X86276368Y-71562290D01*
X86257126Y-71567880D01*
X86238087Y-71571823D01*
X86218217Y-71574334D01*
X86218203Y-71574337D01*
X86174883Y-71591488D01*
X86169358Y-71593380D01*
X86124613Y-71606380D01*
X86124610Y-71606381D01*
X86107366Y-71616579D01*
X86089905Y-71625133D01*
X86071274Y-71632510D01*
X86071262Y-71632517D01*
X86033570Y-71659902D01*
X86028687Y-71663109D01*
X85988580Y-71686829D01*
X85974414Y-71700995D01*
X85959624Y-71713627D01*
X85943414Y-71725404D01*
X85943411Y-71725407D01*
X85913710Y-71761309D01*
X85909777Y-71765631D01*
X85280809Y-72394599D01*
X85219486Y-72428084D01*
X85149794Y-72423100D01*
X85093861Y-72381228D01*
X85069770Y-72319519D01*
X85069388Y-72315783D01*
X85060349Y-72227292D01*
X85007003Y-72066303D01*
X85006999Y-72066297D01*
X85006998Y-72066294D01*
X84917970Y-71921959D01*
X84917967Y-71921955D01*
X84798044Y-71802032D01*
X84798040Y-71802029D01*
X84653705Y-71713001D01*
X84653699Y-71712998D01*
X84653697Y-71712997D01*
X84574727Y-71686829D01*
X84492709Y-71659651D01*
X84393346Y-71649500D01*
X83546662Y-71649500D01*
X83546644Y-71649501D01*
X83447292Y-71659650D01*
X83447289Y-71659651D01*
X83286305Y-71712996D01*
X83286294Y-71713001D01*
X83141959Y-71802029D01*
X83022032Y-71921955D01*
X83017724Y-71927405D01*
X82960704Y-71967785D01*
X82920453Y-71974500D01*
X80530452Y-71974500D01*
X80463413Y-71954815D01*
X80442771Y-71938181D01*
X80320915Y-71816325D01*
X80287430Y-71755002D01*
X80292414Y-71685310D01*
X80294018Y-71681231D01*
X80314573Y-71631610D01*
X80375221Y-71378994D01*
X80395604Y-71120000D01*
X96134396Y-71120000D01*
X96154778Y-71378990D01*
X96215427Y-71631610D01*
X96314843Y-71871623D01*
X96314845Y-71871627D01*
X96314846Y-71871628D01*
X96450588Y-72093140D01*
X96619311Y-72290689D01*
X96816860Y-72459412D01*
X97038372Y-72595154D01*
X97038374Y-72595154D01*
X97038376Y-72595156D01*
X97099693Y-72620554D01*
X97278390Y-72694573D01*
X97531006Y-72755221D01*
X97790000Y-72775604D01*
X98048994Y-72755221D01*
X98301610Y-72694573D01*
X98351192Y-72674034D01*
X98420660Y-72666566D01*
X98483139Y-72697840D01*
X98486320Y-72700910D01*
X98632228Y-72846819D01*
X98769197Y-72983788D01*
X98779022Y-72996051D01*
X98779243Y-72995869D01*
X98784214Y-73001878D01*
X98810110Y-73026195D01*
X98834635Y-73049226D01*
X98855529Y-73070120D01*
X98861011Y-73074373D01*
X98865443Y-73078157D01*
X98899418Y-73110062D01*
X98916976Y-73119714D01*
X98933233Y-73130393D01*
X98949064Y-73142673D01*
X98968737Y-73151186D01*
X98991833Y-73161182D01*
X98997077Y-73163750D01*
X99037908Y-73186197D01*
X99050523Y-73189435D01*
X99057305Y-73191177D01*
X99075719Y-73197481D01*
X99094104Y-73205438D01*
X99140157Y-73212732D01*
X99145826Y-73213906D01*
X99190981Y-73225500D01*
X99211016Y-73225500D01*
X99230413Y-73227026D01*
X99250196Y-73230160D01*
X99296583Y-73225775D01*
X99302422Y-73225500D01*
X101970453Y-73225500D01*
X102037492Y-73245185D01*
X102067724Y-73272595D01*
X102072032Y-73278044D01*
X102191956Y-73397968D01*
X102191958Y-73397969D01*
X102191959Y-73397970D01*
X102336294Y-73486998D01*
X102336297Y-73486999D01*
X102336303Y-73487003D01*
X102497292Y-73540349D01*
X102596655Y-73550500D01*
X103443344Y-73550499D01*
X103443352Y-73550498D01*
X103443355Y-73550498D01*
X103497760Y-73544940D01*
X103542708Y-73540349D01*
X103703697Y-73487003D01*
X103848044Y-73397968D01*
X103967968Y-73278044D01*
X104057003Y-73133697D01*
X104110349Y-72972708D01*
X104120500Y-72873345D01*
X104120499Y-72326656D01*
X104110349Y-72227292D01*
X104057003Y-72066303D01*
X104056999Y-72066297D01*
X104056998Y-72066294D01*
X103967970Y-71921959D01*
X103967967Y-71921955D01*
X103848044Y-71802032D01*
X103848040Y-71802029D01*
X103703705Y-71713001D01*
X103703699Y-71712998D01*
X103703697Y-71712997D01*
X103624727Y-71686829D01*
X103542709Y-71659651D01*
X103443346Y-71649500D01*
X102596662Y-71649500D01*
X102596644Y-71649501D01*
X102497292Y-71659650D01*
X102497289Y-71659651D01*
X102336305Y-71712996D01*
X102336294Y-71713001D01*
X102191959Y-71802029D01*
X102072032Y-71921955D01*
X102067724Y-71927405D01*
X102010704Y-71967785D01*
X101970453Y-71974500D01*
X99580452Y-71974500D01*
X99513413Y-71954815D01*
X99492771Y-71938181D01*
X99370915Y-71816325D01*
X99337430Y-71755002D01*
X99342414Y-71685310D01*
X99344018Y-71681231D01*
X99364573Y-71631610D01*
X99425221Y-71378994D01*
X99445604Y-71120000D01*
X99425221Y-70861006D01*
X99364573Y-70608390D01*
X99265154Y-70368372D01*
X99129412Y-70146860D01*
X98960689Y-69949311D01*
X98763140Y-69780588D01*
X98541628Y-69644846D01*
X98541627Y-69644845D01*
X98541623Y-69644843D01*
X98375627Y-69576086D01*
X98301610Y-69545427D01*
X98301611Y-69545427D01*
X98163921Y-69512370D01*
X98048994Y-69484779D01*
X98048992Y-69484778D01*
X98048991Y-69484778D01*
X97814189Y-69466299D01*
X97790000Y-69464396D01*
X97789999Y-69464396D01*
X97531009Y-69484778D01*
X97278389Y-69545427D01*
X97038376Y-69644843D01*
X96816859Y-69780588D01*
X96619311Y-69949311D01*
X96450588Y-70146859D01*
X96314843Y-70368376D01*
X96215427Y-70608389D01*
X96154778Y-70861009D01*
X96134396Y-71120000D01*
X80395604Y-71120000D01*
X80375221Y-70861006D01*
X80314573Y-70608390D01*
X80215154Y-70368372D01*
X80079412Y-70146860D01*
X79910689Y-69949311D01*
X79713140Y-69780588D01*
X79491628Y-69644846D01*
X79491627Y-69644845D01*
X79491623Y-69644843D01*
X79325627Y-69576086D01*
X79251610Y-69545427D01*
X79251611Y-69545427D01*
X79113921Y-69512370D01*
X78998994Y-69484779D01*
X78998992Y-69484778D01*
X78998991Y-69484778D01*
X78764189Y-69466299D01*
X78740000Y-69464396D01*
X78739999Y-69464396D01*
X78481009Y-69484778D01*
X78228389Y-69545427D01*
X77988376Y-69644843D01*
X77766859Y-69780588D01*
X77569311Y-69949311D01*
X77400588Y-70146859D01*
X77264843Y-70368376D01*
X77165427Y-70608389D01*
X77104778Y-70861009D01*
X77084396Y-71120000D01*
X77104778Y-71378990D01*
X77165427Y-71631610D01*
X77264843Y-71871623D01*
X77264845Y-71871627D01*
X77264846Y-71871628D01*
X77400588Y-72093140D01*
X77569310Y-72290688D01*
X77572475Y-72294393D01*
X77570808Y-72295816D01*
X77599926Y-72349142D01*
X77594942Y-72418834D01*
X77553070Y-72474767D01*
X77487606Y-72499184D01*
X77478760Y-72499500D01*
X76255452Y-72499500D01*
X76188413Y-72479815D01*
X76167771Y-72463181D01*
X75842261Y-72137671D01*
X75505803Y-71801212D01*
X75495980Y-71788950D01*
X75495759Y-71789134D01*
X75490786Y-71783123D01*
X75472159Y-71765631D01*
X75440364Y-71735773D01*
X75429919Y-71725328D01*
X75419475Y-71714883D01*
X75413986Y-71710625D01*
X75409561Y-71706847D01*
X75375582Y-71674938D01*
X75375580Y-71674936D01*
X75375577Y-71674935D01*
X75358029Y-71665288D01*
X75341763Y-71654604D01*
X75339417Y-71652784D01*
X75325936Y-71642327D01*
X75325935Y-71642326D01*
X75325933Y-71642325D01*
X75283168Y-71623818D01*
X75277922Y-71621248D01*
X75237093Y-71598803D01*
X75237092Y-71598802D01*
X75217693Y-71593822D01*
X75199281Y-71587518D01*
X75180898Y-71579562D01*
X75180892Y-71579560D01*
X75134874Y-71572272D01*
X75129152Y-71571087D01*
X75084021Y-71559500D01*
X75084019Y-71559500D01*
X75063984Y-71559500D01*
X75044586Y-71557973D01*
X75037162Y-71556797D01*
X75024805Y-71554840D01*
X75024804Y-71554840D01*
X74978416Y-71559225D01*
X74972578Y-71559500D01*
X68717737Y-71559500D01*
X68702120Y-71557776D01*
X68702093Y-71558062D01*
X68694331Y-71557327D01*
X68625203Y-71559500D01*
X68595650Y-71559500D01*
X68594929Y-71559590D01*
X68588757Y-71560369D01*
X68582945Y-71560826D01*
X68536372Y-71562290D01*
X68536369Y-71562291D01*
X68517126Y-71567881D01*
X68498083Y-71571825D01*
X68478204Y-71574336D01*
X68478203Y-71574337D01*
X68434878Y-71591490D01*
X68429352Y-71593382D01*
X68384608Y-71606383D01*
X68384604Y-71606385D01*
X68367365Y-71616580D01*
X68349898Y-71625137D01*
X68331269Y-71632512D01*
X68331267Y-71632513D01*
X68293564Y-71659906D01*
X68288682Y-71663112D01*
X68248580Y-71686828D01*
X68234408Y-71701000D01*
X68219623Y-71713628D01*
X68203412Y-71725407D01*
X68173709Y-71761310D01*
X68169777Y-71765631D01*
X65022226Y-74913181D01*
X64960903Y-74946666D01*
X64934545Y-74949500D01*
X64496662Y-74949500D01*
X64496644Y-74949501D01*
X64397292Y-74959650D01*
X64397289Y-74959651D01*
X64236305Y-75012996D01*
X64236294Y-75013001D01*
X64091959Y-75102029D01*
X64091955Y-75102032D01*
X63972032Y-75221955D01*
X63972029Y-75221959D01*
X63883001Y-75366294D01*
X63882996Y-75366305D01*
X63829651Y-75527290D01*
X63819500Y-75626647D01*
X63819500Y-76173337D01*
X63331379Y-76173337D01*
X63325148Y-76042541D01*
X63275558Y-75838129D01*
X63188179Y-75646795D01*
X63185047Y-75642397D01*
X63066173Y-75475460D01*
X63066167Y-75475454D01*
X62913939Y-75330305D01*
X62913937Y-75330303D01*
X62736986Y-75216584D01*
X62736984Y-75216583D01*
X62541721Y-75138410D01*
X62541714Y-75138407D01*
X62541712Y-75138407D01*
X62541709Y-75138406D01*
X62541708Y-75138406D01*
X62335172Y-75098600D01*
X62335171Y-75098600D01*
X62177532Y-75098600D01*
X62020610Y-75113584D01*
X62020611Y-75113584D01*
X62020607Y-75113585D01*
X61818791Y-75172843D01*
X61631831Y-75269228D01*
X61466490Y-75399252D01*
X61466489Y-75399253D01*
X61328749Y-75558214D01*
X61328740Y-75558225D01*
X61223574Y-75740379D01*
X61154779Y-75939148D01*
X61154778Y-75939153D01*
X61154778Y-75939154D01*
X61124843Y-76147355D01*
X59397414Y-76147355D01*
X59398167Y-76124836D01*
X59368089Y-75825855D01*
X59298430Y-75533551D01*
X59190431Y-75253140D01*
X59046021Y-74989625D01*
X59016457Y-74949501D01*
X58985801Y-74907894D01*
X58867777Y-74747710D01*
X58658879Y-74531711D01*
X58658872Y-74531705D01*
X58470465Y-74382922D01*
X58423054Y-74345482D01*
X58164513Y-74192348D01*
X57887867Y-74075040D01*
X57887860Y-74075037D01*
X57598059Y-73995653D01*
X57598056Y-73995652D01*
X57598054Y-73995652D01*
X57300245Y-73955600D01*
X57074967Y-73955600D01*
X57074959Y-73955600D01*
X56850183Y-73970647D01*
X56850174Y-73970649D01*
X56555710Y-74030501D01*
X56271847Y-74129069D01*
X56271844Y-74129071D01*
X56003662Y-74264589D01*
X55755918Y-74434655D01*
X55533062Y-74636216D01*
X55339058Y-74865686D01*
X55339056Y-74865688D01*
X55177366Y-75118972D01*
X55066500Y-75357884D01*
X55050882Y-75391540D01*
X55017771Y-75498276D01*
X54961854Y-75678535D01*
X54934935Y-75838127D01*
X54911874Y-75974842D01*
X54905238Y-76173337D01*
X54901833Y-76275167D01*
X53171919Y-76275167D01*
X53175157Y-76252645D01*
X53165148Y-76042541D01*
X53115558Y-75838129D01*
X53028179Y-75646795D01*
X53025047Y-75642397D01*
X52907449Y-75477253D01*
X52884596Y-75411226D01*
X52901069Y-75343326D01*
X52951636Y-75295110D01*
X53020243Y-75281887D01*
X53037387Y-75284749D01*
X53081006Y-75295221D01*
X53340000Y-75315604D01*
X53598994Y-75295221D01*
X53851610Y-75234573D01*
X54091628Y-75135154D01*
X54313140Y-74999412D01*
X54510689Y-74830689D01*
X54679412Y-74633140D01*
X54815154Y-74411628D01*
X54914573Y-74171610D01*
X54975221Y-73918994D01*
X54995604Y-73660000D01*
X54975221Y-73401006D01*
X54914573Y-73148390D01*
X54894034Y-73098806D01*
X54886565Y-73029340D01*
X54917839Y-72966861D01*
X54920886Y-72963702D01*
X56764589Y-71120000D01*
X58034396Y-71120000D01*
X58054778Y-71378990D01*
X58115427Y-71631610D01*
X58214843Y-71871623D01*
X58214845Y-71871627D01*
X58214846Y-71871628D01*
X58350588Y-72093140D01*
X58519311Y-72290689D01*
X58716860Y-72459412D01*
X58938372Y-72595154D01*
X58938374Y-72595154D01*
X58938376Y-72595156D01*
X58999693Y-72620554D01*
X59178390Y-72694573D01*
X59431006Y-72755221D01*
X59690000Y-72775604D01*
X59948994Y-72755221D01*
X60201610Y-72694573D01*
X60251192Y-72674034D01*
X60320660Y-72666566D01*
X60383139Y-72697840D01*
X60386320Y-72700910D01*
X60532228Y-72846819D01*
X60669197Y-72983788D01*
X60679022Y-72996051D01*
X60679243Y-72995869D01*
X60684214Y-73001878D01*
X60710110Y-73026195D01*
X60734635Y-73049226D01*
X60755529Y-73070120D01*
X60761011Y-73074373D01*
X60765443Y-73078157D01*
X60799418Y-73110062D01*
X60816976Y-73119714D01*
X60833233Y-73130393D01*
X60849064Y-73142673D01*
X60868737Y-73151186D01*
X60891833Y-73161182D01*
X60897077Y-73163750D01*
X60937908Y-73186197D01*
X60950523Y-73189435D01*
X60957305Y-73191177D01*
X60975719Y-73197481D01*
X60994104Y-73205438D01*
X61040157Y-73212732D01*
X61045826Y-73213906D01*
X61090981Y-73225500D01*
X61111016Y-73225500D01*
X61130413Y-73227026D01*
X61150196Y-73230160D01*
X61196583Y-73225775D01*
X61202422Y-73225500D01*
X63870453Y-73225500D01*
X63937492Y-73245185D01*
X63967724Y-73272595D01*
X63972032Y-73278044D01*
X64091956Y-73397968D01*
X64091958Y-73397969D01*
X64091959Y-73397970D01*
X64236294Y-73486998D01*
X64236297Y-73486999D01*
X64236303Y-73487003D01*
X64397292Y-73540349D01*
X64496655Y-73550500D01*
X65343344Y-73550499D01*
X65343352Y-73550498D01*
X65343355Y-73550498D01*
X65397760Y-73544940D01*
X65442708Y-73540349D01*
X65603697Y-73487003D01*
X65748044Y-73397968D01*
X65867968Y-73278044D01*
X65957003Y-73133697D01*
X66010349Y-72972708D01*
X66020500Y-72873345D01*
X66020499Y-72326656D01*
X66010349Y-72227292D01*
X65957003Y-72066303D01*
X65956999Y-72066297D01*
X65956998Y-72066294D01*
X65867970Y-71921959D01*
X65867967Y-71921955D01*
X65748044Y-71802032D01*
X65748040Y-71802029D01*
X65603705Y-71713001D01*
X65603699Y-71712998D01*
X65603697Y-71712997D01*
X65524727Y-71686829D01*
X65442709Y-71659651D01*
X65343346Y-71649500D01*
X64496662Y-71649500D01*
X64496644Y-71649501D01*
X64397292Y-71659650D01*
X64397289Y-71659651D01*
X64236305Y-71712996D01*
X64236294Y-71713001D01*
X64091959Y-71802029D01*
X63972032Y-71921955D01*
X63967724Y-71927405D01*
X63910704Y-71967785D01*
X63870453Y-71974500D01*
X61480452Y-71974500D01*
X61413413Y-71954815D01*
X61392771Y-71938181D01*
X61270915Y-71816325D01*
X61237430Y-71755002D01*
X61242414Y-71685310D01*
X61244018Y-71681231D01*
X61264573Y-71631610D01*
X61325221Y-71378994D01*
X61345604Y-71120000D01*
X61325221Y-70861006D01*
X61264573Y-70608390D01*
X61165154Y-70368372D01*
X61029412Y-70146860D01*
X60860689Y-69949311D01*
X60663140Y-69780588D01*
X60441628Y-69644846D01*
X60441627Y-69644845D01*
X60441623Y-69644843D01*
X60275627Y-69576086D01*
X60201610Y-69545427D01*
X60201611Y-69545427D01*
X60063921Y-69512370D01*
X59948994Y-69484779D01*
X59948992Y-69484778D01*
X59948991Y-69484778D01*
X59714189Y-69466299D01*
X59690000Y-69464396D01*
X59689999Y-69464396D01*
X59431009Y-69484778D01*
X59178389Y-69545427D01*
X58938376Y-69644843D01*
X58716859Y-69780588D01*
X58519311Y-69949311D01*
X58350588Y-70146859D01*
X58214843Y-70368376D01*
X58115427Y-70608389D01*
X58054778Y-70861009D01*
X58034396Y-71120000D01*
X56764589Y-71120000D01*
X59549590Y-68335000D01*
X60439540Y-68335000D01*
X60459326Y-68523256D01*
X60459327Y-68523259D01*
X60517818Y-68703277D01*
X60517821Y-68703284D01*
X60612467Y-68867216D01*
X60697921Y-68962122D01*
X60739129Y-69007888D01*
X60892265Y-69119148D01*
X60892270Y-69119151D01*
X61065192Y-69196142D01*
X61065197Y-69196144D01*
X61250354Y-69235500D01*
X61250355Y-69235500D01*
X61439644Y-69235500D01*
X61439646Y-69235500D01*
X61624803Y-69196144D01*
X61797730Y-69119151D01*
X61950871Y-69007888D01*
X61950874Y-69007883D01*
X61955701Y-69003539D01*
X61957432Y-69005461D01*
X62007104Y-68974873D01*
X62039744Y-68970500D01*
X79002257Y-68970500D01*
X79017877Y-68972224D01*
X79017904Y-68971939D01*
X79025660Y-68972671D01*
X79025667Y-68972673D01*
X79094814Y-68970500D01*
X79124350Y-68970500D01*
X79131228Y-68969630D01*
X79137041Y-68969172D01*
X79183627Y-68967709D01*
X79202869Y-68962117D01*
X79221912Y-68958174D01*
X79241792Y-68955664D01*
X79285122Y-68938507D01*
X79290646Y-68936617D01*
X79294396Y-68935527D01*
X79335390Y-68923618D01*
X79352629Y-68913422D01*
X79370103Y-68904862D01*
X79388727Y-68897488D01*
X79388727Y-68897487D01*
X79388732Y-68897486D01*
X79426449Y-68870082D01*
X79431305Y-68866892D01*
X79471420Y-68843170D01*
X79485589Y-68828999D01*
X79500379Y-68816368D01*
X79516587Y-68804594D01*
X79546299Y-68768676D01*
X79550212Y-68764376D01*
X82487821Y-65826768D01*
X82549142Y-65793285D01*
X82618834Y-65798269D01*
X82674767Y-65840141D01*
X82699184Y-65905605D01*
X82699500Y-65914451D01*
X82699500Y-66817870D01*
X82699501Y-66817876D01*
X82705908Y-66877483D01*
X82756202Y-67012328D01*
X82756206Y-67012335D01*
X82842452Y-67127544D01*
X82842455Y-67127547D01*
X82957664Y-67213793D01*
X82957671Y-67213797D01*
X83092517Y-67264091D01*
X83092516Y-67264091D01*
X83099444Y-67264835D01*
X83152127Y-67270500D01*
X86247872Y-67270499D01*
X86307483Y-67264091D01*
X86442331Y-67213796D01*
X86557546Y-67127546D01*
X86643796Y-67012331D01*
X86694091Y-66877483D01*
X86700500Y-66817873D01*
X86700499Y-66759890D01*
X86720182Y-66692853D01*
X86772986Y-66647097D01*
X86842144Y-66637153D01*
X86850278Y-66638600D01*
X87000354Y-66670500D01*
X87000355Y-66670500D01*
X87189644Y-66670500D01*
X87189646Y-66670500D01*
X87374803Y-66631144D01*
X87547730Y-66554151D01*
X87700871Y-66442888D01*
X87827533Y-66302216D01*
X87922179Y-66138284D01*
X87980674Y-65958256D01*
X88000460Y-65770000D01*
X87980674Y-65581744D01*
X87922179Y-65401716D01*
X87827533Y-65237784D01*
X87700871Y-65097112D01*
X87687695Y-65087539D01*
X87547734Y-64985851D01*
X87547729Y-64985848D01*
X87374807Y-64908857D01*
X87374802Y-64908855D01*
X87229000Y-64877865D01*
X87189646Y-64869500D01*
X87000354Y-64869500D01*
X86873323Y-64896500D01*
X86850279Y-64901399D01*
X86780612Y-64896082D01*
X86724879Y-64853944D01*
X86700774Y-64788364D01*
X86700499Y-64780108D01*
X86700499Y-64722129D01*
X86700498Y-64722123D01*
X86700497Y-64722116D01*
X86694091Y-64662517D01*
X86649638Y-64543331D01*
X86644654Y-64473642D01*
X86649638Y-64456667D01*
X86694091Y-64337483D01*
X86700500Y-64277873D01*
X86700500Y-64047870D01*
X93249500Y-64047870D01*
X93249501Y-64047876D01*
X93255908Y-64107483D01*
X93306202Y-64242328D01*
X93306206Y-64242335D01*
X93392452Y-64357544D01*
X93392455Y-64357547D01*
X93507664Y-64443793D01*
X93507671Y-64443797D01*
X93642517Y-64494091D01*
X93642516Y-64494091D01*
X93649444Y-64494835D01*
X93702127Y-64500500D01*
X96797872Y-64500499D01*
X96857483Y-64494091D01*
X96992331Y-64443796D01*
X97107546Y-64357546D01*
X97193796Y-64242331D01*
X97244091Y-64107483D01*
X97250500Y-64047873D01*
X97250499Y-61452128D01*
X97244091Y-61392517D01*
X97193796Y-61257669D01*
X97193795Y-61257668D01*
X97193793Y-61257664D01*
X97107547Y-61142455D01*
X97107544Y-61142452D01*
X96992335Y-61056206D01*
X96992328Y-61056202D01*
X96857482Y-61005908D01*
X96857483Y-61005908D01*
X96797883Y-60999501D01*
X96797881Y-60999500D01*
X96797873Y-60999500D01*
X96797864Y-60999500D01*
X93702129Y-60999500D01*
X93702123Y-60999501D01*
X93642516Y-61005908D01*
X93507671Y-61056202D01*
X93507664Y-61056206D01*
X93392455Y-61142452D01*
X93392452Y-61142455D01*
X93306206Y-61257664D01*
X93306202Y-61257671D01*
X93255908Y-61392517D01*
X93249501Y-61452116D01*
X93249501Y-61452123D01*
X93249500Y-61452135D01*
X93249500Y-64047870D01*
X86700500Y-64047870D01*
X86700499Y-62182128D01*
X86694091Y-62122517D01*
X86649638Y-62003332D01*
X86644654Y-61933640D01*
X86649634Y-61916678D01*
X86694091Y-61797483D01*
X86700500Y-61737873D01*
X86700499Y-60394499D01*
X86720184Y-60327461D01*
X86772987Y-60281706D01*
X86824499Y-60270500D01*
X101125501Y-60270500D01*
X101192540Y-60290185D01*
X101238295Y-60342989D01*
X101249501Y-60394500D01*
X101249501Y-60697876D01*
X101255908Y-60757483D01*
X101306202Y-60892328D01*
X101306206Y-60892335D01*
X101392452Y-61007544D01*
X101392455Y-61007547D01*
X101507664Y-61093793D01*
X101507671Y-61093797D01*
X101642517Y-61144091D01*
X101642516Y-61144091D01*
X101649444Y-61144835D01*
X101702127Y-61150500D01*
X103797872Y-61150499D01*
X103857483Y-61144091D01*
X103992331Y-61093796D01*
X104107546Y-61007546D01*
X104193796Y-60892331D01*
X104244091Y-60757483D01*
X104250500Y-60697873D01*
X104250499Y-58602128D01*
X104244091Y-58542517D01*
X104243995Y-58542260D01*
X104193797Y-58407671D01*
X104193793Y-58407664D01*
X104107547Y-58292456D01*
X104107548Y-58292456D01*
X104107546Y-58292454D01*
X103992331Y-58206204D01*
X103992329Y-58206203D01*
X103991012Y-58205217D01*
X103949141Y-58149283D01*
X103944157Y-58079591D01*
X103961515Y-58038128D01*
X104073731Y-57866369D01*
X104173587Y-57638717D01*
X104234612Y-57397738D01*
X104234614Y-57397729D01*
X104255141Y-57150005D01*
X104255141Y-57149994D01*
X104234614Y-56902270D01*
X104234612Y-56902261D01*
X104173587Y-56661282D01*
X104073731Y-56433630D01*
X103973434Y-56280116D01*
X103358949Y-56894602D01*
X103297626Y-56928087D01*
X103227934Y-56923103D01*
X103172001Y-56881231D01*
X103166953Y-56873961D01*
X103131761Y-56819202D01*
X103016398Y-56719241D01*
X103018708Y-56716574D01*
X102984005Y-56676528D01*
X102974058Y-56607370D01*
X103003080Y-56543813D01*
X103009116Y-56537330D01*
X103625898Y-55920548D01*
X103636515Y-55873852D01*
X103668621Y-55836444D01*
X103769744Y-55757738D01*
X103938164Y-55574785D01*
X104074173Y-55366607D01*
X104174063Y-55138881D01*
X104235108Y-54897821D01*
X104255643Y-54650000D01*
X104248362Y-54562135D01*
X104235109Y-54402187D01*
X104235107Y-54402175D01*
X104174063Y-54161118D01*
X104074173Y-53933393D01*
X103938166Y-53725217D01*
X103857153Y-53637214D01*
X103769744Y-53542262D01*
X103573509Y-53389526D01*
X103573507Y-53389525D01*
X103573506Y-53389524D01*
X103354811Y-53271172D01*
X103354802Y-53271169D01*
X103119616Y-53190429D01*
X102874335Y-53149500D01*
X102625665Y-53149500D01*
X102380383Y-53190429D01*
X102145197Y-53271169D01*
X102145188Y-53271172D01*
X101926493Y-53389524D01*
X101730257Y-53542261D01*
X101561833Y-53725217D01*
X101425826Y-53933393D01*
X101325936Y-54161118D01*
X101264892Y-54402175D01*
X101264890Y-54402187D01*
X101244357Y-54649994D01*
X101244357Y-54650005D01*
X101264890Y-54897812D01*
X101264892Y-54897824D01*
X101318863Y-55110949D01*
X101316238Y-55180769D01*
X101286338Y-55229070D01*
X101041208Y-55474199D01*
X101028951Y-55484020D01*
X101029134Y-55484241D01*
X101023123Y-55489213D01*
X100975772Y-55539636D01*
X100954889Y-55560519D01*
X100954877Y-55560532D01*
X100950621Y-55566017D01*
X100946837Y-55570447D01*
X100914937Y-55604418D01*
X100914936Y-55604420D01*
X100905284Y-55621976D01*
X100894610Y-55638226D01*
X100882329Y-55654061D01*
X100882324Y-55654068D01*
X100863815Y-55696838D01*
X100861245Y-55702084D01*
X100838803Y-55742906D01*
X100833822Y-55762307D01*
X100827521Y-55780710D01*
X100819562Y-55799102D01*
X100819561Y-55799105D01*
X100812271Y-55845127D01*
X100811087Y-55850846D01*
X100799501Y-55895972D01*
X100799500Y-55895982D01*
X100799500Y-55916016D01*
X100797973Y-55935415D01*
X100794840Y-55955194D01*
X100794840Y-55955195D01*
X100799225Y-56001583D01*
X100799500Y-56007421D01*
X100799500Y-57984547D01*
X100779815Y-58051586D01*
X100763181Y-58072228D01*
X100302228Y-58533181D01*
X100240905Y-58566666D01*
X100214547Y-58569500D01*
X86824500Y-58569500D01*
X86757461Y-58549815D01*
X86711706Y-58497011D01*
X86700500Y-58445500D01*
X86700499Y-57102129D01*
X86700498Y-57102123D01*
X86700497Y-57102116D01*
X86694091Y-57042517D01*
X86651411Y-56928087D01*
X86649638Y-56923332D01*
X86644654Y-56853640D01*
X86649634Y-56836678D01*
X86694091Y-56717483D01*
X86700500Y-56657873D01*
X86700499Y-54562128D01*
X86694091Y-54502517D01*
X86656667Y-54402179D01*
X86649638Y-54383332D01*
X86644654Y-54313640D01*
X86649634Y-54296678D01*
X86694091Y-54177483D01*
X86700500Y-54117873D01*
X86700499Y-52847870D01*
X93249500Y-52847870D01*
X93249501Y-52847876D01*
X93255908Y-52907483D01*
X93306202Y-53042328D01*
X93306206Y-53042335D01*
X93392452Y-53157544D01*
X93392455Y-53157547D01*
X93507664Y-53243793D01*
X93507671Y-53243797D01*
X93642517Y-53294091D01*
X93642516Y-53294091D01*
X93649444Y-53294835D01*
X93702127Y-53300500D01*
X96797872Y-53300499D01*
X96857483Y-53294091D01*
X96992331Y-53243796D01*
X97107546Y-53157546D01*
X97193796Y-53042331D01*
X97244091Y-52907483D01*
X97250500Y-52847873D01*
X97250499Y-50252128D01*
X97244091Y-50192517D01*
X97242902Y-50189330D01*
X97193797Y-50057671D01*
X97193793Y-50057664D01*
X97107547Y-49942455D01*
X97107544Y-49942452D01*
X96992335Y-49856206D01*
X96992328Y-49856202D01*
X96857482Y-49805908D01*
X96857483Y-49805908D01*
X96797883Y-49799501D01*
X96797881Y-49799500D01*
X96797873Y-49799500D01*
X96797864Y-49799500D01*
X93702129Y-49799500D01*
X93702123Y-49799501D01*
X93642516Y-49805908D01*
X93507671Y-49856202D01*
X93507664Y-49856206D01*
X93392455Y-49942452D01*
X93392452Y-49942455D01*
X93306206Y-50057664D01*
X93306202Y-50057671D01*
X93255908Y-50192517D01*
X93251189Y-50236416D01*
X93249501Y-50252123D01*
X93249500Y-50252135D01*
X93249500Y-52847870D01*
X86700499Y-52847870D01*
X86700499Y-52022128D01*
X86694103Y-51962627D01*
X86694091Y-51962516D01*
X86649638Y-51843332D01*
X86644654Y-51773640D01*
X86649634Y-51756678D01*
X86694091Y-51637483D01*
X86700500Y-51577873D01*
X86700499Y-51516972D01*
X86720183Y-51449935D01*
X86772986Y-51404179D01*
X86842144Y-51394235D01*
X86874929Y-51403692D01*
X87015197Y-51466144D01*
X87200354Y-51505500D01*
X87200355Y-51505500D01*
X87389644Y-51505500D01*
X87389646Y-51505500D01*
X87574803Y-51466144D01*
X87747730Y-51389151D01*
X87900871Y-51277888D01*
X88027533Y-51137216D01*
X88122179Y-50973284D01*
X88180674Y-50793256D01*
X88200460Y-50605000D01*
X88180674Y-50416744D01*
X88122179Y-50236716D01*
X88027533Y-50072784D01*
X87900871Y-49932112D01*
X87900870Y-49932111D01*
X87747734Y-49820851D01*
X87747729Y-49820848D01*
X87574807Y-49743857D01*
X87574802Y-49743855D01*
X87429001Y-49712865D01*
X87389646Y-49704500D01*
X87200354Y-49704500D01*
X87167897Y-49711398D01*
X87015197Y-49743855D01*
X87015192Y-49743857D01*
X86874935Y-49806305D01*
X86805685Y-49815590D01*
X86742408Y-49785962D01*
X86705195Y-49726827D01*
X86700499Y-49693026D01*
X86700499Y-49482129D01*
X86700498Y-49482123D01*
X86700497Y-49482116D01*
X86694091Y-49422517D01*
X86661830Y-49336022D01*
X86643797Y-49287671D01*
X86643793Y-49287664D01*
X86557547Y-49172455D01*
X86557544Y-49172452D01*
X86442335Y-49086206D01*
X86442328Y-49086202D01*
X86307482Y-49035908D01*
X86307483Y-49035908D01*
X86247883Y-49029501D01*
X86247881Y-49029500D01*
X86247873Y-49029500D01*
X86247864Y-49029500D01*
X83152129Y-49029500D01*
X83152123Y-49029501D01*
X83092516Y-49035908D01*
X82957671Y-49086202D01*
X82957664Y-49086206D01*
X82842455Y-49172452D01*
X82842452Y-49172455D01*
X82756206Y-49287664D01*
X82756202Y-49287671D01*
X82705908Y-49422517D01*
X82699501Y-49482116D01*
X82699501Y-49482123D01*
X82699500Y-49482135D01*
X82699500Y-51577870D01*
X82699501Y-51577876D01*
X82705908Y-51637483D01*
X82750361Y-51756666D01*
X82755345Y-51826358D01*
X82750361Y-51843331D01*
X82705909Y-51962514D01*
X82705908Y-51962516D01*
X82699501Y-52022116D01*
X82699501Y-52022123D01*
X82699500Y-52022135D01*
X82699500Y-52139597D01*
X82679815Y-52206636D01*
X82627011Y-52252391D01*
X82557853Y-52262335D01*
X82525065Y-52252877D01*
X82504802Y-52243855D01*
X82359000Y-52212865D01*
X82319646Y-52204500D01*
X82130354Y-52204500D01*
X82097897Y-52211398D01*
X81945197Y-52243855D01*
X81945192Y-52243857D01*
X81772270Y-52320848D01*
X81772265Y-52320851D01*
X81619129Y-52432111D01*
X81492466Y-52572785D01*
X81397821Y-52736715D01*
X81397818Y-52736722D01*
X81361700Y-52847883D01*
X81339326Y-52916744D01*
X81319540Y-53105000D01*
X81339326Y-53293256D01*
X81339327Y-53293259D01*
X81397818Y-53473277D01*
X81397821Y-53473284D01*
X81492467Y-53637216D01*
X81571702Y-53725215D01*
X81619129Y-53777888D01*
X81772265Y-53889148D01*
X81772270Y-53889151D01*
X81945192Y-53966142D01*
X81945197Y-53966144D01*
X82130354Y-54005500D01*
X82130355Y-54005500D01*
X82319644Y-54005500D01*
X82319646Y-54005500D01*
X82504803Y-53966144D01*
X82525062Y-53957123D01*
X82594311Y-53947837D01*
X82657589Y-53977464D01*
X82694803Y-54036598D01*
X82699500Y-54070400D01*
X82699500Y-54117868D01*
X82699501Y-54117876D01*
X82705908Y-54177483D01*
X82750361Y-54296667D01*
X82755345Y-54366359D01*
X82750361Y-54383333D01*
X82705908Y-54502517D01*
X82699501Y-54562116D01*
X82699501Y-54562123D01*
X82699500Y-54562135D01*
X82699500Y-56657870D01*
X82699501Y-56657876D01*
X82705908Y-56717483D01*
X82750361Y-56836667D01*
X82755345Y-56906359D01*
X82750361Y-56923333D01*
X82705908Y-57042517D01*
X82702082Y-57078111D01*
X82699501Y-57102123D01*
X82699500Y-57102135D01*
X82699500Y-59197870D01*
X82699501Y-59197876D01*
X82705908Y-59257483D01*
X82750361Y-59376666D01*
X82755345Y-59446358D01*
X82750361Y-59463331D01*
X82705909Y-59582514D01*
X82705908Y-59582516D01*
X82699501Y-59642116D01*
X82699501Y-59642123D01*
X82699500Y-59642135D01*
X82699500Y-61737870D01*
X82699501Y-61737876D01*
X82705908Y-61797483D01*
X82750361Y-61916667D01*
X82755345Y-61986359D01*
X82750361Y-62003333D01*
X82705908Y-62122517D01*
X82699501Y-62182116D01*
X82699501Y-62182123D01*
X82699500Y-62182135D01*
X82699500Y-63794546D01*
X82679815Y-63861585D01*
X82663181Y-63882227D01*
X78862228Y-67683181D01*
X78800905Y-67716666D01*
X78774547Y-67719500D01*
X78744500Y-67719500D01*
X78677461Y-67699815D01*
X78631706Y-67647011D01*
X78620500Y-67595500D01*
X78620499Y-65552129D01*
X78620498Y-65552123D01*
X78620497Y-65552116D01*
X78614091Y-65492517D01*
X78580224Y-65401716D01*
X78563797Y-65357671D01*
X78563793Y-65357664D01*
X78477547Y-65242455D01*
X78477544Y-65242452D01*
X78362335Y-65156206D01*
X78362328Y-65156202D01*
X78227482Y-65105908D01*
X78227483Y-65105908D01*
X78167883Y-65099501D01*
X78167881Y-65099500D01*
X78167873Y-65099500D01*
X78167864Y-65099500D01*
X76772129Y-65099500D01*
X76772123Y-65099501D01*
X76712516Y-65105908D01*
X76577671Y-65156202D01*
X76577664Y-65156206D01*
X76462455Y-65242452D01*
X76462452Y-65242455D01*
X76376206Y-65357664D01*
X76376202Y-65357671D01*
X76325908Y-65492516D01*
X76323289Y-65516883D01*
X76296551Y-65581434D01*
X76239158Y-65621282D01*
X76169333Y-65623775D01*
X76109244Y-65588122D01*
X76077970Y-65525643D01*
X76076710Y-65516880D01*
X76074091Y-65492516D01*
X76023797Y-65357671D01*
X76023793Y-65357664D01*
X75937547Y-65242455D01*
X75937544Y-65242452D01*
X75822335Y-65156206D01*
X75822328Y-65156202D01*
X75687482Y-65105908D01*
X75687483Y-65105908D01*
X75627883Y-65099501D01*
X75627881Y-65099500D01*
X75627873Y-65099500D01*
X75627864Y-65099500D01*
X74232129Y-65099500D01*
X74232123Y-65099501D01*
X74172516Y-65105908D01*
X74037671Y-65156202D01*
X74037664Y-65156206D01*
X73922455Y-65242452D01*
X73922452Y-65242455D01*
X73836206Y-65357664D01*
X73836202Y-65357671D01*
X73785908Y-65492517D01*
X73782347Y-65525643D01*
X73779500Y-65552127D01*
X73779500Y-66631144D01*
X73779501Y-67595500D01*
X73759816Y-67662539D01*
X73707013Y-67708294D01*
X73655501Y-67719500D01*
X62057752Y-67719500D01*
X61990713Y-67699815D01*
X61965603Y-67678473D01*
X61950871Y-67662112D01*
X61950864Y-67662106D01*
X61797734Y-67550851D01*
X61797729Y-67550848D01*
X61624807Y-67473857D01*
X61624802Y-67473855D01*
X61479001Y-67442865D01*
X61439646Y-67434500D01*
X61250354Y-67434500D01*
X61217897Y-67441398D01*
X61065197Y-67473855D01*
X61065192Y-67473857D01*
X60892270Y-67550848D01*
X60892265Y-67550851D01*
X60739129Y-67662111D01*
X60612466Y-67802785D01*
X60517821Y-67966715D01*
X60517818Y-67966722D01*
X60492453Y-68044789D01*
X60459326Y-68146744D01*
X60439540Y-68335000D01*
X59549590Y-68335000D01*
X61452771Y-66431819D01*
X61514095Y-66398334D01*
X61540453Y-66395500D01*
X65575501Y-66395500D01*
X65642540Y-66415185D01*
X65688295Y-66467989D01*
X65699501Y-66519500D01*
X65699501Y-66817876D01*
X65705908Y-66877483D01*
X65756202Y-67012328D01*
X65756206Y-67012335D01*
X65842452Y-67127544D01*
X65842455Y-67127547D01*
X65957664Y-67213793D01*
X65957671Y-67213797D01*
X66092517Y-67264091D01*
X66092516Y-67264091D01*
X66099444Y-67264835D01*
X66152127Y-67270500D01*
X69247872Y-67270499D01*
X69307483Y-67264091D01*
X69442331Y-67213796D01*
X69557546Y-67127546D01*
X69643796Y-67012331D01*
X69694091Y-66877483D01*
X69700500Y-66817873D01*
X69700499Y-64722128D01*
X69694091Y-64662517D01*
X69649638Y-64543331D01*
X69644654Y-64473640D01*
X69649634Y-64456678D01*
X69694091Y-64337483D01*
X69700500Y-64277873D01*
X69700499Y-63998977D01*
X69720183Y-63931940D01*
X69772987Y-63886185D01*
X69842146Y-63876241D01*
X69875729Y-63887866D01*
X69876334Y-63886508D01*
X70055192Y-63966142D01*
X70055197Y-63966144D01*
X70240354Y-64005500D01*
X70240355Y-64005500D01*
X70429644Y-64005500D01*
X70429646Y-64005500D01*
X70614803Y-63966144D01*
X70787730Y-63889151D01*
X70940871Y-63777888D01*
X71067533Y-63637216D01*
X71162179Y-63473284D01*
X71220674Y-63293256D01*
X71240460Y-63105000D01*
X71220674Y-62916744D01*
X71162179Y-62736716D01*
X71067533Y-62572784D01*
X70940871Y-62432112D01*
X70940870Y-62432111D01*
X70787734Y-62320851D01*
X70787729Y-62320848D01*
X70614807Y-62243857D01*
X70614802Y-62243855D01*
X70460320Y-62211020D01*
X70429646Y-62204500D01*
X70240354Y-62204500D01*
X70209680Y-62211020D01*
X70055197Y-62243855D01*
X70055192Y-62243857D01*
X69876334Y-62323492D01*
X69875285Y-62321136D01*
X69818551Y-62334877D01*
X69752533Y-62312000D01*
X69709364Y-62257062D01*
X69700499Y-62211020D01*
X69700499Y-62182129D01*
X69700498Y-62182123D01*
X69700497Y-62182116D01*
X69694091Y-62122517D01*
X69649637Y-62003332D01*
X69644654Y-61933642D01*
X69649638Y-61916667D01*
X69694091Y-61797482D01*
X69694091Y-61797481D01*
X69700500Y-61737873D01*
X69700499Y-59642128D01*
X69694091Y-59582517D01*
X69649638Y-59463331D01*
X69644654Y-59393640D01*
X69649634Y-59376678D01*
X69694091Y-59257483D01*
X69700500Y-59197873D01*
X69700499Y-57102128D01*
X69694091Y-57042517D01*
X69651411Y-56928087D01*
X69649638Y-56923332D01*
X69644654Y-56853640D01*
X69649634Y-56836678D01*
X69694091Y-56717483D01*
X69700500Y-56657873D01*
X69700499Y-54562128D01*
X69694091Y-54502517D01*
X69649370Y-54382615D01*
X69644387Y-54312927D01*
X69649371Y-54295951D01*
X69693597Y-54177376D01*
X69693598Y-54177372D01*
X69699999Y-54117844D01*
X69700000Y-54117827D01*
X69700000Y-53320000D01*
X65700000Y-53320000D01*
X65700000Y-54117844D01*
X65706401Y-54177372D01*
X65706403Y-54177382D01*
X65750627Y-54295953D01*
X65755611Y-54365644D01*
X65750627Y-54382617D01*
X65705909Y-54502514D01*
X65705908Y-54502516D01*
X65699501Y-54562116D01*
X65699501Y-54562123D01*
X65699500Y-54562135D01*
X65699500Y-56657870D01*
X65699501Y-56657876D01*
X65705908Y-56717483D01*
X65750361Y-56836667D01*
X65755345Y-56906359D01*
X65750361Y-56923333D01*
X65705908Y-57042517D01*
X65702082Y-57078111D01*
X65699501Y-57102123D01*
X65699500Y-57102135D01*
X65699501Y-58475500D01*
X65679816Y-58542539D01*
X65627013Y-58588294D01*
X65575501Y-58599500D01*
X54535452Y-58599500D01*
X54468413Y-58579815D01*
X54447771Y-58563181D01*
X51186818Y-55302228D01*
X51153333Y-55240905D01*
X51150499Y-55214547D01*
X51150499Y-53602129D01*
X51150498Y-53602123D01*
X51150497Y-53602116D01*
X51144091Y-53542517D01*
X51141737Y-53536206D01*
X51093797Y-53407671D01*
X51093793Y-53407664D01*
X51007547Y-53292455D01*
X51007544Y-53292452D01*
X50892335Y-53206206D01*
X50892328Y-53206202D01*
X50757482Y-53155908D01*
X50757483Y-53155908D01*
X50697883Y-53149501D01*
X50697881Y-53149500D01*
X50697873Y-53149500D01*
X50697864Y-53149500D01*
X48602129Y-53149500D01*
X48602123Y-53149501D01*
X48542516Y-53155908D01*
X48407671Y-53206202D01*
X48407664Y-53206206D01*
X48292455Y-53292452D01*
X48292452Y-53292455D01*
X48206206Y-53407664D01*
X48206202Y-53407671D01*
X48155908Y-53542517D01*
X48149501Y-53602116D01*
X48149501Y-53602123D01*
X48149500Y-53602135D01*
X48149500Y-55697870D01*
X48149501Y-55697876D01*
X48155908Y-55757483D01*
X48206202Y-55892328D01*
X48206206Y-55892335D01*
X48292452Y-56007544D01*
X48292455Y-56007547D01*
X48408986Y-56094783D01*
X48450857Y-56150717D01*
X48455841Y-56220408D01*
X48438484Y-56261870D01*
X48326267Y-56433631D01*
X48226412Y-56661282D01*
X48165387Y-56902261D01*
X48165385Y-56902270D01*
X48144859Y-57149994D01*
X48144859Y-57150005D01*
X48165385Y-57397729D01*
X48165387Y-57397738D01*
X48226412Y-57638717D01*
X48326266Y-57866364D01*
X48426564Y-58019882D01*
X49041050Y-57405395D01*
X49102373Y-57371910D01*
X49172064Y-57376894D01*
X49227998Y-57418765D01*
X49233039Y-57426025D01*
X49233048Y-57426039D01*
X49268239Y-57480798D01*
X49383602Y-57580759D01*
X49381293Y-57583422D01*
X49416006Y-57623499D01*
X49425935Y-57692660D01*
X49396898Y-57756210D01*
X49390882Y-57762669D01*
X48774100Y-58379450D01*
X48763482Y-58426148D01*
X48731376Y-58463556D01*
X48630255Y-58542262D01*
X48461833Y-58725217D01*
X48325826Y-58933393D01*
X48225936Y-59161118D01*
X48164892Y-59402175D01*
X48164890Y-59402187D01*
X48144357Y-59649994D01*
X48144357Y-59650005D01*
X47625500Y-59650005D01*
X47625500Y-52847870D01*
X55149500Y-52847870D01*
X55149501Y-52847876D01*
X55155908Y-52907483D01*
X55206202Y-53042328D01*
X55206206Y-53042335D01*
X55292452Y-53157544D01*
X55292455Y-53157547D01*
X55407664Y-53243793D01*
X55407671Y-53243797D01*
X55542517Y-53294091D01*
X55542516Y-53294091D01*
X55549444Y-53294835D01*
X55602127Y-53300500D01*
X58697872Y-53300499D01*
X58757483Y-53294091D01*
X58892331Y-53243796D01*
X59007546Y-53157546D01*
X59093796Y-53042331D01*
X59144091Y-52907483D01*
X59150500Y-52847873D01*
X59150499Y-50625000D01*
X63539540Y-50625000D01*
X63559326Y-50813256D01*
X63559327Y-50813259D01*
X63617818Y-50993277D01*
X63617821Y-50993284D01*
X63712467Y-51157216D01*
X63821121Y-51277888D01*
X63839129Y-51297888D01*
X63992265Y-51409148D01*
X63992270Y-51409151D01*
X64165192Y-51486142D01*
X64165197Y-51486144D01*
X64350354Y-51525500D01*
X64350355Y-51525500D01*
X64539644Y-51525500D01*
X64539646Y-51525500D01*
X64724803Y-51486144D01*
X64897730Y-51409151D01*
X65042208Y-51304181D01*
X65108014Y-51280702D01*
X65115093Y-51280500D01*
X65575501Y-51280500D01*
X65642540Y-51300185D01*
X65688295Y-51352989D01*
X65699501Y-51404500D01*
X65699501Y-51577876D01*
X65705908Y-51637483D01*
X65738870Y-51725858D01*
X65750361Y-51756666D01*
X65750628Y-51757380D01*
X65755612Y-51827071D01*
X65750628Y-51844046D01*
X65706403Y-51962619D01*
X65706401Y-51962627D01*
X65700000Y-52022155D01*
X65700000Y-52820000D01*
X69700000Y-52820000D01*
X69700000Y-52300002D01*
X73674723Y-52300002D01*
X73693793Y-52517975D01*
X73693793Y-52517979D01*
X73750422Y-52729322D01*
X73750424Y-52729326D01*
X73750425Y-52729330D01*
X73753872Y-52736722D01*
X73842897Y-52927638D01*
X73842898Y-52927639D01*
X73968402Y-53106877D01*
X74123123Y-53261598D01*
X74302361Y-53387102D01*
X74500670Y-53479575D01*
X74712023Y-53536207D01*
X74894926Y-53552208D01*
X74929998Y-53555277D01*
X74930000Y-53555277D01*
X74930002Y-53555277D01*
X74958254Y-53552805D01*
X75147977Y-53536207D01*
X75359330Y-53479575D01*
X75557639Y-53387102D01*
X75736877Y-53261598D01*
X75891598Y-53106877D01*
X76017102Y-52927639D01*
X76087618Y-52776414D01*
X76133790Y-52723977D01*
X76200984Y-52704825D01*
X76267865Y-52725041D01*
X76312381Y-52776414D01*
X76382898Y-52927639D01*
X76508402Y-53106877D01*
X76663123Y-53261598D01*
X76842361Y-53387102D01*
X77040670Y-53479575D01*
X77252023Y-53536207D01*
X77434926Y-53552208D01*
X77469998Y-53555277D01*
X77470000Y-53555277D01*
X77470002Y-53555277D01*
X77498254Y-53552805D01*
X77687977Y-53536207D01*
X77899330Y-53479575D01*
X78097639Y-53387102D01*
X78276877Y-53261598D01*
X78431598Y-53106877D01*
X78557102Y-52927639D01*
X78649575Y-52729330D01*
X78706207Y-52517977D01*
X78725277Y-52300000D01*
X78706207Y-52082023D01*
X78649575Y-51870670D01*
X78557102Y-51672362D01*
X78557100Y-51672359D01*
X78557099Y-51672357D01*
X78431599Y-51493124D01*
X78388410Y-51449935D01*
X78276877Y-51338402D01*
X78097639Y-51212898D01*
X78097640Y-51212898D01*
X78097638Y-51212897D01*
X77946416Y-51142381D01*
X77893977Y-51096208D01*
X77874825Y-51029015D01*
X77895041Y-50962134D01*
X77946414Y-50917619D01*
X78097639Y-50847102D01*
X78276877Y-50721598D01*
X78431598Y-50566877D01*
X78557102Y-50387639D01*
X78649575Y-50189330D01*
X78706207Y-49977977D01*
X78724509Y-49768780D01*
X78725277Y-49760002D01*
X78725277Y-49759997D01*
X78721569Y-49717618D01*
X78706207Y-49542023D01*
X78649575Y-49330670D01*
X78557102Y-49132362D01*
X78557100Y-49132359D01*
X78557099Y-49132357D01*
X78431599Y-48953124D01*
X78431596Y-48953121D01*
X78276877Y-48798402D01*
X78097639Y-48672898D01*
X78097640Y-48672898D01*
X78097638Y-48672897D01*
X77994709Y-48624901D01*
X77899330Y-48580425D01*
X77899326Y-48580424D01*
X77899322Y-48580422D01*
X77687977Y-48523793D01*
X77470002Y-48504723D01*
X77469998Y-48504723D01*
X77324682Y-48517436D01*
X77252023Y-48523793D01*
X77252020Y-48523793D01*
X77040677Y-48580422D01*
X77040668Y-48580426D01*
X76842361Y-48672898D01*
X76842357Y-48672900D01*
X76663121Y-48798402D01*
X76508402Y-48953121D01*
X76382900Y-49132357D01*
X76382898Y-49132361D01*
X76312382Y-49283583D01*
X76266209Y-49336022D01*
X76199016Y-49355174D01*
X76132135Y-49334958D01*
X76087618Y-49283583D01*
X76073118Y-49252488D01*
X76017102Y-49132362D01*
X76017100Y-49132359D01*
X76017099Y-49132357D01*
X75891599Y-48953124D01*
X75891596Y-48953121D01*
X75736877Y-48798402D01*
X75557639Y-48672898D01*
X75557640Y-48672898D01*
X75557638Y-48672897D01*
X75454709Y-48624901D01*
X75359330Y-48580425D01*
X75359326Y-48580424D01*
X75359322Y-48580422D01*
X75147977Y-48523793D01*
X74930002Y-48504723D01*
X74929998Y-48504723D01*
X74784681Y-48517436D01*
X74712023Y-48523793D01*
X74712020Y-48523793D01*
X74500677Y-48580422D01*
X74500668Y-48580426D01*
X74302361Y-48672898D01*
X74302357Y-48672900D01*
X74123121Y-48798402D01*
X73968402Y-48953121D01*
X73842900Y-49132357D01*
X73842898Y-49132361D01*
X73750426Y-49330668D01*
X73750422Y-49330677D01*
X73693793Y-49542020D01*
X73693793Y-49542024D01*
X73674723Y-49759997D01*
X73674723Y-49760002D01*
X73675491Y-49768780D01*
X73689780Y-49932112D01*
X73693793Y-49977975D01*
X73693793Y-49977979D01*
X73750422Y-50189322D01*
X73750424Y-50189326D01*
X73750425Y-50189330D01*
X73796661Y-50288484D01*
X73842897Y-50387638D01*
X73842898Y-50387639D01*
X73968402Y-50566877D01*
X74123123Y-50721598D01*
X74302361Y-50847102D01*
X74453583Y-50917618D01*
X74506022Y-50963790D01*
X74525174Y-51030984D01*
X74504958Y-51097865D01*
X74453583Y-51142382D01*
X74302361Y-51212898D01*
X74302357Y-51212900D01*
X74123121Y-51338402D01*
X73968402Y-51493121D01*
X73842900Y-51672357D01*
X73842898Y-51672361D01*
X73750426Y-51870668D01*
X73750422Y-51870677D01*
X73693793Y-52082020D01*
X73693793Y-52082024D01*
X73674723Y-52299997D01*
X73674723Y-52300002D01*
X69700000Y-52300002D01*
X69700000Y-52022172D01*
X69699999Y-52022155D01*
X69693598Y-51962627D01*
X69693597Y-51962623D01*
X69649371Y-51844049D01*
X69644387Y-51774357D01*
X69649367Y-51757393D01*
X69694091Y-51637483D01*
X69700500Y-51577873D01*
X69700499Y-49482128D01*
X69694091Y-49422517D01*
X69661830Y-49336022D01*
X69643797Y-49287671D01*
X69643793Y-49287664D01*
X69557547Y-49172455D01*
X69557544Y-49172452D01*
X69442335Y-49086206D01*
X69442328Y-49086202D01*
X69307482Y-49035908D01*
X69307483Y-49035908D01*
X69247883Y-49029501D01*
X69247881Y-49029500D01*
X69247873Y-49029500D01*
X69247864Y-49029500D01*
X66152129Y-49029500D01*
X66152123Y-49029501D01*
X66092516Y-49035908D01*
X65957671Y-49086202D01*
X65957664Y-49086206D01*
X65842455Y-49172452D01*
X65842452Y-49172455D01*
X65756206Y-49287664D01*
X65756202Y-49287671D01*
X65705908Y-49422517D01*
X65699501Y-49482116D01*
X65699501Y-49482123D01*
X65699500Y-49482135D01*
X65699500Y-49655500D01*
X65679815Y-49722539D01*
X65627011Y-49768294D01*
X65575500Y-49779500D01*
X64786298Y-49779500D01*
X64735863Y-49768780D01*
X64724804Y-49763856D01*
X64724802Y-49763855D01*
X64579000Y-49732865D01*
X64539646Y-49724500D01*
X64350354Y-49724500D01*
X64317897Y-49731398D01*
X64165197Y-49763855D01*
X64165192Y-49763857D01*
X63992270Y-49840848D01*
X63992265Y-49840851D01*
X63839129Y-49952111D01*
X63712466Y-50092785D01*
X63617821Y-50256715D01*
X63617818Y-50256722D01*
X63565824Y-50416744D01*
X63559326Y-50436744D01*
X63539540Y-50625000D01*
X59150499Y-50625000D01*
X59150499Y-50252128D01*
X59144091Y-50192517D01*
X59142902Y-50189330D01*
X59093797Y-50057671D01*
X59093793Y-50057664D01*
X59007547Y-49942455D01*
X59007544Y-49942452D01*
X58892335Y-49856206D01*
X58892328Y-49856202D01*
X58757482Y-49805908D01*
X58757483Y-49805908D01*
X58697883Y-49799501D01*
X58697881Y-49799500D01*
X58697873Y-49799500D01*
X58697864Y-49799500D01*
X55602129Y-49799500D01*
X55602123Y-49799501D01*
X55542516Y-49805908D01*
X55407671Y-49856202D01*
X55407664Y-49856206D01*
X55292455Y-49942452D01*
X55292452Y-49942455D01*
X55206206Y-50057664D01*
X55206202Y-50057671D01*
X55155908Y-50192517D01*
X55151189Y-50236416D01*
X55149501Y-50252123D01*
X55149500Y-50252135D01*
X55149500Y-52847870D01*
X47625500Y-52847870D01*
X47625500Y-48627681D01*
X47625733Y-48622330D01*
X47629477Y-48579535D01*
X47636846Y-48504723D01*
X47641918Y-48453223D01*
X47645542Y-48433309D01*
X47663402Y-48366653D01*
X47691683Y-48273424D01*
X47697953Y-48257037D01*
X47729420Y-48189558D01*
X47730872Y-48186653D01*
X47775764Y-48102666D01*
X47779657Y-48096331D01*
X47812837Y-48048945D01*
X47825994Y-48030155D01*
X47828827Y-48026420D01*
X47888122Y-47954168D01*
X47892162Y-47949710D01*
X47949710Y-47892162D01*
X47954168Y-47888122D01*
X48026420Y-47828827D01*
X48030155Y-47825994D01*
X48096334Y-47779654D01*
X48102666Y-47775764D01*
X48186653Y-47730872D01*
X48189558Y-47729420D01*
X48257037Y-47697953D01*
X48273424Y-47691683D01*
X48366653Y-47663402D01*
X48433309Y-47645542D01*
X48453223Y-47641918D01*
X48579542Y-47629477D01*
X48622305Y-47625735D01*
X48627706Y-47625500D01*
X103772293Y-47625500D01*
X103777695Y-47625735D01*
G37*
%TD.AperFunction*%
%TD*%
M02*
