0
SECTION
2
HEADER
9
$INSUNITS
70
4
9
$ACADVER
1
AC1014
9
$HANDSEED
5
FFFF
0
ENDSEC
0
SECTION
2
TABLES
0
TABLE
2
VPORT
5
8
100
AcDbSymbolTable
0
ENDTAB
0
TABLE
2
LTYPE
5
5
100
AcDbSymbolTable
0
LTYPE
5
14
100
AcDbSymbolTableRecord
100
AcDbLinetypeTableRecord
2
BYBLOCK
70
0
0
LTYPE
5
15
100
AcDbSymbolTableRecord
100
AcDbLinetypeTableRecord
2
BYLAYER
70
0
0
ENDTAB
0
TABLE
2
LAYER
5
2
100
AcDbSymbolTable
70
2
0
LAYER
5
50
100
AcDbSymbolTableRecord
100
AcDbLayerTableRecord
2
0
70
0
6
CONTINUOUS
0
ENDTAB
0
TABLE
2
STYLE
5
3
100
AcDbSymbolTable
70
1
0
STYLE
5
11
100
AcDbSymbolTableRecord
100
AcDbTextStyleTableRecord
2
STANDARD
70
0
0
ENDTAB
0
TABLE
2
VIEW
5
6
100
AcDbSymbolTable
70
0
0
ENDTAB
0
TABLE
2
UCS
5
7
100
AcDbSymbolTable
70
0
0
ENDTAB
0
TABLE
2
APPID
5
9
100
AcDbSymbolTable
70
2
0
APPID
5
12
100
AcDbSymbolTableRecord
100
AcDbRegAppTableRecord
2
ACAD
70
0
0
ENDTAB
0
TABLE
2
DIMSTYLE
5
A
100
AcDbSymbolTable
70
1
0
ENDTAB
0
TABLE
2
BLOCK_RECORD
5
1
100
AcDbSymbolTable
70
1
0
BLOCK_RECORD
5
1F
100
AcDbSymbolTableRecord
100
AcDbBlockTableRecord
2
*MODEL_SPACE
0
BLOCK_RECORD
5
1B
100
AcDbSymbolTableRecord
100
AcDbBlockTableRecord
2
*PAPER_SPACE
0
ENDTAB
0
ENDSEC
0
SECTION
2
BLOCKS
0
BLOCK
5
20
100
AcDbEntity
100
AcDbBlockBegin
2
*MODEL_SPACE
0
ENDBLK
5
21
100
AcDbEntity
100
AcDbBlockEnd
0
BLOCK
5
1C
100
AcDbEntity
100
AcDbBlockBegin
2
*PAPER_SPACE
0
ENDBLK
5
1D
100
AcDbEntity
100
AcDbBlockEnd
0
ENDSEC
0
SECTION
2
ENTITIES
0
CIRCLE
5
100
100
AcDbEntity
8
0
100
AcDbCircle
10
60.149999141693115
20
3.0000000000000004
30
0
40
1.6999999999999993
210
0
220
-0
230
1
0
CIRCLE
5
101
100
AcDbEntity
8
0
100
AcDbCircle
10
60.149999141693115
20
-60.149999141693115
30
0
40
1.6999999999999993
210
0
220
-0
230
1
0
CIRCLE
5
102
100
AcDbEntity
8
0
100
AcDbCircle
10
-3.0000000000000004
20
3.0000000000000004
30
0
40
1.7000000000000004
210
0
220
-0
230
1
0
CIRCLE
5
103
100
AcDbEntity
8
0
100
AcDbCircle
10
-3.0000000000000004
20
-60.149999141693115
30
0
40
1.7000000000000004
210
0
220
-0
230
1
0
SPLINE
5
104
100
AcDbEntity
8
0
100
AcDbSpline
70
0
71
3
72
16
73
12
74
0
42
0.000000001
43
0.0000000001
44
0.0000000001
40
0
40
0
40
0
40
0
40
0.33484483623176758
40
0.33484483623176758
40
0.62611391479525236
40
0.62611391479525236
40
0.9711732723521771
40
0.9711732723521771
40
1.2326802471368234
40
1.2326802471368234
40
1.5515281271711934
40
1.5515281271711934
40
1.5515281271711934
40
1.5515281271711934
10
-10
20
0
30
0
10
-10
20
1.1161494541058921
30
0
10
-10
20
2.357254755730783
30
0
10
-9.1402134092949723
20
4.9448553055654134
30
0
10
-8.5093811249196971
20
5.9101418743341281
30
0
10
-7.1330627792292152
20
7.5438531372609097
30
0
10
-6.1260098868111008
20
8.4265254854282254
30
0
10
-3.9836357475555979
20
9.5231468460757398
30
0
10
-3.1381859296475465
20
9.7456654880750531
30
0
10
-1.560289508900536
20
10.000000000000043
30
0
10
-0.75730979645939578
20
10.000000000000053
30
0
10
-4.4408920985006262e-15
20
10.000000000000062
30
0
0
LINE
5
105
100
AcDbEntity
8
0
100
AcDbLine
10
-10
20
0
30
0
11
-10
21
-57.149999141693115
31
0
0
SPLINE
5
106
100
AcDbEntity
8
0
100
AcDbSpline
70
0
71
3
72
16
73
12
74
0
42
0.000000001
43
0.0000000001
44
0.0000000001
40
0
40
0
40
0
40
0
40
0.33484483623176758
40
0.33484483623176758
40
0.62611391479525735
40
0.62611391479525735
40
0.9711732723521127
40
0.9711732723521127
40
1.2326802471366007
40
1.2326802471366007
40
1.5515281271706565
40
1.5515281271706565
40
1.5515281271706565
40
1.5515281271706565
10
0
20
-67.149999141693115
30
0
10
-1.1161494541058921
20
-67.149999141693115
30
0
10
-2.357254755730783
20
-67.149999141693115
30
0
10
-4.9448553055654338
20
-66.290212550988073
30
0
10
-5.9101418743341574
20
-65.659380266612786
30
0
10
-7.5438531372606832
20
-64.28306192092252
30
0
10
-8.4265254854281118
20
-63.276009028504447
30
0
10
-9.523146846075635
20
-61.133634889248924
30
0
10
-9.7456654880750087
20
-60.288185071340934
30
0
10
-10.000000000000043
20
-58.710288650593647
30
0
10
-10.000000000000053
20
-57.907308938152511
30
0
10
-10.000000000000062
20
-57.149999141693115
30
0
0
LINE
5
107
100
AcDbEntity
8
0
100
AcDbLine
10
0
20
-67.149999141693115
30
0
11
57.149999141693115
21
-67.149999141693115
31
0
0
SPLINE
5
108
100
AcDbEntity
8
0
100
AcDbSpline
70
0
71
3
72
16
73
12
74
0
42
0.000000001
43
0.0000000001
44
0.0000000001
40
0
40
0
40
0
40
0
40
0.3348448362317667
40
0.3348448362317667
40
0.62611391479525214
40
0.62611391479525214
40
0.97117327235209072
40
0.97117327235209072
40
1.23268024713644
40
1.23268024713644
40
1.551528127170074
40
1.551528127170074
40
1.551528127170074
40
1.551528127170074
10
67.149999141693115
20
-57.149999141693115
30
0
10
67.149999141693115
20
-58.26614859579901
30
0
10
67.149999141693115
20
-59.507253897423894
30
0
10
66.290212550988088
20
-62.094854447258534
30
0
10
65.6593802666128
20
-63.060141016027245
30
0
10
64.28306192092252
20
-64.693852278953798
30
0
10
63.276009028504447
20
-65.576524627121231
30
0
10
61.133634889249365
20
-66.673145987768521
30
0
10
60.288185071341502
20
-66.895664629768021
30
0
10
58.71028865059364
20
-67.149999141693158
30
0
10
57.907308938152468
20
-67.149999141693172
30
0
10
57.149999141693115
20
-67.149999141693172
30
0
0
LINE
5
109
100
AcDbEntity
8
0
100
AcDbLine
10
67.149999141693115
20
-57.149999141693115
30
0
11
67.149999141693115
21
0
31
0
0
SPLINE
5
110
100
AcDbEntity
8
0
100
AcDbSpline
70
0
71
3
72
16
73
12
74
0
42
0.000000001
43
0.0000000001
44
0.0000000001
40
0
40
0
40
0
40
0
40
0.3348448362317667
40
0.3348448362317667
40
0.62611391479524703
40
0.62611391479524703
40
0.97117327235215423
40
0.97117327235215423
40
1.2326802471366614
40
1.2326802471366614
40
1.5515281271706101
40
1.5515281271706101
40
1.5515281271706101
40
1.5515281271706101
10
57.149999141693115
20
10
30
0
10
58.26614859579901
20
10
30
0
10
59.507253897423894
20
10
30
0
10
62.094854447258506
20
9.1402134092949776
30
0
10
63.060141016027217
20
8.5093811249197202
30
0
10
64.693852278954026
20
7.1330627792292152
30
0
10
65.576524627121344
20
6.1260098868111008
30
0
10
66.673145987768635
20
3.9836357475560424
30
0
10
66.895664629768078
20
3.1381859296481185
30
0
10
67.149999141693158
20
1.560289508900522
30
0
10
67.149999141693172
20
0.75730979645935692
30
0
10
67.149999141693172
20
4.4408920985006262e-15
30
0
0
LINE
5
111
100
AcDbEntity
8
0
100
AcDbLine
10
57.149999141693115
20
10
30
0
11
-4.6259878722606163e-15
21
10.000000000000062
31
0
0
LWPOLYLINE
5
112
100
AcDbEntity
8
0
100
AcDbPolyline
90
8
70
1
43
0.0
10
14.901125634159841
20
-17.298000000000002
10
4.1488743658401477
20
-17.298000000000002
42
-0.35740398269116658
10
0.97500000000000031
20
-13.425000000000002
10
0.97500000000000142
20
-5.625
42
-0.35740398269116708
10
4.1488743658401619
20
-1.7520000000000029
10
14.901125634159833
20
-1.7519999999999991
42
-0.35740398269116846
10
18.075000000000003
20
-5.625
10
18.075000000000003
20
-13.425000000000002
42
-0.35740398269116708
0
LWPOLYLINE
5
113
100
AcDbEntity
8
0
100
AcDbPolyline
90
8
70
1
43
0.0
10
53.001125634159834
20
-17.298000000000002
10
42.24887436584013
20
-17.298000000000005
42
-0.35740398269116419
10
39.074999999999996
20
-13.425000000000002
10
39.075000000000003
20
-5.6250000000000009
42
-0.35740398269116641
10
42.248874365840166
20
-1.752000000000002
10
53.001125634159862
20
-1.7519999999999962
42
-0.35740398269116586
10
56.175000000000004
20
-5.6249999999999964
10
56.174999999999997
20
-13.425000000000002
42
-0.3574039826911668
0
LWPOLYLINE
5
114
100
AcDbEntity
8
0
100
AcDbPolyline
90
4
70
1
43
0.0
10
21.574999570846558
20
-40.624999570846555
10
35.574999570846558
20
-40.624999570846555
10
35.574999570846558
20
-54.624999570846562
10
21.574999570846558
20
-54.624999570846562
0
LWPOLYLINE
5
115
100
AcDbEntity
8
0
100
AcDbPolyline
90
4
70
1
43
0.0
10
21.574999570846558
20
-35.574999570846558
10
21.574999570846558
20
-21.574999570846558
10
35.574999570846558
20
-21.574999570846558
10
35.574999570846558
20
-35.574999570846558
0
LWPOLYLINE
5
116
100
AcDbEntity
8
0
100
AcDbPolyline
90
4
70
1
43
0.0
10
2.5249998569488508
20
-40.624999570846555
10
16.524999856948853
20
-40.624999570846555
10
16.524999856948853
20
-54.624999570846562
10
2.524999856948853
20
-54.624999570846562
0
LWPOLYLINE
5
117
100
AcDbEntity
8
0
100
AcDbPolyline
90
4
70
1
43
0.0
10
40.624999284744263
20
-35.574999570846558
10
40.624999284744263
20
-21.574999570846558
10
54.624999284744263
20
-21.574999570846558
10
54.624999284744263
20
-35.574999570846558
0
LWPOLYLINE
5
118
100
AcDbEntity
8
0
100
AcDbPolyline
90
4
70
1
43
0.0
10
40.624999284744263
20
-40.624999570846555
10
54.624999284744263
20
-40.624999570846555
10
54.624999284744263
20
-54.624999570846562
10
40.624999284744263
20
-54.624999570846562
0
LWPOLYLINE
5
119
100
AcDbEntity
8
0
100
AcDbPolyline
90
4
70
1
43
0.0
10
2.5249998569488508
20
-21.574999570846558
10
16.524999856948853
20
-21.574999570846558
10
16.524999856948853
20
-35.574999570846558
10
2.5249998569488508
20
-35.574999570846558
0
ENDSEC
0
SECTION
2
OBJECTS
0
DICTIONARY
5
C
100
AcDbDictionary
3
ACAD_GROUP
350
D
3
ACAD_MLINESTYLE
350
17
0
DICTIONARY
5
D
100
AcDbDictionary
0
DICTIONARY
5
1A
330
C
100
AcDbDictionary
0
DICTIONARY
5
17
100
AcDbDictionary
0
ENDSEC
0
EOF
