0
SECTION
2
HEADER
9
$INSUNITS
70
4
9
$ACADVER
1
AC1014
9
$HANDSEED
5
FFFF
0
ENDSEC
0
SECTION
2
TABLES
0
TABLE
2
VPORT
5
8
100
AcDbSymbolTable
0
ENDTAB
0
TABLE
2
LTYPE
5
5
100
AcDbSymbolTable
0
LTYPE
5
14
100
AcDbSymbolTableRecord
100
AcDbLinetypeTableRecord
2
BYBLOCK
70
0
0
LTYPE
5
15
100
AcDbSymbolTableRecord
100
AcDbLinetypeTableRecord
2
BYLAYER
70
0
0
ENDTAB
0
TABLE
2
LAYER
5
2
100
AcDbSymbolTable
70
2
0
LAYER
5
50
100
AcDbSymbolTableRecord
100
AcDbLayerTableRecord
2
0
70
0
6
CONTINUOUS
0
ENDTAB
0
TABLE
2
STYLE
5
3
100
AcDbSymbolTable
70
1
0
STYLE
5
11
100
AcDbSymbolTableRecord
100
AcDbTextStyleTableRecord
2
STANDARD
70
0
0
ENDTAB
0
TABLE
2
VIEW
5
6
100
AcDbSymbolTable
70
0
0
ENDTAB
0
TABLE
2
UCS
5
7
100
AcDbSymbolTable
70
0
0
ENDTAB
0
TABLE
2
APPID
5
9
100
AcDbSymbolTable
70
2
0
APPID
5
12
100
AcDbSymbolTableRecord
100
AcDbRegAppTableRecord
2
ACAD
70
0
0
ENDTAB
0
TABLE
2
DIMSTYLE
5
A
100
AcDbSymbolTable
70
1
0
ENDTAB
0
TABLE
2
BLOCK_RECORD
5
1
100
AcDbSymbolTable
70
1
0
BLOCK_RECORD
5
1F
100
AcDbSymbolTableRecord
100
AcDbBlockTableRecord
2
*MODEL_SPACE
0
BLOCK_RECORD
5
1B
100
AcDbSymbolTableRecord
100
AcDbBlockTableRecord
2
*PAPER_SPACE
0
ENDTAB
0
ENDSEC
0
SECTION
2
BLOCKS
0
BLOCK
5
20
100
AcDbEntity
100
AcDbBlockBegin
2
*MODEL_SPACE
0
ENDBLK
5
21
100
AcDbEntity
100
AcDbBlockEnd
0
BLOCK
5
1C
100
AcDbEntity
100
AcDbBlockBegin
2
*PAPER_SPACE
0
ENDBLK
5
1D
100
AcDbEntity
100
AcDbBlockEnd
0
ENDSEC
0
SECTION
2
ENTITIES
0
CIRCLE
5
100
100
AcDbEntity
8
0
100
AcDbCircle
10
60.149999141693115
20
3.0000000000000004
30
0
40
1.6999999999999993
210
0
220
-0
230
1
0
CIRCLE
5
101
100
AcDbEntity
8
0
100
AcDbCircle
10
60.149999141693115
20
-60.149999141693115
30
0
40
1.6999999999999993
210
0
220
-0
230
1
0
CIRCLE
5
102
100
AcDbEntity
8
0
100
AcDbCircle
10
-3.0000000000000004
20
3.0000000000000004
30
0
40
1.7000000000000004
210
0
220
-0
230
1
0
CIRCLE
5
103
100
AcDbEntity
8
0
100
AcDbCircle
10
-3.0000000000000004
20
-60.149999141693115
30
0
40
1.7000000000000004
210
0
220
-0
230
1
0
ARC
5
104
100
AcDbEntity
8
0
100
AcDbCircle
10
37.045000000000002
20
2.0000000000000044
30
0
40
1.0000000000000053
210
0
220
0
230
1
100
AcDbArc
50
180
51
270
0
LINE
5
105
100
AcDbEntity
8
0
100
AcDbLine
10
37.045000000000002
20
0.99999999999999922
30
0
11
56.149999141693101
21
1.0000000000000009
31
0
0
ARC
5
106
100
AcDbEntity
8
0
100
AcDbCircle
10
56.149999141693101
20
-1.0000000000000009
30
0
40
2.0000000000000018
210
0
220
-0
230
1
100
AcDbArc
50
0
51
90
0
LINE
5
107
100
AcDbEntity
8
0
100
AcDbLine
10
58.149999141693101
20
-0.99999999999999689
30
0
11
58.149999141693115
21
-56.149999141693101
31
0
0
ARC
5
108
100
AcDbEntity
8
0
100
AcDbCircle
10
56.149999141693108
20
-56.149999141693101
30
0
40
2.0000000000000018
210
-0
220
0
230
1
100
AcDbArc
50
-90
51
0
0
LINE
5
109
100
AcDbEntity
8
0
100
AcDbLine
10
56.149999141693108
20
-58.149999141693101
30
0
11
1.0000000000000053
21
-58.149999141693115
31
0
0
ARC
5
110
100
AcDbEntity
8
0
100
AcDbCircle
10
1
20
-56.149999141693108
30
0
40
1.9999999999999996
210
0
220
0
230
1
100
AcDbArc
50
180
51
270.00000000000017
0
LINE
5
111
100
AcDbEntity
8
0
100
AcDbLine
10
-0.99999999999999956
20
-56.149999141693108
30
0
11
-1.0000000000000009
21
-1.0000000000000053
31
0
0
ARC
5
112
100
AcDbEntity
8
0
100
AcDbCircle
10
1.0000000000000009
20
-1
30
0
40
2
210
0
220
0
230
1
100
AcDbArc
50
90.000000000000114
51
180
0
LINE
5
113
100
AcDbEntity
8
0
100
AcDbLine
10
0.99999999999999689
20
1
30
0
11
20.105
21
1.0000000000000009
31
0
0
ARC
5
114
100
AcDbEntity
8
0
100
AcDbCircle
10
20.104999999999997
20
2.000000000000004
30
0
40
1.0000000000000031
210
0
220
0
230
1
100
AcDbArc
50
270.00000000000023
51
360
0
LINE
5
115
100
AcDbEntity
8
0
100
AcDbLine
10
21.105
20
1.9999999999999998
30
0
11
21.105
21
3.5857864376269055
31
0
0
ARC
5
116
100
AcDbEntity
8
0
100
AcDbCircle
10
20.105000000000011
20
3.5857864376269082
30
0
40
0.99999999999998757
210
0
220
0
230
1
100
AcDbArc
50
0
51
45.000000000000526
0
LINE
5
117
100
AcDbEntity
8
0
100
AcDbLine
10
20.812106781186543
20
4.292893218813453
30
0
11
15.397893218813445
21
9.7071067811865479
31
0
0
ARC
5
118
100
AcDbEntity
8
0
100
AcDbCircle
10
14.690786437626898
20
9.0000000000000018
30
0
40
1.0000000000000004
210
0
220
-0
230
1
100
AcDbArc
50
44.999999999999922
51
89.999999999999901
0
LINE
5
119
100
AcDbEntity
8
0
100
AcDbLine
10
14.690786437626899
20
10.000000000000002
30
0
11
0
21
10
31
0
0
SPLINE
5
120
100
AcDbEntity
8
0
100
AcDbSpline
70
0
71
3
72
16
73
12
74
0
42
0.000000001
43
0.0000000001
44
0.0000000001
40
0
40
0
40
0
40
0
40
0.33484483623178457
40
0.33484483623178457
40
0.62611391479528933
40
0.62611391479528933
40
0.97117327235256112
40
0.97117327235256112
40
1.2326802471378311
40
1.2326802471378311
40
1.551528127173343
40
1.551528127173343
40
1.551528127173343
40
1.551528127173343
10
-10.000000000000062
20
4.4408920985006262e-15
30
0
10
-10.00000000000005
20
1.1161494541059529
30
0
10
-10.000000000000034
20
2.3572547557308314
30
0
10
-9.1402134092949723
20
4.9448553055654685
30
0
10
-8.5093811249196776
20
5.9101418743341902
30
0
10
-7.1330627792284718
20
7.5438531372617952
30
0
10
-6.1260098868102091
20
8.4265254854286802
30
0
10
-3.9836357475548425
20
9.5231468460760844
30
0
10
-3.138185929646613
20
9.745665488075181
30
0
10
-1.5602895089005431
20
10
30
0
10
-0.75730979645949492
20
10
30
0
10
0
20
10
30
0
0
LINE
5
121
100
AcDbEntity
8
0
100
AcDbLine
10
-10.000000000000062
20
4.4408920985006262e-15
30
0
11
-10
21
-57.149999141693115
31
0
0
SPLINE
5
122
100
AcDbEntity
8
0
100
AcDbSpline
70
0
71
3
72
16
73
12
74
0
42
0.000000001
43
0.0000000001
44
0.0000000001
40
0
40
0
40
0
40
0
40
0.3348448362317788
40
0.3348448362317788
40
0.62611391479527456
40
0.62611391479527456
40
0.97117327235256301
40
0.97117327235256301
40
1.2326802471379006
40
1.2326802471379006
40
1.551528127173571
40
1.551528127173571
40
1.551528127173571
40
1.551528127173571
10
-4.4408920985006262e-15
20
-67.149999141693172
30
0
10
-1.1161494541059338
20
-67.149999141693158
30
0
10
-2.3572547557308248
20
-67.149999141693144
30
0
10
-4.9448553055654578
20
-66.290212550988088
30
0
10
-5.910141874334176
20
-65.6593802666128
30
0
10
-7.5438531372618831
20
-64.283061920921512
30
0
10
-8.4265254854287246
20
-63.276009028503239
30
0
10
-9.5231468460761501
20
-61.13363488924783
30
0
10
-9.7456654880752094
20
-60.288185071339562
30
0
10
-10
20
-58.710288650593661
30
0
10
-10
20
-57.90730893815261
30
0
10
-10
20
-57.149999141693115
30
0
0
LINE
5
123
100
AcDbEntity
8
0
100
AcDbLine
10
-4.4408920985006262e-15
20
-67.149999141693172
30
0
11
57.149999141693115
21
-67.149999141693115
31
0
0
SPLINE
5
124
100
AcDbEntity
8
0
100
AcDbSpline
70
0
71
3
72
16
73
12
74
0
42
0.000000001
43
0.0000000001
44
0.0000000001
40
0
40
0
40
0
40
0
40
0.33484483623178057
40
0.33484483623178057
40
0.62611391479528011
40
0.62611391479528011
40
0.97117327235255557
40
0.97117327235255557
40
1.2326802471379712
40
1.2326802471379712
40
1.5515281271739327
40
1.5515281271739327
40
1.5515281271739327
40
1.5515281271739327
10
67.149999141693172
20
-57.149999141693115
30
0
10
67.149999141693158
20
-58.266148595799052
30
0
10
67.149999141693144
20
-59.507253897423944
30
0
10
66.290212550988088
20
-62.094854447258584
30
0
10
65.6593802666128
20
-63.060141016027302
30
0
10
64.283061920921568
20
-64.693852278954935
30
0
10
63.276009028503296
20
-65.576524627121813
30
0
10
61.133634889247467
20
-66.673145987769445
30
0
10
60.2881850713391
20
-66.895664629768405
30
0
10
58.710288650593689
20
-67.149999141693115
30
0
10
57.907308938152688
20
-67.149999141693115
30
0
10
57.149999141693115
20
-67.149999141693115
30
0
0
LINE
5
125
100
AcDbEntity
8
0
100
AcDbLine
10
67.149999141693172
20
-57.149999141693115
30
0
11
67.149999141693115
21
0
31
0
0
SPLINE
5
126
100
AcDbEntity
8
0
100
AcDbSpline
70
0
71
3
72
16
73
12
74
0
42
0.000000001
43
0.0000000001
44
0.0000000001
40
0
40
0
40
0
40
0
40
0.33484483623178624
40
0.33484483623178624
40
0.62611391479529444
40
0.62611391479529444
40
0.97117327235255291
40
0.97117327235255291
40
1.2326802471379008
40
1.2326802471379008
40
1.5515281271737036
40
1.5515281271737036
40
1.5515281271737036
40
1.5515281271737036
10
57.149999141693115
20
10.000000000000062
30
0
10
58.266148595799066
20
10.00000000000005
30
0
10
59.507253897423951
20
10.000000000000034
30
0
10
62.094854447258598
20
9.1402134092949705
30
0
10
63.060141016027316
20
8.5093811249196651
30
0
10
64.69385227895485
20
7.1330627792285242
30
0
10
65.576524627121756
20
6.1260098868102695
30
0
10
66.673145987769388
20
3.9836357475544846
30
0
10
66.895664629768376
20
3.1381859296461538
30
0
10
67.149999141693115
20
1.5602895089005706
30
0
10
67.149999141693115
20
0.75730979645957341
30
0
10
67.149999141693115
20
0
30
0
0
LINE
5
127
100
AcDbEntity
8
0
100
AcDbLine
10
57.149999141693115
20
10.000000000000062
30
0
11
42.459213562373094
21
10
31
0
0
ARC
5
128
100
AcDbEntity
8
0
100
AcDbCircle
10
42.45921356237308
20
9.0000000000000053
30
0
40
0.99999999999999423
210
0
220
-0
230
1
100
AcDbArc
50
89.99999999999919
51
134.99999999999972
0
LINE
5
129
100
AcDbEntity
8
0
100
AcDbLine
10
41.752106781186541
20
9.7071067811865515
30
0
11
36.337893218813448
21
4.2928932188134574
31
0
0
ARC
5
130
100
AcDbEntity
8
0
100
AcDbCircle
10
37.045000000000009
20
3.5857864376269073
30
0
40
1.0000000000000102
210
0
220
0
230
1
100
AcDbArc
50
135.00000000000043
51
180
0
LINE
5
131
100
AcDbEntity
8
0
100
AcDbLine
10
36.045000000000002
20
3.5857864376269122
30
0
11
36.045000000000002
21
1.9999999999999996
31
0
0
ENDSEC
0
SECTION
2
OBJECTS
0
DICTIONARY
5
C
100
AcDbDictionary
3
ACAD_GROUP
350
D
3
ACAD_MLINESTYLE
350
17
0
DICTIONARY
5
D
100
AcDbDictionary
0
DICTIONARY
5
1A
330
C
100
AcDbDictionary
0
DICTIONARY
5
17
100
AcDbDictionary
0
ENDSEC
0
EOF
